<?xml version="1.0" standalone="no"?>
<!DOCTYPE svg PUBLIC "-//W3C//DTD SVG 1.1//EN" "http://www.w3.org/Graphics/SVG/1.1/DTD/svg11.dtd" >
<svg xmlns="http://www.w3.org/2000/svg">
<metadata>
This is a custom SVG webfont generated by Fontspring.
</metadata>
<defs>
<font id="webfontQKgp3kpk" horiz-adv-x="976" >
<font-face units-per-em="2048" ascent="1690" descent="-358" />
<missing-glyph horiz-adv-x="382" />
<glyph unicode=" "  horiz-adv-x="382" />
<glyph unicode="&#x09;" horiz-adv-x="382" />
<glyph unicode="&#xa0;" horiz-adv-x="382" />
<glyph unicode="!" horiz-adv-x="419" d="M203 358l-23 582v426h111v-426l-21 -582h-67zM180 0v170h111l4 -170h-115z" />
<glyph unicode="&#x22;" horiz-adv-x="532" d="M340 901l-18 465h108l-20 -465h-70zM121 901l-19 465h109l-18 -465h-72z" />
<glyph unicode="#" d="M193 47l59 387h-143l14 88h143l47 318h-143l14 88h144l59 387h90l-59 -387h217l59 387h90l-59 -387h143l-14 -88h-143l-47 -318h143l-14 -88h-144l-59 -387h-90l59 387h-217l-59 -387h-90zM356 522h217l48 318h-218z" />
<glyph unicode="$" d="M74 414h104q-8 -313 252 -340v600q-158 61 -201 92q-127 92 -127 268q0 147 86 238.5t242 105.5v146h76v-146q162 -10 250 -98t90 -242h-103q-10 123 -66 184.5t-171 71.5v-538q174 -59 227 -97q139 -96 139 -290q0 -346 -366 -381v-174h-76v174q-362 18 -356 426z M430 782v510q-106 -14 -165.5 -78.5t-59.5 -166.5q0 -100 52 -161t173 -104zM506 72q127 18 194.5 92t67.5 194q0 156 -100 220q-39 25 -162 71v-577z" />
<glyph unicode="%" horiz-adv-x="1372" d="M317 571q-123 0 -176 93.5t-53 310.5q0 215 56.5 311t181.5 96q123 0 178 -92t55 -297q0 -225 -56.5 -323.5t-185.5 -98.5zM397 0l506 1366h72l-508 -1366h-70zM319 633q88 0 123 77.5t35 274.5q0 184 -33.5 259t-117.5 75q-104 0 -140 -129q-16 -72 -16 -232 q0 -178 33.5 -251.5t115.5 -73.5zM840 129q-29 86 -29 258q0 215 56.5 311.5t183.5 96.5q123 0 178 -92.5t55 -296.5q0 -225 -56.5 -323.5t-185.5 -98.5q-151 0 -202 145zM893 371q0 -178 35 -252t116 -74q88 0 123 78t35 274q0 184 -33.5 259t-117.5 75q-109 0 -142 -129 q-16 -71 -16 -231z" />
<glyph unicode="&#x26;" horiz-adv-x="1153" d="M96 344q0 150 101 266q49 55 114 105l90 69l17 13q-111 162 -138.5 219t-27.5 125q0 111 78 182.5t196 71.5q121 0 195 -69t74 -183q0 -131 -113 -244q-45 -43 -141 -113l321 -450q55 104 60 276h96q0 -82 -27.5 -185t-68.5 -175l178 -252h-117l-123 176 q-139 -205 -377 -205q-170 0 -278.5 104.5t-108.5 268.5zM494 852q113 86 158.5 151.5t45.5 141.5t-48 123t-126 47t-127 -47t-49 -121q1 -107 146 -295zM205 356q0 -129 85 -213t216 -84q190 0 303 193l-340 479q-141 -96 -202.5 -184.5t-61.5 -190.5z" />
<glyph unicode="'" horiz-adv-x="313" d="M121 901l-19 465h109l-18 -465h-72z" />
<glyph unicode="(" horiz-adv-x="489" d="M360 -246q-252 391 -251 815q0 207 67.5 425t183.5 384h56q-100 -154 -158.5 -373t-58.5 -438q0 -223 51 -413.5t166 -399.5h-56z" />
<glyph unicode=")" horiz-adv-x="489" d="M72 -246q219 375 219 813q0 451 -219 811h55q51 -72 104 -188q150 -328 150 -625q0 -422 -254 -811h-55z" />
<glyph unicode="*" horiz-adv-x="712" d="M223 870l-55 41l151 179l-217 69l25 66l205 -90l-6 231h67l-8 -231l203 90l22 -62l-204 -73l147 -179l-55 -41l-138 195z" />
<glyph unicode="+" d="M446 317v328h-321v76h321v328h80v-328h326v-76h-326v-328h-80z" />
<glyph unicode="," horiz-adv-x="364" d="M125 4v178h115v-145q0 -139 -27 -198.5t-104 -100.5v61q43 29 58 71t13 134h-55z" />
<glyph unicode="-" horiz-adv-x="356" d="M0 467v92h356v-92h-356z" />
<glyph unicode="." horiz-adv-x="364" d="M125 0v182h113v-182h-113z" />
<glyph unicode="/" horiz-adv-x="663" d="M-25 -246l535 1624h94l-538 -1624h-91z" />
<glyph unicode="0" d="M152 225q-49 154 -50 453q0 344 68 502q94 215 324 215q211 0 305 -191q74 -154 73 -489q0 -401 -91 -571.5t-304 -170.5q-121 0 -203.5 64.5t-121.5 187.5zM479 55q160 0 221.5 141.5t61.5 508.5q0 334 -61.5 470t-211.5 136q-188 0 -249 -242q-29 -117 -29 -426 q0 -319 61.5 -453.5t206.5 -134.5z" />
<glyph unicode="1" d="M508 0v1061h-311v67q164 6 239.5 60.5t93.5 177.5h82v-1366h-104z" />
<glyph unicode="2" d="M104 0q10 199 92.5 320.5t335.5 326.5q119 96 164 177t45 192q0 137 -68.5 215t-187.5 78q-256 0 -268 -338h-106q4 205 101 313.5t277 108.5q170 0 266.5 -100.5t96.5 -278.5t-113 -303q-43 -47 -76.5 -77t-191.5 -157q-125 -100 -179 -181t-81 -206h653v-90h-760z" />
<glyph unicode="3" d="M111 358h106q6 -145 77 -224t193 -79q131 0 207 87t76 237q0 184 -121 264q-61 43 -207 43h-43v78h33q150 0 222.5 68.5t72.5 211.5q0 125 -64.5 196t-177.5 71q-115 0 -181 -77t-68 -214h-105q6 180 98.5 276.5t257.5 96.5q164 0 256.5 -91.5t92.5 -252.5 q0 -174 -101 -258q-57 -47 -160 -62q131 -14 199 -70q106 -90 107 -270q0 -193 -106.5 -304.5t-291.5 -111.5q-170 0 -269 103.5t-103 281.5z" />
<glyph unicode="4" d="M82 354v109l520 903h109v-924h161v-88h-161v-354h-101v354h-528zM166 442h444v777z" />
<glyph unicode="5" d="M219 66q-49 47 -71.5 106t-32.5 168h106q14 -141 72 -205q72 -78 188 -78q133 0 210 104.5t77 287.5q0 174 -75 270t-210 96q-84 0 -138 -36t-103 -124l-99 2l76 709h596v-90l-516 -4l-63 -514q109 143 278.5 143t267 -119.5t97.5 -328.5q0 -223 -106.5 -351.5 t-295.5 -128.5q-162 1 -258 93z" />
<glyph unicode="6" d="M170 170q-72 145 -72 479q0 373 82 537q104 209 328 209q145 0 234 -84t96 -228h-107q-10 109 -69.5 169.5t-159.5 60.5q-195 0 -258 -234q-27 -100 -47 -442q47 131 121.5 188.5t197.5 57.5q170 0 265.5 -116t95.5 -323q0 -219 -103.5 -345t-286.5 -126q-221 0 -317 197 zM494 57q125 0 197.5 100.5t72.5 274.5t-71.5 269.5t-200.5 95.5q-123 0 -196 -94.5t-73 -256.5q0 -182 72 -285.5t199 -103.5z" />
<glyph unicode="7" d="M258 2q35 348 178.5 691t349.5 577h-682v96h773v-98q-203 -252 -336 -590t-164 -678z" />
<glyph unicode="8" d="M100 379q0 213 133 315q41 31 129 54q-219 45 -219 301q0 158 93.5 251t252.5 93q158 0 251.5 -92.5t93.5 -247.5q0 -168 -109 -258q-47 -35 -119 -47q98 -23 154 -68q115 -96 114 -297q0 -190 -103 -300t-283.5 -110t-284 109t-103.5 297zM489 786q109 0 172.5 70 t63.5 188q0 125 -62.5 196t-173.5 71q-109 0 -173 -71t-64 -189q0 -123 63 -194t174 -71zM211 387q0 -158 72.5 -246t203.5 -88t205 88t74 244q0 150 -74 233.5t-205 83.5q-125 0 -200.5 -86t-75.5 -229z" />
<glyph unicode="9" d="M233 55q-76 72 -96 228l107 -2q16 -106 63 -160q61 -66 164 -66q199 0 262 238q29 113 45 432q-49 -113 -86 -154q-82 -88 -233 -88q-170 0 -265.5 117t-95.5 324q0 217 105.5 343t285.5 126q215 0 316 -197q72 -141 72 -481q0 -362 -80 -529q-104 -213 -332 -213 q-144 0 -232 82zM483 569q125 0 197 93.5t72 255.5q0 184 -71 287.5t-198 103.5q-125 0 -198.5 -101.5t-73.5 -275.5q0 -170 72.5 -266.5t199.5 -96.5z" />
<glyph unicode=":" horiz-adv-x="405" d="M166 827v183h113v-183h-113zM166 8v182h113v-182h-113z" />
<glyph unicode=";" horiz-adv-x="405" d="M166 827v183h115v-183h-115zM166 4v178h115v-143q0 -143 -26 -202.5t-105 -98.5v61q43 29 57 70t14 135h-55z" />
<glyph unicode="&#x3c;" horiz-adv-x="1024" d="M68 641v92l886 400v-103l-776 -344l776 -344v-102z" />
<glyph unicode="=" d="M123 782v76h729v-76h-729zM123 508v76h729v-76h-729z" />
<glyph unicode="&#x3e;" horiz-adv-x="1024" d="M70 240v102l776 344l-776 344v103l886 -400v-92z" />
<glyph unicode="?" horiz-adv-x="870" d="M385 358q0 160 32 229.5t169 211.5q111 117 110 260q0 113 -63.5 180.5t-171.5 67.5q-119 0 -182.5 -84t-65.5 -240h-100q0 193 91 299.5t257 106.5q156 0 247 -90.5t91 -245.5q0 -129 -62 -219q-6 -10 -12 -18.5t-11 -14.5t-17 -19l-21 -23l-35 -37l-49 -52 q-74 -80 -92.5 -134.5t-16.5 -177.5h-98zM381 0v170h113v-170h-113z" />
<glyph unicode="@" horiz-adv-x="1320" d="M256 160q-170 211 -170 508q0 301 172 506.5t422 205.5q236 0 395.5 -174t159.5 -432q0 -190 -94 -335.5t-217 -145.5q-66 0 -99 55q-14 25 -26 80q-84 -143 -199 -143q-94 0 -155.5 91t-61.5 230q0 168 84 288t203 120q63 0 101 -35t73 -121l26 131h91l-76 -422 q-12 -63 -13 -96q0 -96 58 -96q84 0 150.5 120.5t66.5 276.5q0 229 -131 380t-332 151q-213 0 -357.5 -183.5t-144.5 -453.5q0 -258 135 -445q135 -184 375 -184q184 0 348 92l27 -76q-174 -94 -375 -94q-276 0 -436 201zM621 369q80 0 134 101t54 249q0 98 -32 153.5 t-91 59.5q-80 4 -143.5 -97.5t-63.5 -232.5q0 -104 39.5 -168.5t102.5 -64.5z" />
<glyph unicode="A" horiz-adv-x="1015" d="M31 0l407 1366h150l395 -1366h-115l-114 403h-496l-117 -403h-110zM281 489h452l-223 814z" />
<glyph unicode="B" horiz-adv-x="1013" d="M143 0v1366h277q203 0 268 -25q88 -33 139.5 -115.5t51.5 -195.5q0 -160 -97 -244q-49 -43 -155 -67q119 -12 186 -64q113 -88 113 -272q0 -242 -183 -340q-86 -43 -258 -43h-342zM250 754h160q176 0 239 32q123 63 123 236q0 197 -158 246q-47 14 -219 14h-145v-528z M250 82h188q172 0 242 35q137 74 137 264q0 211 -174 274q-57 20 -235 21h-158v-594z" />
<glyph unicode="C" horiz-adv-x="1003" d="M532 -25q-223 0 -326.5 169t-103.5 530q0 336 88 510q106 205 351 205q176 0 276 -107q51 -51 73.5 -115.5t33.5 -183.5l-105 -2q-18 164 -78 236q-74 86 -202 86q-170 0 -248 -152t-78 -481q0 -315 78 -463t246 -148q131 0 208.5 103.5t85.5 290.5h107 q-14 -139 -39 -214t-78 -141q-101 -123 -289 -123z" />
<glyph unicode="D" horiz-adv-x="1060" d="M143 0v1366h260q147 0 231.5 -19.5t145.5 -70.5q178 -147 178 -555q0 -420 -149 -594q-59 -70 -140 -98.5t-214 -28.5h-312zM250 86h182q209 0 291 98q125 145 125 527q0 362 -137 491q-88 80 -301 80h-160v-1196z" />
<glyph unicode="E" horiz-adv-x="921" d="M143 0v1366h666v-92h-559v-516h524v-90h-524v-576h579v-92h-686z" />
<glyph unicode="F" horiz-adv-x="845" d="M123 0v1366h663v-92h-557v-516h525v-90h-525v-668h-106z" />
<glyph unicode="G" horiz-adv-x="1058" d="M518 -25q-418 0 -418 695q0 346 90 514q111 205 349 205q170 0 273 -105.5t110 -288.5l-107 2q-18 152 -78 222q-72 84 -200 84q-188 0 -265 -181q-63 -147 -63 -460q0 -307 80 -455t243 -148q94 0 164 55.5t103 153.5q39 111 39 334h-328v84h428v-686h-82v92v66 q0 14 2 49t2 61q-25 -88 -48.5 -132t-61.5 -79q-89 -82 -232 -82z" />
<glyph unicode="H" horiz-adv-x="1058" d="M143 0v1366h107v-590h559v590h106v-1366h-106v686h-559v-686h-107z" />
<glyph unicode="I" horiz-adv-x="421" d="M158 0v1366h106v-1366h-106z" />
<glyph unicode="J" horiz-adv-x="796" d="M76 143q-31 76 -31 246h105q0 -156 24 -215q49 -115 180 -115q164 0 201 156q12 59 12 197v954h107v-954q0 -197 -35 -275q-74 -162 -291 -162q-206 0 -272 168z" />
<glyph unicode="K" horiz-adv-x="980" d="M143 0v1366h105v-756l543 756h116l-420 -571l461 -795h-119l-409 709l-172 -230v-479h-105z" />
<glyph unicode="L" horiz-adv-x="862" d="M143 0v1366h107v-1274h573v-92h-680z" />
<glyph unicode="M" horiz-adv-x="1316" d="M143 0v1366h168l351 -1216l337 1216h175v-1366h-101v1257l-364 -1257h-105l-360 1257v-1257h-101z" />
<glyph unicode="N" horiz-adv-x="1062" d="M143 0v1366h136l540 -1198v1198h101v-1366h-138l-536 1214v-1214h-103z" />
<glyph unicode="O" horiz-adv-x="1077" d="M530 -25q-219 0 -323.5 175.5t-104.5 541.5q0 698 441 699q221 0 326.5 -169t105.5 -522q0 -375 -108 -550t-337 -175zM530 59q174 0 254 149.5t80 473.5q0 326 -77.5 474.5t-247.5 148.5t-249 -147.5t-79 -465.5q0 -330 75.5 -481.5t243.5 -151.5z" />
<glyph unicode="P" horiz-adv-x="942" d="M143 0v1366h332q168 0 250 -53q154 -98 154 -328q0 -121 -48.5 -211t-136.5 -133q-84 -41 -264 -41h-182v-600h-105zM248 684h190q152 0 217 45q115 78 115 254q0 186 -125 262q-61 37 -203 37h-194v-598z" />
<glyph unicode="Q" horiz-adv-x="1038" d="M168 229q-66 178 -66 449q0 360 108.5 535.5t332.5 175.5q219 0 324.5 -169t105.5 -522q0 -412 -127 -571l147 -143l-57 -60l-145 144q-109 -92 -263 -93q-268 0 -360 254zM530 57q111 0 191 72l-146 143l58 62l139 -141q51 82 71.5 193.5t20.5 303.5q0 319 -77.5 466 t-247.5 147q-180 0 -256 -160q-72 -150 -72 -467q0 -319 76.5 -469t242.5 -150z" />
<glyph unicode="R" horiz-adv-x="1017" d="M143 0v1366h361q172 0 248 -51q145 -92 145 -301q0 -184 -104 -277q-49 -45 -168 -67q90 -8 137 -27.5t77.5 -75t41 -137.5t14.5 -235q2 -88 10 -122t31 -73l-123 2q-16 41 -22.5 89t-12.5 210q-6 133 -25.5 191.5t-68.5 93.5q-61 45 -223 45h-213v-631h-105zM248 711 h223q147 0 215 53q102 80 102 237q0 180 -124 248q-59 33 -183 33h-233v-571z" />
<glyph unicode="S" horiz-adv-x="962" d="M227 195q76 -135 250 -136q137 0 218 79t81 212t-90 205q-35 29 -75 46t-216 77q-152 53 -220.5 135t-68.5 213q0 170 100.5 265t276.5 95q360 0 367 -360h-107q-2 276 -260 277q-127 0 -198.5 -70t-71.5 -191q0 -145 115 -221q33 -23 64.5 -35t207.5 -71 q154 -51 220.5 -134t66.5 -221q0 -178 -109.5 -281.5t-300.5 -103.5q-395 0 -395 414v23h108q2 -154 37 -217z" />
<glyph unicode="T" horiz-adv-x="899" d="M399 0v1274h-360v92h823v-92h-356v-1274h-107z" />
<glyph unicode="U" horiz-adv-x="1034" d="M168 170q-35 78 -35 250v946h107v-950q0 -154 32 -219q68 -137 242 -138q201 0 260 168q23 61 23 203v936h106v-934q0 -180 -45 -268q-94 -188 -352 -189q-248 0 -338 195z" />
<glyph unicode="V" horiz-adv-x="935" d="M395 0l-356 1366h113l319 -1270l320 1270h108l-358 -1366h-146z" />
<glyph unicode="W" horiz-adv-x="1417" d="M332 0l-287 1366h109l249 -1262l240 1262h133l240 -1262l250 1262h106l-289 -1366h-139l-235 1251l-240 -1251h-137z" />
<glyph unicode="X" horiz-adv-x="917" d="M25 0l376 696l-350 670h119l293 -584l295 584h110l-348 -670l373 -696h-119l-315 610l-320 -610h-114z" />
<glyph unicode="Y" horiz-adv-x="866" d="M379 0v551l-369 815h121l303 -715l309 715h113l-371 -815v-551h-106z" />
<glyph unicode="Z" horiz-adv-x="909" d="M57 0v98l680 1178h-641v90h742v-100l-676 -1174h684v-92h-789z" />
<glyph unicode="[" horiz-adv-x="489" d="M141 -231v1597h285v-74h-190v-1448h190v-75h-285z" />
<glyph unicode="\" horiz-adv-x="663" d="M590 -246l-539 1624h94l535 -1624h-90z" />
<glyph unicode="]" horiz-adv-x="489" d="M63 -158h191v1448h-191v76h285v-1597h-285v73z" />
<glyph unicode="^" horiz-adv-x="1024" d="M68 772l376 596h136l374 -596h-116l-328 516l-328 -516h-114z" />
<glyph unicode="_" horiz-adv-x="1024" d="M0 -150h1024v-96h-1024v96z" />
<glyph unicode="`" horiz-adv-x="1024" d="M518 1147l-182 258h119l137 -258h-74z" />
<glyph unicode="a" horiz-adv-x="827" d="M72 262q0 141 80 215q47 43 221 90q162 43 192.5 72t30.5 131q0 193 -193 193q-104 0 -157 -64q-41 -49 -47 -170h-95q0 307 302 307q205 0 264 -127q25 -51 24 -202v-502q0 -80 13.5 -107.5t48.5 -27.5q10 0 30 4v-70q-45 -10 -73 -10q-51 0 -82 31.5t-31 83.5v38 q-31 -63 -63 -94q-72 -72 -207 -71q-125 0 -191.5 72.5t-66.5 207.5zM176 268q0 -100 47 -154.5t133 -54.5q117 0 189 101q51 78 51 211v231q-25 -37 -53.5 -53.5t-104.5 -36.5q-106 -31 -143 -46t-62 -38q-57 -51 -57 -160z" />
<glyph unicode="b" horiz-adv-x="878" d="M125 0v1366h100v-498q80 164 248 164q164 0 242 -127t78 -393q0 -535 -318 -535q-98 0 -155.5 43t-94.5 144v-164h-100zM270 182q66 -123 183 -123q133 0 194 144q41 98 41 301q0 227 -51 323q-61 123 -182 123q-133 0 -195 -143q-41 -94 -41 -297q0 -228 51 -328z" />
<glyph unicode="c" horiz-adv-x="800" d="M416 -25q-168 0 -249 130.5t-81 400.5q0 530 346 530q133 0 213 -84t90 -233h-102q-14 123 -63.5 180t-143.5 57q-121 0 -179.5 -109.5t-58.5 -338.5q0 -238 56.5 -346.5t179.5 -108.5q94 0 151.5 74t63.5 205h96q-8 -172 -91 -264.5t-228 -92.5z" />
<glyph unicode="d" horiz-adv-x="878" d="M406 -23q-319 0 -320 537q0 264 79 391t243 127q170 0 249 -164v498h97v-1366h-97v164q-35 -94 -77 -129q-68 -58 -174 -58zM242 182q66 -123 184 -123q131 0 192 144q41 94 41 297q0 231 -51 327q-61 123 -182 123q-133 0 -195 -143q-41 -98 -41 -301q1 -228 52 -324z " />
<glyph unicode="e" horiz-adv-x="839" d="M420 -25q-170 0 -252 129t-82 398q0 530 346 530q164 0 243 -119.5t79 -369.5v-33h-561q-2 -12 -3 -31q0 -219 56.5 -323.5t177.5 -104.5q96 0 149.5 64.5t71.5 203.5h98q-38 -344 -323 -344zM195 584h452q-2 195 -53 283.5t-164 88.5q-229 1 -235 -372z" />
<glyph unicode="f" horiz-adv-x="464" d="M168 0v928h-145v82h145q0 158 5 205t30 83q37 43 78 56.5t141 13.5q10 0 22 2v-82q-45 2 -53 2q-92 0 -110 -65q-12 -41 -13 -215h176v-82h-176v-928h-100z" />
<glyph unicode="g" horiz-adv-x="878" d="M131 -121h98q18 -162 197 -162q78 0 134 38t75 104q12 43 18 188l4 121q-80 -164 -249 -164q-164 0 -243 124t-79 382q0 522 320 522q100 0 157.5 -41t93.5 -139v158h97v-850q0 -229 -27 -314q-61 -205 -307 -204q-264 -1 -289 237zM242 205q63 -121 184 -121 q131 0 192 139q41 92 41 291q0 221 -51 317q-61 119 -182 119q-133 0 -195 -139q-41 -94 -41 -293q1 -219 52 -313z" />
<glyph unicode="h" horiz-adv-x="870" d="M125 0v1366h100v-487q86 158 267 157q176 0 231 -147q23 -57 22 -201v-688h-102v657q0 145 -18 191q-43 104 -168 104q-66 0 -122 -37.5t-85 -101.5q-25 -55 -25 -170v-643h-100z" />
<glyph unicode="i" horiz-adv-x="352" d="M123 1192v174h104v-174h-104zM123 0v1010h104v-1010h-104z" />
<glyph unicode="j" horiz-adv-x="366" d="M137 1190v176h107v-176h-107zM137 45v965h107v-965q0 -221 -17 -276q-29 -84 -121 -109q-31 -8 -133 -8h-6v82q18 -2 41 -2q104 0 123 90q6 26 6 223z" />
<glyph unicode="k" horiz-adv-x="835" d="M125 0v1366h98v-889l416 533h119l-305 -375l362 -635h-119l-313 551l-160 -195v-356h-98z" />
<glyph unicode="l" horiz-adv-x="370" d="M135 0v1366h101v-1366h-101z" />
<glyph unicode="m" horiz-adv-x="1318" d="M125 0v1010h98v-133q47 88 105.5 122.5t154.5 34.5q92 0 143.5 -36.5t73.5 -120.5q47 86 105.5 121.5t150.5 35.5q162 0 213 -114q27 -63 27 -228v-692h-102v692q0 139 -25 182q-45 76 -137 76q-63 0 -117.5 -38t-83.5 -101q-20 -47 -20 -166v-645h-101v645q0 143 -6 174 q-8 61 -52 96t-108 35q-135 0 -194 -125q-27 -53 -27 -163v-662h-98z" />
<glyph unicode="n" horiz-adv-x="868" d="M125 0v1010h94v-131q49 86 110.5 121.5t157.5 35.5q178 0 236 -145q23 -59 22 -215v-676h-102v653q0 147 -22 201q-39 98 -166 98q-133 0 -201 -121q-35 -68 -35 -178v-653h-94z" />
<glyph unicode="o" horiz-adv-x="858" d="M422 -25q-174 0 -255 128t-81 407q0 524 350 524q174 0 255 -128t81 -402.5t-85 -401.5t-265 -127zM428 51q125 0 183.5 108.5t58.5 338.5q0 242 -55.5 350t-180.5 108q-127 0 -186.5 -109.5t-59.5 -344.5q0 -233 57.5 -342t182.5 -109z" />
<glyph unicode="p" horiz-adv-x="878" d="M221 141v-489h-96v1358h96v-164q37 96 78 129q68 57 174 57q319 0 320 -536q0 -264 -79 -391.5t-243 -127.5q-170 0 -250 164zM270 182q66 -123 183 -123q133 0 194 144q41 98 41 301q0 227 -51 323q-61 123 -184 123q-131 0 -193 -143q-41 -94 -41 -297q0 -228 51 -328z " />
<glyph unicode="q" horiz-adv-x="878" d="M410 -23q-164 0 -243 127t-79 392q0 537 320 536q100 0 157.5 -43t93.5 -143v164h95v-1358h-95v489q-79 -164 -249 -164zM244 182q61 -123 182 -123q131 0 192 144q41 94 41 297q0 229 -49 327q-66 123 -184 123q-131 0 -193 -143q-41 -98 -40 -301q0 -228 51 -324z" />
<glyph unicode="r" horiz-adv-x="561" d="M117 0v1010h98v-191q43 117 111 162q66 45 155 45q20 0 35 -2v-100q-16 2 -39 2q-141 0 -215 -113q-47 -72 -47 -201v-612h-98z" />
<glyph unicode="s" horiz-adv-x="751" d="M102 115q-29 63 -28 198h96q0 -121 31 -174q51 -88 178 -88q98 0 154.5 54.5t56.5 146.5q0 98 -60 147q-37 31 -202 93q-131 47 -183.5 107t-52.5 167q0 125 78 194.5t215 69.5q279 0 279 -278v-23h-99q0 98 -20 139q-43 86 -164 86q-90 0 -141.5 -48t-51.5 -130 q0 -78 40 -121t147 -80q164 -57 225 -102q90 -68 90 -205q0 -139 -83 -216t-232 -77q-214 1 -273 140z" />
<glyph unicode="t" horiz-adv-x="475" d="M172 66q-20 39 -20 161v701h-146v82h146v295h100v-295h182v-82h-182v-688q0 -92 14 -117q27 -45 107 -45q16 0 61 4v-80q-43 -8 -92 -8q-133 0 -170 72z" />
<glyph unicode="u" horiz-adv-x="849" d="M123 174q-10 53 -10 162v674h102v-674q0 -111 18 -162q37 -115 164 -115q70 0 127.5 39t83.5 105q25 57 25 178v629h100v-1010h-92v143q-53 -90 -115.5 -129t-156.5 -39q-207 0 -246 199z" />
<glyph unicode="v" horiz-adv-x="727" d="M309 0l-280 1010h108l238 -924l217 924h106l-266 -1010h-123z" />
<glyph unicode="w" horiz-adv-x="1142" d="M256 0l-227 1010h106l184 -938l191 938h129l188 -938l183 938h104l-227 -1010h-123l-191 936l-192 -936h-125z" />
<glyph unicode="x" horiz-adv-x="702" d="M20 0l271 522l-260 488h116l205 -422l207 422h111l-258 -488l270 -522h-113l-217 453l-223 -453h-109z" />
<glyph unicode="y" horiz-adv-x="729" d="M68 -262q31 -2 65 -2q102 0 146 92q37 90 40 119l5 30l-295 1033h108l240 -922l215 922h106l-249 -949q-41 -156 -76 -249q-55 -160 -230 -160q-10 0 -75 4v82z" />
<glyph unicode="z" horiz-adv-x="714" d="M59 0v84l490 840h-465v86h571v-86l-485 -840h485v-84h-596z" />
<glyph unicode="{" horiz-adv-x="489" d="M139 49v291q0 158 -76 190v74q76 33 76 191v290q0 152 46 216.5t153 64.5h90v-76h-82q-61 0 -85.5 -44t-24.5 -152v-291q0 -96 -16.5 -147.5t-59.5 -88.5q43 -37 59.5 -88t16.5 -147v-291q0 -109 24.5 -153t85.5 -44h82v-75h-90q-106 0 -152.5 64t-46.5 216z" />
<glyph unicode="|" horiz-adv-x="1024" d="M461 -342v1708h102v-1708h-102z" />
<glyph unicode="}" horiz-adv-x="489" d="M63 -156h82q61 0 86 44t25 153v291q0 96 16.5 147t59.5 88q-43 37 -59.5 88.5t-16.5 147.5v291q0 109 -24.5 152.5t-86.5 43.5h-82v76h91q106 0 152 -64.5t46 -216.5v-290q0 -158 76 -191v-74q-76 -33 -76 -190v-291q0 -152 -46 -216t-152 -64h-91v75z" />
<glyph unicode="~" horiz-adv-x="1366" d="M258 1212l-65 41q63 119 123.5 168t144.5 49q82 0 237 -77q150 -74 207 -74q59 0 104.5 33.5t96.5 120.5l65 -39q-109 -213 -276 -213q-47 0 -95 17t-190 87q-98 49 -155 49q-107 0 -197 -162z" />
<glyph unicode="&#xa1;" horiz-adv-x="419" d="M125 958v168h115v-168h-115zM129 186l21 582h67l23 -582v-424h-111v424z" />
<glyph unicode="&#xa2;" d="M453 -10v174q-158 6 -233 135t-75 397q0 520 308 533v145h71v-145q258 -8 285 -318h-100q-20 227 -185 240v-909q82 4 132.5 77.5t58.5 200.5h98q-6 -164 -84 -259t-205 -97v-174h-71zM453 242v909q-205 -20 -205 -453q0 -229 49.5 -338.5t155.5 -117.5z" />
<glyph unicode="&#xa3;" d="M98 74q115 82 180.5 189.5t65.5 215.5q0 82 -45 172h-190v68h159q-10 27 -10 24l-33 58q-78 139 -78 256q0 150 107.5 243t277.5 93q178 0 275 -101q51 -53 74.5 -114.5t31.5 -171.5h-102q-12 141 -68 211q-74 94 -211 94q-123 0 -199.5 -68.5t-76.5 -179.5 q0 -100 82 -248q39 -72 49 -96h295v-68h-266q35 -86 35 -164q0 -131 -103 -260q-47 -59 -182 -176q145 80 223 80q49 0 135 -31q90 -33 144 -32q98 0 229 96l47 -84q-141 -106 -280 -107q-53 0 -170 41q-98 37 -162 37q-72 0 -180 -65z" />
<glyph unicode="&#xa4;" d="M86 242l-66 67l156 158q-84 115 -84 244q0 127 84 241l-160 158l68 68l158 -158q119 84 247.5 84t243.5 -82l160 156l65 -68l-157 -156q84 -119 84 -245q0 -125 -82 -242l158 -158l-66 -67l-158 157q-113 -82 -245 -82q-125 0 -248 82zM487 412q125 0 212 87t87 212 q0 121 -87 210t-207 89q-127 0 -214.5 -87t-87.5 -214q0 -121 88 -209t209 -88z" />
<glyph unicode="&#xa5;" d="M436 0v514h-262v68h248l-78 178h-197v67h168l-235 539h115l294 -709l299 709h111l-237 -539h169v-67h-200l-78 -178h250v-68h-264v-514h-103z" />
<glyph unicode="&#xa6;" horiz-adv-x="1024" d="M461 694v672h102v-672h-102zM461 313h102v-655h-102v655z" />
<glyph unicode="&#xa7;" d="M174 53h102q2 -113 58 -170q61 -61 158 -61q94 0 153.5 51t59.5 135q0 66 -42 120t-149 122q-250 158 -315 213q-94 82 -95 196q0 88 47.5 151.5t153.5 119.5q-123 86 -123 215q0 119 86 190.5t228 71.5q139 0 221 -76q37 -35 53 -76t27 -114h-103q-10 92 -53 131 q-51 57 -152 57q-90 0 -145 -49t-55 -127q0 -59 33.5 -102t130.5 -103q260 -162 325 -219q94 -84 94 -211q0 -166 -186 -268q125 -109 125 -236q0 -123 -87 -198.5t-226 -75.5q-141 0 -230 76q-47 39 -67.5 91t-26.5 146zM283 526q55 -45 211 -145q90 -57 129 -90 q154 78 153 211q0 94 -71 155q-53 47 -222 156l-49 33q-23 14 -32 19t-18 12.5t-19 13.5q-164 -90 -164 -213q0 -86 82 -152z" />
<glyph unicode="&#xa8;" horiz-adv-x="1024" d="M606 1192v178h99v-178h-99zM317 1192v178h97v-178h-97z" />
<glyph unicode="&#xa9;" horiz-adv-x="1452" d="M88 682q0 297 187.5 503t459.5 206q256 0 441.5 -209t185.5 -500q0 -293 -186.5 -500t-448.5 -207q-264 0 -451.5 207t-187.5 500zM164 682q0 -264 166 -452.5t397 -188.5t396 188.5t165 454.5q0 262 -163.5 451.5t-389.5 189.5q-240 0 -405.5 -186.5t-165.5 -456.5z M719 260q-143 0 -210 101.5t-67 318.5q0 219 70 323.5t213 104.5q115 0 180 -66q55 -55 70 -188l-80 -2q-12 102 -52 147t-120 45q-102 0 -149.5 -87t-47.5 -279q0 -182 47.5 -268t147.5 -86q170 0 180 231h82q-16 -152 -76 -221q-65 -74 -188 -74z" />
<glyph unicode="&#xaa;" horiz-adv-x="557" d="M223 537q-80 0 -124 45t-44 127q0 102 70 143q23 14 192 59q43 10 55.5 28.5t12.5 66.5q0 109 -115 108q-63 0 -90.5 -31.5t-29.5 -105.5h-74q-2 6 -2 14q-4 82 49 131t147 49q135 0 174 -77q16 -33 17 -123v-297q0 -43 6 -57.5t27 -14.5q6 0 26 4v-55q-31 -6 -53 -6 q-66 0 -78 71q-57 -79 -166 -79zM242 596q68 0 105.5 46t37.5 130v62q0 41 2 53q-37 -25 -90 -37q-100 -25 -131 -51.5t-31 -87.5q1 -115 107 -115z" />
<glyph unicode="&#xab;" horiz-adv-x="690" d="M348 457v108l225 252v-108l-178 -197l178 -201v-104zM315 207l-223 250v106l223 252v-106l-176 -199l176 -197v-106z" />
<glyph unicode="&#xac;" horiz-adv-x="1024" d="M68 451v96h886v-547h-102v451h-784z" />
<glyph unicode="&#xad;" horiz-adv-x="356" d="M0 467v92h356v-92h-356z" />
<glyph unicode="&#xae;" horiz-adv-x="1452" d="M88 682q0 297 187.5 503t459.5 206q256 0 441.5 -209t185.5 -500q0 -293 -186.5 -500t-448.5 -207q-264 0 -451.5 207t-187.5 500zM164 682q0 -264 166 -452.5t397 -188.5t396 188.5t165 454.5q0 262 -163.5 451.5t-389.5 189.5q-240 0 -405.5 -186.5t-165.5 -456.5z M496 272v820h233q109 0 162 -31q94 -57 94 -182q0 -82 -31.5 -128t-105.5 -75q82 -18 106.5 -68.5t28.5 -212.5q2 -55 7 -74.5t26 -48.5l-96 2q-18 41 -25 183q-4 119 -40 153.5t-153 34.5h-127v-373h-79zM575 707h134q195 0 194 163q0 158 -188 158h-140v-321z" />
<glyph unicode="&#xaf;" horiz-adv-x="1024" d="M293 1239v72h438v-72h-438z" />
<glyph unicode="&#xb0;" horiz-adv-x="698" d="M350 895q-104 0 -176 73.5t-72 178.5q0 100 73 173t175.5 73t174 -73t71.5 -175.5t-73 -176t-173 -73.5zM350 971q68 0 116 51t48 123t-48 122t-115.5 50t-117 -50t-49.5 -120q0 -74 48 -125t118 -51z" />
<glyph unicode="&#xb1;" d="M446 317v328h-323v76h323v328h80v-328h326v-76h-326v-328h-80zM123 98v76h729v-76h-729z" />
<glyph unicode="&#xb2;" horiz-adv-x="649" d="M76 545q2 121 55 197.5t217 199.5q74 55 101.5 101.5t27.5 109.5q0 78 -42 122t-113 44q-156 0 -162 -199h-80q4 262 244 262q111 0 173 -60t62 -169q0 -106 -72 -184q-37 -37 -170 -140q-80 -59 -110.5 -101t-48.5 -116h409v-67h-491z" />
<glyph unicode="&#xb3;" horiz-adv-x="649" d="M322 530q-113 0 -176.5 63.5t-65.5 178.5h80q10 -180 164 -180q80 0 126 49t46 135q0 156 -144 172l-90 2v62q18 -2 29 -2q178 0 178 157q0 72 -38 113t-107 41q-72 0 -111 -46t-41 -128h-78q6 236 232 235q104 0 164.5 -56t60.5 -155q0 -141 -127 -186q156 -39 156 -203 q0 -117 -69.5 -184.5t-188.5 -67.5z" />
<glyph unicode="&#xb4;" horiz-adv-x="1024" d="M432 1147l135 258h121l-184 -258h-72z" />
<glyph unicode="&#xb5;" d="M279 31v-391h-101v1370h103v-674q0 -109 18 -164q37 -113 164 -113q70 0 127 39t84 105q25 57 24 178v629h101v-1010h-92v158q-92 -182 -269 -183q-87 1 -159 56z" />
<glyph unicode="&#xb6;" d="M449 -231v872h-62q-152 0 -217 47q-115 86 -115 316q0 248 135 327q61 35 197 35h453v-1597h-97v1517h-198v-1517h-96z" />
<glyph unicode="&#xb7;" horiz-adv-x="364" d="M125 422v182h113v-182h-113z" />
<glyph unicode="&#xb8;" horiz-adv-x="1024" d="M453 -143l65 143h55l-55 -113q35 6 47 7q53 0 86 -32t33 -85q0 -59 -43 -99t-109 -40q-70 0 -135 36l15 52q57 -31 106 -31q35 0 59.5 21.5t24.5 54t-22.5 54t-55.5 21.5q-23 0 -53 -12z" />
<glyph unicode="&#xb9;" horiz-adv-x="649" d="M332 547v624h-197v54q106 4 154.5 34.5t58.5 106.5h64v-819h-80z" />
<glyph unicode="&#xba;" horiz-adv-x="575" d="M283 532q-115 0 -167.5 77t-52.5 245q0 315 228 315q113 0 166 -77.5t53 -241.5t-55 -241t-172 -77zM285 592q147 0 147 254q0 139 -33.5 201.5t-109.5 62.5q-147 0 -148 -260q1 -258 144 -258z" />
<glyph unicode="&#xbb;" horiz-adv-x="690" d="M375 209v108l176 195l-176 199v106l223 -250v-106zM117 207v108l176 197l-176 199v106l223 -250v-106z" />
<glyph unicode="&#xbc;" horiz-adv-x="1476" d="M416 0l573 1366h74l-576 -1366h-71zM332 547v624h-197v54q106 4 154.5 34.5t58.5 106.5h64v-819h-80zM891 209v74l332 536h77v-545h103v-65h-103v-209h-75v209h-334zM963 274h262v420z" />
<glyph unicode="&#xbd;" horiz-adv-x="1476" d="M416 0l573 1366h74l-576 -1366h-71zM332 547v624h-197v54q106 4 154.5 34.5t58.5 106.5h64v-819h-80zM905 0q4 121 57.5 196.5t215.5 198.5q74 55 101.5 101.5t27.5 109.5q0 78 -42 122t-114 44q-156 0 -162 -199h-80q4 262 244 263q111 0 173.5 -60.5t62.5 -169.5 q0 -106 -72 -184q-29 -29 -170 -137q-78 -59 -109.5 -102.5t-50.5 -114.5h410v-68h-492z" />
<glyph unicode="&#xbe;" horiz-adv-x="1476" d="M322 530q-113 0 -176.5 63.5t-65.5 178.5h80q10 -180 164 -180q80 0 126 49t46 135q0 156 -144 172l-90 2v62q18 -2 29 -2q178 0 178 157q0 72 -38 113t-107 41q-72 0 -111 -46t-41 -128h-78q6 236 232 235q104 0 164.5 -56t60.5 -155q0 -141 -127 -186q156 -39 156 -203 q0 -117 -69.5 -184.5t-188.5 -67.5zM416 0l573 1366h74l-576 -1366h-71zM889 209v74l332 536h77v-545h103v-65h-103v-209h-75v209h-334zM961 274h262v420z" />
<glyph unicode="&#xbf;" horiz-adv-x="870" d="M377 958v168h112v-168h-112zM72 74q0 92 29.5 161.5t103.5 145.5q129 133 156.5 192.5t25.5 194.5h96q2 -162 -28.5 -229.5t-169.5 -210.5q-111 -117 -111 -260q0 -113 63.5 -180.5t172.5 -67.5q117 0 180 84t65 239h101q2 -193 -90.5 -299t-259.5 -106q-152 0 -243 91 t-91 245z" />
<glyph unicode="&#xc0;" horiz-adv-x="1015" d="M473 1495l-188 215h131l137 -215h-80zM31 0l407 1366h150l395 -1366h-115l-114 403h-496l-117 -403h-110zM281 489h452l-223 814z" />
<glyph unicode="&#xc1;" horiz-adv-x="1015" d="M481 1495l135 215h134l-191 -215h-78zM31 0l407 1366h150l395 -1366h-115l-114 403h-496l-117 -403h-110zM281 489h452l-223 814z" />
<glyph unicode="&#xc2;" horiz-adv-x="1015" d="M264 1495l201 229h113l198 -229h-98l-160 174l-162 -174h-92zM31 0l407 1366h150l395 -1366h-115l-114 403h-496l-117 -403h-110zM281 489h452l-223 814z" />
<glyph unicode="&#xc3;" horiz-adv-x="1015" d="M274 1518q39 176 152 176q33 0 55.5 -9.5t98.5 -54.5q39 -23 69 -22q63 0 82 94h64q-37 -174 -148 -174q-31 0 -51.5 8t-95.5 51q-49 27 -76 27q-61 0 -88 -96h-62zM31 0l407 1366h150l395 -1366h-115l-114 403h-496l-117 -403h-110zM281 489h452l-223 814z" />
<glyph unicode="&#xc4;" horiz-adv-x="1015" d="M625 1518v182h104v-182h-104zM299 1518v182h102v-182h-102zM31 0l407 1366h150l395 -1366h-115l-114 403h-496l-117 -403h-110zM281 489h452l-223 814z" />
<glyph unicode="&#xc5;" horiz-adv-x="1015" d="M512 1450q-74 0 -126 52t-52 128q0 72 53 125t125 53q76 0 128 -53t52 -129q0 -72 -53 -124t-127 -52zM512 1518q45 0 78 32.5t33 77.5q0 47 -33 80t-78 33t-78 -33t-33 -78q0 -47 33 -79.5t78 -32.5zM31 0l407 1366h150l395 -1366h-115l-114 403h-496l-117 -403h-110z M281 489h452l-223 814z" />
<glyph unicode="&#xc6;" horiz-adv-x="1435" d="M18 0l557 1366h750v-90h-549v-516h514v-90h-514v-578h567v-92h-669v406h-381l-164 -406h-111zM322 489h352v793h-35z" />
<glyph unicode="&#xc7;" horiz-adv-x="1003" d="M449 -152l59 127q-213 14 -309.5 179t-96.5 520q0 336 88 510q106 205 351 205q176 0 276 -107q51 -51 73.5 -115.5t33.5 -183.5l-105 -2q-18 164 -78 236q-74 86 -202 86q-170 0 -248 -152t-78 -481q0 -315 78 -463t246 -148q131 0 208.5 103.5t85.5 290.5h107 q-35 -465 -375 -478l-45 -94q31 8 49 8q57 0 91 -33.5t34 -88.5q0 -66 -45 -108t-114.5 -42t-141.5 39l17 55q57 -35 110 -35q39 0 63.5 24t24.5 58.5t-23.5 57t-60.5 22.5q-23 0 -53 -12z" />
<glyph unicode="&#xc8;" horiz-adv-x="921" d="M475 1495l-188 215h131l137 -215h-80zM143 0v1366h666v-92h-559v-516h524v-90h-524v-576h579v-92h-686z" />
<glyph unicode="&#xc9;" horiz-adv-x="921" d="M457 1495l135 215h133l-190 -215h-78zM143 0v1366h666v-92h-559v-516h524v-90h-524v-576h579v-92h-686z" />
<glyph unicode="&#xca;" horiz-adv-x="921" d="M246 1495l200 229h113l199 -229h-99l-159 174l-162 -174h-92zM143 0v1366h666v-92h-559v-516h524v-90h-524v-576h579v-92h-686z" />
<glyph unicode="&#xcb;" horiz-adv-x="921" d="M612 1518v182h105v-182h-105zM287 1518v182h102v-182h-102zM143 0v1366h666v-92h-559v-516h524v-90h-524v-576h579v-92h-686z" />
<glyph unicode="&#xcc;" horiz-adv-x="421" d="M178 1495l-188 215h131l137 -215h-80zM160 0v1366h106v-1366h-106z" />
<glyph unicode="&#xcd;" horiz-adv-x="421" d="M180 1495l135 215h134l-191 -215h-78zM158 0v1366h106v-1366h-106z" />
<glyph unicode="&#xce;" horiz-adv-x="421" d="M-39 1495l201 229h112l199 -229h-98l-160 174l-162 -174h-92zM156 0v1366h106v-1366h-106z" />
<glyph unicode="&#xcf;" horiz-adv-x="421" d="M270 1518v182h105v-182h-105zM59 1518v182h103v-182h-103zM158 0v1366h106v-1366h-106z" />
<glyph unicode="&#xd0;" horiz-adv-x="1060" d="M143 0v670h-108v82h108v614h263q147 0 230 -19.5t144 -70.5q180 -147 181 -555q0 -420 -150 -594q-61 -70 -142 -98.5t-212 -28.5h-314zM250 86h182q211 0 293 98q125 145 125 527q0 362 -137 491q-86 80 -301 80h-162v-530h233v-82h-233v-584z" />
<glyph unicode="&#xd1;" horiz-adv-x="1062" d="M307 1518q39 176 152 176q33 0 55.5 -9.5t97.5 -54.5q39 -23 70 -22q63 0 82 94h63q-37 -174 -147 -174q-31 0 -51.5 8t-96.5 51q-49 27 -75 27q-61 0 -88 -96h-62zM143 0v1366h136l540 -1198v1198h101v-1366h-138l-536 1214v-1214h-103z" />
<glyph unicode="&#xd2;" horiz-adv-x="1077" d="M506 1495l-189 215h132l137 -215h-80zM530 -25q-219 0 -323.5 175.5t-104.5 541.5q0 698 441 699q221 0 326.5 -169t105.5 -522q0 -375 -108 -550t-337 -175zM530 59q174 0 254 149.5t80 473.5q0 326 -77.5 474.5t-247.5 148.5t-249 -147.5t-79 -465.5 q0 -330 75.5 -481.5t243.5 -151.5z" />
<glyph unicode="&#xd3;" horiz-adv-x="1077" d="M508 1495l135 215h133l-190 -215h-78zM530 -25q-219 0 -323.5 175.5t-104.5 541.5q0 698 441 699q221 0 326.5 -169t105.5 -522q0 -375 -108 -550t-337 -175zM530 59q174 0 254 149.5t80 473.5q0 326 -77.5 474.5t-247.5 148.5t-249 -147.5t-79 -465.5 q0 -330 75.5 -481.5t243.5 -151.5z" />
<glyph unicode="&#xd4;" horiz-adv-x="1077" d="M291 1495l201 229h112l199 -229h-98l-160 174l-162 -174h-92zM530 -25q-219 0 -323.5 175.5t-104.5 541.5q0 698 441 699q221 0 326.5 -169t105.5 -522q0 -375 -108 -550t-337 -175zM530 59q174 0 254 149.5t80 473.5q0 326 -77.5 474.5t-247.5 148.5t-249 -147.5 t-79 -465.5q0 -330 75.5 -481.5t243.5 -151.5z" />
<glyph unicode="&#xd5;" horiz-adv-x="1077" d="M307 1518q39 176 152 176q33 0 55.5 -9.5t97.5 -54.5q39 -23 70 -22q63 0 82 94h63q-37 -174 -147 -174q-31 0 -51.5 8t-96.5 51q-49 27 -75 27q-61 0 -88 -96h-62zM530 -25q-219 0 -323.5 175.5t-104.5 541.5q0 698 441 699q221 0 326.5 -169t105.5 -522 q0 -375 -108 -550t-337 -175zM530 59q174 0 254 149.5t80 473.5q0 326 -77.5 474.5t-247.5 148.5t-249 -147.5t-79 -465.5q0 -330 75.5 -481.5t243.5 -151.5z" />
<glyph unicode="&#xd6;" horiz-adv-x="1089" d="M662 1518v182h104v-182h-104zM336 1518v182h102v-182h-102zM537 -25q-219 0 -323.5 175.5t-104.5 541.5q0 698 440 699q221 0 326.5 -169t105.5 -522q0 -375 -107.5 -550t-336.5 -175zM537 59q174 0 253.5 149.5t79.5 473.5q0 326 -77.5 474.5t-247.5 148.5t-249 -147.5 t-79 -465.5q0 -330 76 -481.5t244 -151.5z" />
<glyph unicode="&#xd7;" d="M229 369l-53 55l258 256l-262 262l57 55l260 -260l261 258l53 -53l-258 -258l260 -262l-57 -57l-261 262z" />
<glyph unicode="&#xd8;" horiz-adv-x="1087" d="M80 29l115 182q-76 178 -76 489q0 352 108.5 521.5t333.5 169.5q176 0 289 -121l94 147l68 -41l-111 -178q90 -186 90 -496q0 -383 -105.5 -555t-340.5 -172q-106 0 -175 35t-132 119l-88 -145zM264 324l529 854q-47 70 -99.5 98.5t-130.5 28.5q-176 0 -257 -143.5 t-81 -456.5q0 -219 39 -381zM297 223q88 -164 246 -164q178 0 259 148.5t81 474.5q0 252 -52 403z" />
<glyph unicode="&#xd9;" horiz-adv-x="1034" d="M498 1495l-189 215h131l138 -215h-80zM168 170q-35 78 -35 250v946h107v-950q0 -154 32 -219q68 -137 242 -138q201 0 260 168q23 61 23 203v936h106v-934q0 -180 -45 -268q-94 -188 -352 -189q-248 0 -338 195z" />
<glyph unicode="&#xda;" horiz-adv-x="1034" d="M485 1495l136 215h133l-191 -215h-78zM168 170q-35 78 -35 250v946h107v-950q0 -154 32 -219q68 -137 242 -138q201 0 260 168q23 61 23 203v936h106v-934q0 -180 -45 -268q-94 -188 -352 -189q-248 0 -338 195z" />
<glyph unicode="&#xdb;" horiz-adv-x="1034" d="M276 1495l201 229h113l198 -229h-98l-160 174l-161 -174h-93zM168 170q-35 78 -35 250v946h107v-950q0 -154 32 -219q68 -137 242 -138q201 0 260 168q23 61 23 203v936h106v-934q0 -180 -45 -268q-94 -188 -352 -189q-248 0 -338 195z" />
<glyph unicode="&#xdc;" horiz-adv-x="1034" d="M649 1518v182h105v-182h-105zM324 1518v182h102v-182h-102zM168 170q-35 78 -35 250v946h107v-950q0 -154 32 -219q68 -137 242 -138q201 0 260 168q23 61 23 203v936h106v-934q0 -180 -45 -268q-94 -188 -352 -189q-248 0 -338 195z" />
<glyph unicode="&#xdd;" horiz-adv-x="866" d="M408 1495l135 215h133l-191 -215h-77zM379 0v551l-369 815h121l303 -715l309 715h113l-371 -815v-551h-106z" />
<glyph unicode="&#xde;" horiz-adv-x="942" d="M143 0v1366h105v-192h227q168 0 250 -54q154 -98 154 -327q0 -119 -48.5 -209t-136.5 -133q-84 -41 -264 -41h-182v-410h-105zM248 494h190q152 0 217 45q115 78 115 254q0 184 -125 260q-61 37 -203 37h-194v-596z" />
<glyph unicode="&#xdf;" horiz-adv-x="897" d="M125 0v993q0 180 57 258q86 115 256 115q143 0 223 -80t80 -223q0 -119 -53 -186.5t-166 -94.5q82 -12 127 -31.5t80 -58.5q82 -92 82 -272q0 -246 -143 -367q-82 -66 -226 -65q-10 0 -63 4v82q53 -4 74 -4q115 0 184.5 96t69.5 254q0 322 -285 321q-18 0 -35 -2v80 q111 0 164 37q90 61 90 203q0 109 -55.5 172t-149.5 63q-137 0 -188 -116q-23 -55 -23 -172v-1006h-100z" />
<glyph unicode="&#xe0;" horiz-adv-x="827" d="M399 1147l-182 258h121l135 -258h-74zM72 262q0 141 80 215q47 43 221 90q162 43 192.5 72t30.5 131q0 193 -193 193q-104 0 -157 -64q-41 -49 -47 -170h-95q-2 307 302 307q205 0 264 -127q25 -51 24 -202v-502q0 -80 13.5 -107.5t48.5 -27.5q10 0 30 4v-70 q-45 -10 -73 -10q-51 0 -82 31.5t-31 83.5v38q-31 -63 -63 -94q-72 -72 -207 -71q-125 0 -191.5 72.5t-66.5 207.5zM176 268q0 -100 47 -154.5t133 -54.5q117 0 189 101q51 78 51 211v231q-25 -37 -53.5 -53.5t-104.5 -36.5q-106 -31 -143 -46t-62 -38q-57 -51 -57 -160z " />
<glyph unicode="&#xe1;" horiz-adv-x="827" d="M381 1147l135 258h121l-182 -258h-74zM72 262q0 141 80 215q47 43 221 90q162 43 192.5 72t30.5 131q0 193 -193 193q-104 0 -157 -64q-41 -49 -47 -170h-95q-2 307 302 307q205 0 264 -127q25 -51 24 -202v-502q0 -80 13.5 -107.5t48.5 -27.5q10 0 30 4v-70 q-45 -10 -73 -10q-51 0 -82 31.5t-31 83.5v38q-31 -63 -63 -94q-72 -72 -207 -71q-125 0 -191.5 72.5t-66.5 207.5zM176 268q0 -100 47 -154.5t133 -54.5q117 0 189 101q51 78 51 211v231q-25 -37 -53.5 -53.5t-104.5 -36.5q-106 -31 -143 -46t-62 -38q-57 -51 -57 -160z " />
<glyph unicode="&#xe2;" horiz-adv-x="827" d="M197 1147l180 256h106l174 -256h-92l-139 201l-141 -201h-88zM72 262q0 141 80 215q47 43 221 90q162 43 192.5 72t30.5 131q0 193 -193 193q-104 0 -157 -64q-41 -49 -47 -170h-95q-2 307 302 307q205 0 264 -127q25 -51 24 -202v-502q0 -80 13.5 -107.5t48.5 -27.5 q10 0 30 4v-70q-45 -10 -73 -10q-51 0 -82 31.5t-31 83.5v38q-31 -63 -63 -94q-72 -72 -207 -71q-125 0 -191.5 72.5t-66.5 207.5zM176 268q0 -100 47 -154.5t133 -54.5q117 0 189 101q51 78 51 211v231q-25 -37 -53.5 -53.5t-104.5 -36.5q-106 -31 -143 -46t-62 -38 q-57 -51 -57 -160z" />
<glyph unicode="&#xe3;" horiz-adv-x="827" d="M199 1188q37 178 145 178q33 0 54.5 -10t93.5 -60q39 -25 65 -24q59 0 78 98h61q-33 -172 -139 -172q-29 0 -49.5 9.5t-91.5 54.5q-45 29 -74 28q-57 0 -82 -102h-61zM72 262q0 141 80 215q47 43 221 90q162 43 192.5 72t30.5 131q0 193 -193 193q-104 0 -157 -64 q-41 -49 -47 -170h-95q-2 307 302 307q205 0 264 -127q25 -51 24 -202v-502q0 -80 13.5 -107.5t48.5 -27.5q10 0 30 4v-70q-45 -10 -73 -10q-51 0 -82 31.5t-31 83.5v38q-31 -63 -63 -94q-72 -72 -207 -71q-125 0 -191.5 72.5t-66.5 207.5zM176 268q0 -100 47 -154.5 t133 -54.5q117 0 189 101q51 78 51 211v231q-25 -37 -53.5 -53.5t-104.5 -36.5q-106 -31 -143 -46t-62 -38q-57 -51 -57 -160z" />
<glyph unicode="&#xe4;" horiz-adv-x="827" d="M520 1192v178h98v-178h-98zM231 1192v178h97v-178h-97zM70 260q0 143 80 217q47 43 221 90q162 43 192.5 72t30.5 131q0 193 -193 193q-104 0 -157 -64q-39 -47 -45 -170h-97q0 307 301 307q207 0 265 -127q25 -51 24 -202v-502q0 -80 13.5 -107.5t50.5 -27.5q6 0 30 4 v-70q-47 -10 -75 -10q-98 0 -111 115l-4 38q-37 -70 -64 -94q-72 -72 -206 -71q-125 0 -190.5 71.5t-65.5 206.5zM174 268q0 -100 47 -154.5t133 -54.5q121 0 189 101q51 74 51 211l2 231q-25 -37 -53.5 -53.5t-104.5 -36.5q-162 -47 -205 -84q-59 -56 -59 -160z" />
<glyph unicode="&#xe5;" horiz-adv-x="827" d="M420 1128q-72 0 -123 51.5t-51 123.5q0 70 51 122t123 52t123 -51.5t51 -125.5q0 -70 -51 -121t-123 -51zM420 1192q45 0 77.5 31.5t32.5 76.5q0 47 -31.5 80t-78.5 33q-45 0 -78 -32.5t-33 -78t33 -78t78 -32.5zM72 262q0 141 80 215q47 43 221 90q162 43 192.5 72 t30.5 131q0 193 -193 193q-104 0 -157 -64q-41 -49 -47 -170h-95q-2 307 302 307q205 0 264 -127q25 -51 24 -202v-502q0 -80 13.5 -107.5t48.5 -27.5q10 0 30 4v-70q-45 -10 -73 -10q-51 0 -82 31.5t-31 83.5v38q-31 -63 -63 -94q-72 -72 -207 -71q-125 0 -191.5 72.5 t-66.5 207.5zM176 268q0 -100 47 -154.5t133 -54.5q117 0 189 101q51 78 51 211v231q-25 -37 -53.5 -53.5t-104.5 -36.5q-106 -31 -143 -46t-62 -38q-57 -51 -57 -160z" />
<glyph unicode="&#xe6;" horiz-adv-x="1275" d="M72 256q0 162 98 229q39 27 77 40.5t212 56.5q72 18 92 49t20 125q0 203 -180 202q-113 0 -164 -86q-27 -41 -28 -145h-97q2 127 41 193q72 115 248 114q111 0 171.5 -44t80.5 -140q63 182 246 182q215 0 274 -239q27 -98 27 -281h-522v-27v-26q0 -408 211 -408 q109 0 165 113q29 57 39 166h99q-16 -152 -70 -232q-84 -121 -238 -121q-98 0 -165.5 55.5t-90.5 155.5q-43 -113 -108.5 -160.5t-173.5 -47.5q-127 0 -195.5 71.5t-68.5 204.5zM670 584h417l-2 24q-14 174 -34 223q-49 125 -172 125q-70 0 -120 -49t-73 -137 q-16 -75 -16 -186zM174 264q0 -100 45 -154.5t129 -54.5q123 0 187 113q37 68 36 182v234q-23 -31 -48 -44.5t-95 -31.5q-156 -41 -199 -80q-55 -51 -55 -164z" />
<glyph unicode="&#xe7;" horiz-adv-x="800" d="M340 -143l55 120q-162 14 -235.5 139.5t-73.5 389.5q0 530 346 530q135 0 214 -83t89 -234h-102q-14 123 -63.5 180t-143.5 57q-121 0 -179.5 -109.5t-58.5 -338.5q0 -238 56.5 -346.5t179.5 -108.5q94 0 152.5 75t62.5 204h96q-6 -160 -81.5 -254t-202.5 -101l-45 -90 q31 8 47 9q53 0 85.5 -32t32.5 -85q0 -61 -43 -101t-108 -40q-68 0 -135 36l16 52q55 -31 105 -31q35 0 59 22.5t24 55t-22.5 54t-54.5 21.5q-25 0 -54 -14z" />
<glyph unicode="&#xe8;" horiz-adv-x="839" d="M406 1147l-183 258h119l137 -258h-73zM420 -25q-170 0 -252 129t-82 398q0 530 346 530q164 0 243 -119.5t79 -369.5v-33h-561q-2 -12 -3 -31q0 -219 56.5 -323.5t177.5 -104.5q96 0 149.5 64.5t71.5 203.5h98q-38 -344 -323 -344zM195 584h452q-2 195 -53 283.5 t-164 88.5q-229 1 -235 -372z" />
<glyph unicode="&#xe9;" horiz-adv-x="839" d="M401 1147l136 258h120l-184 -258h-72zM420 -25q-170 0 -252 129t-82 398q0 530 346 530q164 0 243 -119.5t79 -369.5v-33h-561q-2 -12 -3 -31q0 -219 56.5 -323.5t177.5 -104.5q96 0 149.5 64.5t71.5 203.5h98q-38 -344 -323 -344zM195 584h452q-2 195 -53 283.5 t-164 88.5q-229 1 -235 -372z" />
<glyph unicode="&#xea;" horiz-adv-x="839" d="M217 1147l178 256h107l174 -256h-90l-140 201l-143 -201h-86zM420 -25q-170 0 -252 129t-82 398q0 530 346 530q164 0 243 -119.5t79 -369.5v-33h-561q-2 -12 -3 -31q0 -219 56.5 -323.5t177.5 -104.5q96 0 149.5 64.5t71.5 203.5h98q-38 -344 -323 -344zM195 584h452 q-2 195 -53 283.5t-164 88.5q-229 1 -235 -372z" />
<glyph unicode="&#xeb;" horiz-adv-x="839" d="M532 1192v178h99v-178h-99zM244 1192v178h96v-178h-96zM420 -25q-170 0 -252 129t-82 398q0 530 346 530q164 0 243 -119.5t79 -369.5v-33h-561q-2 -12 -3 -31q0 -219 56.5 -323.5t177.5 -104.5q96 0 149.5 64.5t71.5 203.5h98q-38 -344 -323 -344zM195 584h452 q-2 195 -53 283.5t-164 88.5q-229 1 -235 -372z" />
<glyph unicode="&#xec;" horiz-adv-x="352" d="M150 1147l-183 258h125l131 -258h-73zM125 0v1010h102v-1010h-102z" />
<glyph unicode="&#xed;" horiz-adv-x="352" d="M143 1147l136 258h120l-184 -258h-72zM125 0v1010h102v-1010h-102z" />
<glyph unicode="&#xee;" horiz-adv-x="352" d="M39 1147h-86l178 256h102l179 -256h-90l-140 201zM125 0v1010h102v-1010h-102z" />
<glyph unicode="&#xef;" horiz-adv-x="352" d="M238 1192v178h98v-178h-98zM31 1192v178h96v-178h-96zM121 0v1010h108v-1010h-108z" />
<glyph unicode="&#xf0;" horiz-adv-x="858" d="M422 -25q-174 0 -255 128t-81 401q0 268 86 399t264 131q55 0 117 -18l-66 131q-10 16 -23 44t-20 38l-127 -86l-43 63l134 88l-66 105l68 43l34 -49l33 -50l131 89l43 -64l-133 -88q135 -213 194.5 -394t59.5 -378q0 -276 -84 -404.5t-266 -128.5zM428 51 q125 0 183.5 108.5t58.5 338.5q0 242 -55.5 350t-180.5 108q-127 0 -186.5 -109.5t-59.5 -344.5q0 -233 57.5 -342t182.5 -109z" />
<glyph unicode="&#xf1;" horiz-adv-x="868" d="M217 1188q37 174 145 174q33 0 55.5 -9.5t94.5 -56.5q39 -25 66 -24q57 0 75 98h64q-33 -172 -139 -172q-31 0 -51.5 9.5t-92.5 52.5q-45 29 -74 28q-55 0 -81 -100h-62zM125 0v1010h94v-131q49 86 110.5 121.5t157.5 35.5q178 0 236 -145q23 -59 22 -215v-676h-102v653 q0 147 -22 201q-39 98 -166 98q-133 0 -201 -121q-35 -68 -35 -178v-653h-94z" />
<glyph unicode="&#xf2;" horiz-adv-x="858" d="M410 1147l-183 258h119l137 -258h-73zM422 -25q-174 0 -255 128t-81 407q0 524 350 524q174 0 255 -128t81 -402.5t-85 -401.5t-265 -127zM428 51q125 0 183.5 108.5t58.5 338.5q0 242 -55.5 350t-180.5 108q-127 0 -186.5 -109.5t-59.5 -344.5q0 -233 57.5 -342 t182.5 -109z" />
<glyph unicode="&#xf3;" horiz-adv-x="858" d="M397 1147l135 258h121l-184 -258h-72zM422 -25q-174 0 -255 128t-81 407q0 524 350 524q174 0 255 -128t81 -402.5t-85 -401.5t-265 -127zM428 51q125 0 183.5 108.5t58.5 338.5q0 242 -55.5 350t-180.5 108q-127 0 -186.5 -109.5t-59.5 -344.5q0 -233 57.5 -342 t182.5 -109z" />
<glyph unicode="&#xf4;" horiz-adv-x="858" d="M213 1147l178 256h107l174 -256h-90l-140 201l-143 -201h-86zM422 -25q-174 0 -255 128t-81 407q0 524 350 524q174 0 255 -128t81 -402.5t-85 -401.5t-265 -127zM428 51q125 0 183.5 108.5t58.5 338.5q0 242 -55.5 350t-180.5 108q-127 0 -186.5 -109.5t-59.5 -344.5 q0 -233 57.5 -342t182.5 -109z" />
<glyph unicode="&#xf5;" horiz-adv-x="858" d="M221 1188q37 174 146 174q33 0 55 -9.5t94 -56.5q39 -25 66 -24q57 0 75 98h64q-33 -172 -139 -172q-31 0 -51.5 9.5t-92.5 52.5q-45 29 -73 28q-55 0 -82 -100h-62zM422 -25q-174 0 -255 128t-81 407q0 524 350 524q174 0 255 -128t81 -402.5t-85 -401.5t-265 -127z M428 51q125 0 183.5 108.5t58.5 338.5q0 242 -55.5 350t-180.5 108q-127 0 -186.5 -109.5t-59.5 -344.5q0 -233 57.5 -342t182.5 -109z" />
<glyph unicode="&#xf6;" horiz-adv-x="858" d="M539 1192v178h98v-178h-98zM250 1192v178h96v-178h-96zM422 -25q-174 0 -255 128t-81 407q0 524 350 524q174 0 255 -128t81 -402.5t-85 -401.5t-265 -127zM428 51q125 0 183.5 108.5t58.5 338.5q0 242 -55.5 350t-180.5 108q-127 0 -186.5 -109.5t-59.5 -344.5 q0 -233 57.5 -342t182.5 -109z" />
<glyph unicode="&#xf7;" d="M487.5 889q-32.5 0 -58.5 24.5t-26 59.5t26 59.5t60 24.5q33 0 57.5 -25.5t24.5 -58.5q0 -35 -25.5 -59.5t-58 -24.5zM123 645v76h729v-76h-729zM403 391q0 35 26 59.5t60 24.5q33 0 57.5 -24.5t24.5 -59.5t-25.5 -59.5t-58.5 -24.5q-35 0 -59.5 24.5t-24.5 59.5z" />
<glyph unicode="&#xf8;" horiz-adv-x="884" d="M63 25l91 135q-51 129 -52 362q0 512 349 512q76 0 123 -19.5t102 -70.5l76 115l63 -39l-92 -139q66 -139 65 -373q0 -274 -83.5 -402.5t-266.5 -128.5q-154 0 -243 111l-68 -104zM223 266l398 596q-37 51 -75 71.5t-97 20.5q-127 0 -185.5 -108.5t-58.5 -347.5 q0 -132 18 -232zM252 176q70 -121 188 -121q127 0 186.5 109.5t59.5 345.5q0 150 -31 270z" />
<glyph unicode="&#xf9;" horiz-adv-x="849" d="M412 1147l-183 258h119l137 -258h-73zM123 174q-10 53 -10 162v674h102v-674q0 -111 18 -162q37 -115 164 -115q70 0 127.5 39t83.5 105q25 57 25 178v629h100v-1010h-92v143q-53 -90 -115.5 -129t-156.5 -39q-207 0 -246 199z" />
<glyph unicode="&#xfa;" horiz-adv-x="849" d="M399 1147l136 258h120l-184 -258h-72zM123 174q-10 53 -10 162v674h102v-674q0 -111 18 -162q37 -115 164 -115q70 0 127.5 39t83.5 105q25 57 25 178v629h100v-1010h-92v143q-53 -90 -115.5 -129t-156.5 -39q-207 0 -246 199z" />
<glyph unicode="&#xfb;" horiz-adv-x="849" d="M209 1147l178 256h107l174 -256h-90l-140 201l-143 -201h-86zM123 174q-10 53 -10 162v674h102v-674q0 -111 18 -162q37 -115 164 -115q70 0 127.5 39t83.5 105q25 57 25 178v629h100v-1010h-92v143q-53 -90 -115.5 -129t-156.5 -39q-207 0 -246 199z" />
<glyph unicode="&#xfc;" horiz-adv-x="868" d="M555 1192v178h98v-178h-98zM266 1192v178h96v-178h-96zM141 174q-10 53 -10 162v674h102v-674q0 -111 19 -162q37 -115 164 -115q70 0 127 39t84 105q25 57 24 178v629h101v-1010h-93v143q-53 -90 -115.5 -129t-156.5 -39q-207 0 -246 199z" />
<glyph unicode="&#xfd;" horiz-adv-x="729" d="M346 1147l135 258h121l-184 -258h-72zM68 -262q31 -2 65 -2q102 0 146 92q37 90 40 119l5 30l-295 1033h108l240 -922l215 922h106l-249 -949q-41 -156 -76 -249q-55 -160 -230 -160q-10 0 -75 4v82z" />
<glyph unicode="&#xfe;" horiz-adv-x="878" d="M225 141v-489h-100v1714h100v-498q80 164 248 164q178 0 260 -160q59 -113 60 -368q0 -272 -74 -391q-84 -135 -246 -136q-168 0 -248 164zM270 182q66 -123 183 -123q133 0 194 144q41 98 41 301q0 227 -51 323q-61 123 -182 123q-133 0 -195 -143q-41 -94 -41 -297 q0 -228 51 -328z" />
<glyph unicode="&#xff;" horiz-adv-x="729" d="M492 1192v178h98v-178h-98zM203 1192v178h96v-178h-96zM68 -262q31 -2 65 -2q102 0 146 92q37 90 40 119l5 30l-295 1033h108l240 -922l215 922h106l-249 -949q-41 -156 -76 -249q-55 -160 -230 -160q-10 0 -75 4v82z" />
<glyph unicode="&#x152;" horiz-adv-x="1564" d="M543 -27q-229 0 -335 172t-106 545q0 702 439 703q197 0 274 -131v104h635v-92h-535v-516h498v-90h-498v-576h555v-92h-655v113q-82 -140 -272 -140zM545 57q217 0 254 213q14 78 14 285v305q0 207 -20 281q-49 168 -244 168q-174 0 -256 -149.5t-82 -467.5 q0 -334 79 -484.5t255 -150.5z" />
<glyph unicode="&#x153;" horiz-adv-x="1366" d="M418 -25q-332 0 -332 527q0 532 344 532q223 0 275 -241q57 242 270 241q106 0 180 -64.5t100 -178.5q25 -100 25 -281h-528v-29q0 -430 213 -430q115 0 172 117q27 55 37 162h96q-35 -354 -305 -355q-207 0 -260 244q-35 -129 -102.5 -186.5t-184.5 -57.5zM754 582h422 v20q0 358 -205 359q-213 0 -217 -379zM242 172q63 -119 184 -119q119 0 174 110.5t55 350.5q0 233 -45 324q-59 119 -180 118q-242 0 -242 -450q1 -236 54 -334z" />
<glyph unicode="&#x178;" horiz-adv-x="866" d="M557 1518v182h105v-182h-105zM231 1518v182h103v-182h-103zM379 0v551l-369 815h121l303 -715l309 715h113l-371 -815v-551h-106z" />
<glyph unicode="&#x2c6;" horiz-adv-x="1024" d="M283 1147l178 256h106l174 -256h-90l-139 201l-143 -201h-86z" />
<glyph unicode="&#x2dc;" horiz-adv-x="1024" d="M262 1188q37 174 146 174q33 0 55 -9.5t94 -56.5q39 -25 66 -24q57 0 75 98h64q-33 -172 -139 -172q-31 0 -51.5 9.5t-92.5 52.5q-45 29 -73 28q-55 0 -82 -100h-62z" />
<glyph unicode="&#x2000;" horiz-adv-x="904" />
<glyph unicode="&#x2001;" horiz-adv-x="1808" />
<glyph unicode="&#x2002;" horiz-adv-x="904" />
<glyph unicode="&#x2003;" horiz-adv-x="1808" />
<glyph unicode="&#x2004;" horiz-adv-x="602" />
<glyph unicode="&#x2005;" horiz-adv-x="452" />
<glyph unicode="&#x2006;" horiz-adv-x="301" />
<glyph unicode="&#x2007;" horiz-adv-x="301" />
<glyph unicode="&#x2008;" horiz-adv-x="226" />
<glyph unicode="&#x2009;" horiz-adv-x="361" />
<glyph unicode="&#x200a;" horiz-adv-x="100" />
<glyph unicode="&#x2010;" horiz-adv-x="356" d="M0 467v92h356v-92h-356z" />
<glyph unicode="&#x2011;" horiz-adv-x="356" d="M0 467v92h356v-92h-356z" />
<glyph unicode="&#x2012;" horiz-adv-x="356" d="M0 467v92h356v-92h-356z" />
<glyph unicode="&#x2013;" d="M154 467v92h669v-92h-669z" />
<glyph unicode="&#x2014;" horiz-adv-x="1071" d="M0 467v92h1071v-92h-1071z" />
<glyph unicode="&#x2018;" horiz-adv-x="362" d="M123 946v146q0 137 26.5 197.5t104.5 101.5v-60q-43 -33 -57.5 -73.5t-12.5 -135.5h56v-176h-117z" />
<glyph unicode="&#x2019;" horiz-adv-x="360" d="M109 920l2 65q41 31 54 70t15 135h-57v176h115v-143q0 -137 -26.5 -198.5t-102.5 -104.5z" />
<glyph unicode="&#x201a;" horiz-adv-x="360" d="M125 0v172h115v-162q0 -90 -15 -143q-14 -51 -37.5 -80t-78.5 -59l2 65q43 33 57 73t14 134h-57z" />
<glyph unicode="&#x201c;" horiz-adv-x="618" d="M381 946v164q0 121 27.5 182.5t103.5 100.5v-64q-45 -29 -58.5 -69.5t-15.5 -141.5h58v-172h-115zM123 946v164q0 96 14 145q14 51 38 80t79 58v-66q-45 -31 -58.5 -70.5t-13.5 -136.5h56v-174h-115z" />
<glyph unicode="&#x201d;" horiz-adv-x="622" d="M367 920v65q43 31 58 73t13 134h-55v174h115v-164q0 -86 -17 -147q-14 -49 -37.5 -76.5t-76.5 -58.5zM109 922v63q41 25 57 70t14 137h-55v174h115v-164q0 -119 -28.5 -179t-102.5 -101z" />
<glyph unicode="&#x201e;" horiz-adv-x="618" d="M381 0v172h115v-162q0 -90 -15 -143q-14 -51 -37.5 -80t-78.5 -59l2 65q43 33 57 73t14 134h-57zM125 0v172h115v-162q0 -121 -28 -181t-103 -101l2 63q41 29 56 73t13 136h-55z" />
<glyph unicode="&#x2022;" horiz-adv-x="1366" d="M686 410q-117 0 -201 82.5t-84 199.5q0 119 84 202t205 83q113 0 196 -84t83 -199q0 -119 -83 -201.5t-200 -82.5z" />
<glyph unicode="&#x2026;" horiz-adv-x="1093" d="M854 0v182h113v-182h-113zM489 0v182h113v-182h-113zM125 0v182h113v-182h-113z" />
<glyph unicode="&#x202f;" horiz-adv-x="361" />
<glyph unicode="&#x2039;" horiz-adv-x="432" d="M315 207l-223 250v106l223 254v-108l-176 -199l176 -197v-106z" />
<glyph unicode="&#x203a;" horiz-adv-x="432" d="M117 207v108l174 197l-174 197v108l223 -250v-106z" />
<glyph unicode="&#x205f;" horiz-adv-x="452" />
<glyph unicode="&#x20ac;" horiz-adv-x="1185" d="M102 578l23 65h121v6v25v35h-144l23 65h123q10 221 57 346q100 268 379 269q176 0 277 -107q49 -53 72.5 -116.5t35.5 -182.5l-106 -2q-18 164 -78 236q-70 86 -203 86q-223 0 -293 -273q-18 -72 -29 -256h535l-23 -65h-514v-7l-2 -26l2 -27v-6h494l-23 -65h-471l2 -7 v-18q0 -492 320 -492q133 0 210 102.5t85 289.5h106q-14 -139 -38.5 -215t-77.5 -140q-100 -123 -287 -123q-209 0 -313.5 146.5t-116.5 456.5h-146z" />
<glyph unicode="&#x2122;" horiz-adv-x="1343" d="M608 588v778h109l198 -668l193 668h113v-778h-72v682l-201 -682h-69l-199 682v-682h-72zM236 588v712h-209v66h491v-66h-207v-712h-75z" />
<glyph unicode="&#xe000;" horiz-adv-x="1010" d="M0 1010h1010v-1010h-1010v1010z" />
<glyph unicode="&#xfb01;" horiz-adv-x="815" d="M168 0v928h-145v82h145q0 162 6 208t29 80q51 72 211 72q18 0 30 -4v-78q-20 2 -53 2q-92 0 -110 -65q-12 -41 -13 -215h176v-82h-176v-928h-100zM588 1192v174h104v-174h-104zM588 0v1010h104v-1010h-104z" />
<glyph unicode="&#xfb02;" horiz-adv-x="835" d="M168 0v928h-145v82h145q0 158 5 205t30 83q39 45 80 57.5t151 12.5l10 2v-82q-20 2 -53 2q-92 0 -110 -65q-12 -41 -13 -215h176v-82h-176v-928h-100zM598 0v1368h100v-1368h-100z" />
<glyph unicode="&#xfb03;" horiz-adv-x="1280" d="M633 0v928h-146v82h146q0 162 6 208t29 80q51 72 211 72q18 0 30 -4v-78q-20 2 -53 2q-92 0 -111 -65q-12 -41 -12 -215h176v-82h-176v-928h-100zM168 0v928h-145v82h145q0 162 6 208t29 80q51 72 211 72q18 0 30 -4v-78q-20 2 -53 2q-92 0 -110 -65q-12 -41 -13 -215 h176v-82h-176v-928h-100zM1051 1192v174h104v-174h-104zM1051 0v1010h104v-1010h-104z" />
<glyph unicode="&#xfb04;" horiz-adv-x="1298" d="M633 0v928h-146v82h146q0 158 5 205t30 83q39 45 79.5 57.5t151.5 12.5l10 2v-82q-20 2 -53 2q-92 0 -111 -65q-12 -41 -12 -215h176v-82h-176v-928h-100zM168 0v928h-145v82h145q0 158 5 205t30 83q39 45 80 57.5t151 12.5l10 2v-82q-20 2 -53 2q-92 0 -110 -65 q-12 -41 -13 -215h176v-82h-176v-928h-100zM1063 0v1368h100v-1368h-100z" />
</font>
</defs>
</svg>
