<?xml version="1.0" standalone="no"?>
<!DOCTYPE svg PUBLIC "-//W3C//DTD SVG 1.1//EN" "http://www.w3.org/Graphics/SVG/1.1/DTD/svg11.dtd" >
<svg xmlns="http://www.w3.org/2000/svg">
<metadata>
This is a custom SVG webfont generated by Fontspring.
</metadata>
<defs>
<font id="webfontD5EcH5mq" horiz-adv-x="1024" >
<font-face units-per-em="2048" ascent="1690" descent="-358" />
<missing-glyph horiz-adv-x="614" />
<glyph unicode=" "  horiz-adv-x="614" />
<glyph unicode="&#x09;" horiz-adv-x="614" />
<glyph unicode="&#xa0;" horiz-adv-x="614" />
<glyph unicode="!" horiz-adv-x="575" d="M162 381l94 645l72 340h293l-70 -326l-209 -659h-180zM27 -2l61 287h293l-62 -287h-292z" />
<glyph unicode="&#x22;" horiz-adv-x="890" d="M612 819l60 547h344l-176 -547h-228zM178 819l58 547h344l-177 -547h-225z" />
<glyph unicode="#" horiz-adv-x="1316" d="M227 82l125 354h-219l51 142h217l70 194h-219l49 143h219l115 326h147l-114 -326h204l115 326h148l-115 -326h233l-51 -143h-233l-68 -194h234l-52 -142h-233l-125 -354h-147l124 354h-204l-125 -354h-146zM549 578h205l67 194h-205z" />
<glyph unicode="$" horiz-adv-x="1146" d="M14 360q0 43 2 89h273v-33q0 -209 246 -209q115 0 183 49t68 133q0 41 -22.5 64.5t-91.5 52.5l-240 100q-156 63 -213 134t-57 194q0 193 133 311.5t360 126.5l45 230h144l-45 -238q139 -16 237 -86q133 -94 133 -299q0 -31 -4 -61h-272q-4 109 -56.5 160.5t-164.5 51.5 q-98 0 -160.5 -43t-62.5 -112q0 -37 26.5 -61.5t102.5 -55.5l229 -96q152 -63 211 -136t59 -196q0 -135 -72.5 -247.5t-193.5 -164t-283 -51.5l-47 -241h-143l49 254q-199 35 -286 124.5t-87 255.5z" />
<glyph unicode="%" horiz-adv-x="1558" d="M426 674q-127 0 -198.5 71.5t-71.5 198.5q0 186 102 320q94 117 246 116q133 0 203.5 -72.5t70.5 -207.5q0 -166 -90 -297q-90 -129 -262 -129zM256 0l905 1333h219l-905 -1333h-219zM428 815q82 0 127 82q53 102 53 213q0 119 -100 119q-76 0 -129 -86t-53 -211 q0 -117 102 -117zM852 256q0 186 102 319q94 117 246 117q133 0 204 -72.5t71 -207.5q0 -166 -91 -297q-90 -129 -262 -129q-127 0 -198.5 71.5t-71.5 198.5zM1022 244q0 -117 102 -117q82 0 127 82q53 102 54 213q0 119 -101 119q-76 0 -129 -86t-53 -211z" />
<glyph unicode="&#x26;" horiz-adv-x="1349" d="M76 391q0 147 86 243.5t274 158.5l-41 81q-57 113 -57 197q0 145 110.5 237.5t286.5 92.5t283.5 -95.5t107.5 -250.5q0 -256 -297 -363l129 -190q39 57 54 125h274q-37 -217 -170 -361l178 -266h-329l-58 86q-176 -113 -364 -113q-201 0 -334 119t-133 299zM698 887 q98 51 136 92t38 96q0 51 -32.5 83t-85.5 32q-59 0 -95 -34t-36 -89q0 -43 34 -106zM369 395q0 -78 53 -133t129 -55q92 0 219 86l-199 297q-109 -39 -155.5 -84t-46.5 -111z" />
<glyph unicode="'" horiz-adv-x="464" d="M180 819l58 547h354l-176 -547h-236z" />
<glyph unicode="(" horiz-adv-x="745" d="M86 279q0 354 201 706q96 172 288 381h252q-176 -242 -274 -428q-201 -383 -201 -752q0 -137 28 -254.5t95 -271.5h-244q-145 316 -145 619z" />
<glyph unicode=")" horiz-adv-x="745" d="M195 88q199 385 198 752q0 252 -123 526h246q66 -141 104.5 -310t38.5 -308q0 -561 -489 -1088h-252q187 256 277 428z" />
<glyph unicode="*" horiz-adv-x="835" d="M340 764l-111 123l166 145l-192 111l82 141l190 -110l45 217l162 -35l-47 -217l219 24l16 -164l-219 -20l90 -203l-149 -65l-88 202z" />
<glyph unicode="+" d="M467 252v407h-414v150h414v410h154v-410h417v-150h-417v-407h-154z" />
<glyph unicode="," horiz-adv-x="550" d="M18 0l62 287h293l-51 -246q-39 -184 -127.5 -271t-243.5 -92l29 132q70 8 111.5 53t70.5 137h-144z" />
<glyph unicode="-" horiz-adv-x="540" d="M-25 399l52 240h540l-51 -240h-541z" />
<glyph unicode="." horiz-adv-x="550" d="M18 -2l62 287h293l-62 -287h-293z" />
<glyph unicode="/" horiz-adv-x="942" d="M-76 0l903 1366h260l-903 -1366h-260z" />
<glyph unicode="0" horiz-adv-x="1146" d="M100 430q0 174 48.5 367.5t121.5 318.5q158 264 437 264q233 0 337 -174q70 -113 70 -311q0 -156 -48 -344.5t-120 -310.5q-156 -266 -432 -267q-193 0 -303.5 123t-110.5 334zM526 219q119 0 193 260t74 441q0 113 -22.5 161.5t-76.5 53.5q-123 6 -198 -273 q-74 -262 -74 -454q0 -189 104 -189z" />
<glyph unicode="1" horiz-adv-x="1146" d="M430 0l193 907h-349l45 213q180 -4 276.5 47.5t160.5 184.5h254l-287 -1352h-293z" />
<glyph unicode="2" horiz-adv-x="1146" d="M18 0q37 246 141.5 388t370.5 310q135 86 193 148q74 84 74 168q0 53 -33 87t-86 34q-160 0 -182 -236h-295q16 119 35.5 185.5t58.5 115.5q63 86 168.5 133t230.5 47q193 0 305.5 -99t112.5 -269q0 -178 -108 -299q-45 -51 -103.5 -94.5t-191.5 -122.5 q-143 -86 -199.5 -129t-97.5 -97q63 2 284 2h267l-58 -272h-887z" />
<glyph unicode="3" horiz-adv-x="1146" d="M84 377q0 25 4 90h297q-4 -61 -4 -64q0 -184 143 -184q76 0 128.5 61.5t52.5 151.5q0 84 -40 117t-149 43l45 217q84 0 137 33q45 27 73 80t28 112q0 47 -28 74t-75 27q-133 0 -176 -199h-293q23 176 109 283q133 162 369 161q178 0 292.5 -102t114.5 -262 q0 -152 -100 -246q-55 -51 -158 -80q96 -55 137 -119.5t41 -160.5q0 -184 -142 -310.5t-351 -126.5q-201 0 -328 113t-127 291z" />
<glyph unicode="4" horiz-adv-x="1146" d="M47 281l68 319l686 752h305l-176 -832h149l-49 -239h-151l-60 -281h-295l60 281h-537zM356 520h279l49 228q0 8 14 69l13 55l12 54l6 26l-172 -204z" />
<glyph unicode="5" horiz-adv-x="1146" d="M106 367q0 37 3 63h307v-37q0 -82 36.5 -128t100.5 -46q88 0 154.5 95.5t66.5 217.5q0 78 -41 122t-112 44q-98 0 -162 -73h-291l205 727h764l-52 -240h-505l-68 -231q111 63 211 63q166 0 268.5 -112.5t102.5 -294.5q0 -236 -158 -400t-385 -164q-195 0 -320 111 t-125 283z" />
<glyph unicode="6" horiz-adv-x="1146" d="M115 475q0 174 55 364.5t141 311.5q166 229 428 229q164 0 269.5 -98t105.5 -248q0 -37 -2 -59h-287q0 55 -6 76q-16 84 -104 84q-156 0 -232 -285q104 59 205 59q164 0 267.5 -115.5t103.5 -295.5q0 -98 -40 -203t-104 -172q-139 -150 -362 -150q-205 0 -321.5 133 t-116.5 369zM403 414q0 -88 41 -141.5t109 -53.5q82 0 137 79t55 198q0 78 -37.5 123t-103.5 45q-88 0 -144.5 -70.5t-56.5 -179.5z" />
<glyph unicode="7" horiz-adv-x="1146" d="M215 0q14 250 172 546t426 570q-76 -4 -278 -4h-318l49 240h914l-52 -240q-256 -236 -416.5 -528.5t-193.5 -583.5h-303z" />
<glyph unicode="8" horiz-adv-x="1146" d="M74 367q0 143 75.5 240.5t215.5 133.5q-131 98 -132 252q0 168 129.5 277.5t327.5 109.5q186 0 305 -98t119 -254q0 -238 -244 -338q150 -88 150 -252q0 -88 -35 -176t-94 -149q-133 -139 -359 -140q-207 0 -332.5 109t-125.5 285zM653 819q63 0 111.5 55.5t48.5 126.5 q0 59 -34 94t-91 35q-66 0 -109.5 -51t-43.5 -127q0 -59 32.5 -96t85.5 -37zM381 391q0 -72 43 -119t108 -47q76 0 128.5 63.5t52.5 157.5q0 74 -37 116t-105 42q-78 0 -134 -63.5t-56 -149.5z" />
<glyph unicode="9" horiz-adv-x="1146" d="M102 319q0 35 2 58h287q0 -41 6 -76q20 -82 105 -82q158 0 231 283q-104 -59 -205 -60q-164 0 -267 116t-103 296q0 100 40 204.5t103 172.5q139 150 363 149q205 0 321.5 -133t116.5 -368q0 -176 -55.5 -365.5t-141.5 -310.5q-164 -229 -428 -230q-164 0 -269.5 97 t-105.5 249zM612 688q88 0 144.5 70.5t56.5 179.5q0 90 -41 143.5t-108 53.5q-82 0 -137.5 -79t-55.5 -198q0 -80 37.5 -125t103.5 -45z" />
<glyph unicode=":" horiz-adv-x="550" d="M168 702l61 287h293l-61 -287h-293zM18 0l62 287h293l-62 -287h-293z" />
<glyph unicode=";" horiz-adv-x="550" d="M162 674l61 287h293l-61 -287h-293zM18 0l62 287h293l-51 -246q-39 -184 -127.5 -271t-243.5 -92l29 132q72 10 113.5 53t68.5 137h-144z" />
<glyph unicode="&#x3c;" d="M102 559v264l887 469v-315l-553 -287l551 -289l2 -311z" />
<glyph unicode="=" d="M53 817v144h985v-144h-985zM53 508v145h985v-145h-985z" />
<glyph unicode="&#x3e;" d="M102 90v313l553 289l-551 287l-2 313l887 -469v-266z" />
<glyph unicode="?" horiz-adv-x="1095" d="M375 385q33 170 109.5 268.5t254.5 204.5q129 78 129 170q0 72 -55 115t-143 43q-137 0 -197 -103q-25 -37 -43 -129h-278q23 219 150.5 333t356.5 114q223 0 354.5 -101.5t131.5 -271.5q0 -154 -117 -270q-45 -45 -213 -154q-160 -106 -186 -219h-254zM281 0l63 287h293 l-62 -287h-294z" />
<glyph unicode="@" horiz-adv-x="1382" d="M586 305q-106 0 -174 75t-68 191q0 170 123 312.5t268 142.5q127 0 195 -106l26 73h158l-160 -485q-18 -53 -18 -73.5t16.5 -34t38.5 -13.5q86 0 178 102q109 125 109 287q0 199 -150.5 339t-365.5 140q-244 0 -412 -171t-168 -418.5t168 -417.5t412 -170q145 0 276 73.5 t205 196.5l115 -2q-78 -162 -245 -263t-357 -101q-285 0 -483.5 199.5t-198.5 484.5q0 287 199.5 485.5t488.5 198.5q256 0 436 -165t180 -400.5t-182 -378.5q-129 -98 -252 -99q-109 0 -143 90q-117 -92 -215 -92zM614 385q127 0 199 207l45 129q23 61 23 104q0 47 -28 80 t-69 33q-88 0 -170 -117q-39 -57 -68.5 -148t-29.5 -157q0 -59 26.5 -95t71.5 -36z" />
<glyph unicode="A" horiz-adv-x="1269" d="M-82 0l744 1366h329l195 -1366h-309l-31 279h-449l-143 -279h-336zM528 530h287l-27 285l-16 207l-12 -27l-25 -53l-61 -127z" />
<glyph unicode="B" horiz-adv-x="1368" d="M41 0l291 1366h518q236 0 350 -74q63 -41 99 -110.5t36 -149.5q0 -121 -65.5 -207t-186.5 -125q182 -70 183 -251q0 -102 -47.5 -197.5t-126.5 -153.5q-76 -55 -174.5 -76.5t-270.5 -21.5h-606zM522 819h236q158 0 215 45q59 43 59 119q0 66 -48 93.5t-163 27.5h-239z M403 262h263q279 0 278 182q0 133 -205 134h-268z" />
<glyph unicode="C" horiz-adv-x="1441" d="M117 528q0 293 162 543q215 330 636 330q164 0 289 -57.5t189 -159.5q59 -95 59 -288v-13h-315q0 123 -27 170q-53 102 -211 102q-225 0 -358 -229q-102 -172 -103 -369q0 -160 79 -253t214 -93q236 0 322 272h338q-141 -518 -689 -518q-283 0 -434 145.5t-151 417.5z " />
<glyph unicode="D" horiz-adv-x="1433" d="M41 0l291 1366h434q319 0 467 -121q174 -139 174 -414q0 -186 -77 -363t-210 -298q-102 -92 -231 -131t-330 -39h-518zM403 262h181q133 0 206.5 27.5t139.5 101.5q76 86 119 201t43 229q0 158 -93 230q-70 53 -249 53h-168z" />
<glyph unicode="E" horiz-adv-x="1269" d="M41 0l291 1366h1016l-56 -262h-710l-50 -240h654l-58 -262h-653l-72 -340h740l-56 -262h-1046z" />
<glyph unicode="F" horiz-adv-x="1198" d="M41 0l291 1366h987l-55 -262h-668l-59 -285h598l-56 -262h-600l-117 -557h-321z" />
<glyph unicode="G" horiz-adv-x="1521" d="M287 98q-170 150 -170 432q0 324 182 576q217 295 604 295q324 0 473 -197q88 -113 90 -293h-311v15v16q0 94 -70.5 153.5t-181.5 59.5q-113 0 -211 -60.5t-155 -166.5q-98 -180 -99 -383q0 -152 84 -243t226 -91q180 0 284 143q43 59 66 164h-287l55 252h586l-164 -770 h-260l29 129q-94 -90 -181.5 -127t-207.5 -37q-229 0 -381 133z" />
<glyph unicode="H" horiz-adv-x="1411" d="M41 0l291 1366h307l-109 -512h496l109 512h307l-289 -1366h-307l123 582h-498l-123 -582h-307z" />
<glyph unicode="I" horiz-adv-x="620" d="M41 0l291 1366h319l-289 -1366h-321z" />
<glyph unicode="J" horiz-adv-x="1105" d="M-14 268q0 106 41 226l307 -7q-33 -106 -33 -159q0 -51 30.5 -81t84.5 -30q88 0 139 68q41 51 74 207l186 874h322l-201 -938q-29 -133 -63.5 -209t-94.5 -131q-129 -123 -381 -123q-199 0 -305 79t-106 224z" />
<glyph unicode="K" horiz-adv-x="1355" d="M41 0l291 1366h307l-113 -528l551 528h400l-627 -575l405 -791h-342l-292 594l-181 -164l-92 -430h-307z" />
<glyph unicode="L" horiz-adv-x="1110" d="M41 0l291 1366h319l-233 -1104h600l-57 -262h-920z" />
<glyph unicode="M" horiz-adv-x="1748" d="M41 0l291 1366h391l90 -678q8 -61 10 -88q2 -16 4 -40l3 -36q1 -12 1 -14l9 -121q57 121 139 277l377 700h416l-283 -1366h-315l157 725l27 106q0 2 8 32t16 52q-4 -6 -67 -137l-27 -53l-387 -725h-283l-81 709l-7 55l-12 151l-10 -98q-6 -59 -19 -121l-141 -696h-307z " />
<glyph unicode="N" horiz-adv-x="1423" d="M41 0l291 1366h307l252 -664q63 -168 76 -227q6 29 6 39q20 133 33 188l141 664h307l-291 -1366h-323l-275 750q-31 88 -43 147q-4 -84 -22 -174l-152 -723h-307z" />
<glyph unicode="O" horiz-adv-x="1591" d="M119 555q0 164 56 328t153 276q203 242 569 242q309 0 477 -157t168 -445q0 -137 -46 -282.5t-124 -258.5q-201 -293 -616 -293q-299 0 -468 157t-169 433zM440 555q0 -160 85 -252t233 -92q252 0 368 217q94 174 95 371q0 356 -322 356q-227 0 -344 -188 q-115 -187 -115 -412z" />
<glyph unicode="P" horiz-adv-x="1253" d="M41 0l291 1366h430q172 0 266 -20.5t154 -69.5q111 -94 110 -270q0 -115 -47 -226.5t-125 -183.5q-145 -131 -446 -131h-228l-98 -465h-307zM504 727h149q160 0 236 61q80 63 80 168q0 78 -49.5 113t-161.5 35h-176z" />
<glyph unicode="Q" horiz-adv-x="1591" d="M119 555q0 166 55 326.5t154 277.5q201 242 573 242q301 0 471 -155.5t170 -432.5q0 -186 -64.5 -355t-179.5 -288l93 -100l-187 -164l-110 123q-133 -63 -334 -64q-301 0 -471 155.5t-170 434.5zM440 555q0 -162 85 -253t237 -91q78 0 145 25l-151 170l186 163l160 -180 q51 72 85 189.5t34 226.5q0 170 -83 260t-239 90q-227 0 -344 -188q-115 -187 -115 -412z" />
<glyph unicode="R" horiz-adv-x="1392" d="M41 0l291 1366h555q139 0 217 -16.5t141 -57.5q139 -90 139 -270q0 -129 -77.5 -223t-216.5 -133q70 -39 93 -80t23 -129q0 -14 -1 -25.5t-4 -38t-7 -65.5l-12 -142q0 -14 -2 -30.5t-3 -26.5t-1 -12q0 -63 20 -117h-317q-8 55 -9 98q0 29 7 88l14 142q0 10 2 27.5t3 29.5 t1 21q0 72 -37 100.5t-131 28.5h-268l-113 -535h-307zM516 786h215q180 0 258 45q94 55 94 158q0 76 -52 104.5t-189 28.5h-254z" />
<glyph unicode="S" horiz-adv-x="1351" d="M252 41q-199 92 -199 334q0 41 2 82h307q0 -74 6.5 -102.5t28.5 -57.5q68 -86 240 -86q129 0 206 50t77 134q0 43 -26 66.5t-103 54.5l-269 102q-160 61 -223 121q-82 76 -82 213q0 205 162 327t434 122q160 0 283 -45t188 -125q66 -84 66 -234q0 -31 -4 -61h-308 q-2 219 -247 219q-113 0 -182.5 -44t-69.5 -116q0 -39 30.5 -63.5t116.5 -57.5l258 -98q170 -66 236.5 -140.5t66.5 -199.5q0 -100 -50 -199.5t-134 -158.5q-158 -113 -426 -113q-221 0 -385 76z" />
<glyph unicode="T" horiz-adv-x="1140" d="M309 0l236 1104h-402l56 262h1101l-55 -262h-381l-233 -1104h-322z" />
<glyph unicode="U" horiz-adv-x="1411" d="M287 37q-74 43 -116 122t-42 175q0 68 23 180l180 852h307l-180 -852q-16 -72 -17 -121q0 -82 53.5 -129t143.5 -47q141 0 214 85t120 300l162 764h307l-178 -840q-33 -156 -65 -238.5t-85 -146.5q-143 -176 -477 -176q-225 0 -350 72z" />
<glyph unicode="V" horiz-adv-x="1222" d="M336 0l-189 1366h326l64 -670q6 -53 9 -87t4 -51t1 -21q4 -78 4 -115l125 252l350 692h352l-747 -1366h-299z" />
<glyph unicode="W" horiz-adv-x="1734" d="M264 0l-117 1366h304l43 -588q10 -133 10 -256q0 -23 -2 -41q29 109 100 273l262 612h307l3 -707l2 -20q0 -86 -7 -197q23 63 33 88l45 105l320 731h329l-665 -1366h-307l-15 608l-2 140v86l-4 -13q-2 -6 -3 -10t-3 -8l-2 -4l-14 -45q-6 -20 -60 -146l-262 -608h-295z " />
<glyph unicode="X" horiz-adv-x="1257" d="M-109 0l598 721l-286 645h344l100 -231q18 -39 60 -156l45 55q25 27 34 43l39 47l203 242h367l-561 -672l311 -694h-344l-115 268l-27 62l-20 45l-23 61l-112 -141l-248 -295h-365z" />
<glyph unicode="Y" horiz-adv-x="1171" d="M328 0l125 582l-316 784h336l170 -514l330 514h375l-594 -805l-119 -561h-307z" />
<glyph unicode="Z" horiz-adv-x="1306" d="M-25 0l54 246l762 737q29 29 79 74t64 59q-123 -12 -201 -12h-508l56 262h1116l-51 -240l-728 -706q-96 -94 -188 -162q78 4 234 4h530l-57 -262h-1162z" />
<glyph unicode="[" horiz-adv-x="858" d="M319 -100h297l-49 -240h-592l361 1692h590l-49 -240h-299z" />
<glyph unicode="\" horiz-adv-x="942" d="M537 0l-322 1366h260l324 -1366h-262z" />
<glyph unicode="]" horiz-adv-x="858" d="M-20 -102h296l259 1214h-297l51 240h590l-359 -1694h-592z" />
<glyph unicode="^" d="M63 715l308 659h352l307 -659h-280l-203 446l-203 -446h-281z" />
<glyph unicode="_" d="M0 -113h1024v-188h-1024v188z" />
<glyph unicode="`" d="M504 1120l-197 266h342l68 -266h-213z" />
<glyph unicode="a" horiz-adv-x="1136" d="M35 256q0 86 42 162t111 119q88 53 279 71l133 15q92 8 128 29.5t36 62.5q0 37 -38 58.5t-103 21.5q-129 0 -170 -103h-303q88 324 495 324q193 0 294 -68.5t101 -195.5q0 -90 -18 -179l-80 -374q-16 -80 -18 -131l-2 -68h-293v90q-78 -66 -142.5 -91.5t-146.5 -25.5 q-133 0 -219 79t-86 204zM336 291q0 -41 31.5 -69.5t78.5 -28.5q82 0 145.5 49t92.5 135l27 80q-72 -16 -123 -23l-90 -12q-162 -22 -162 -131z" />
<glyph unicode="b" horiz-adv-x="1206" d="M18 0l291 1366h289l-94 -448q127 100 264 100q168 0 267.5 -104.5t99.5 -280.5q0 -199 -97 -385q-147 -274 -413 -275q-176 0 -295 127l-21 -100h-291zM399 395q0 -84 40 -133t109.5 -49t126 43t89.5 119q49 117 49 225q0 84 -39 131t-108 47q-113 0 -190 -110.5 t-77 -272.5z" />
<glyph unicode="c" horiz-adv-x="1105" d="M61 401q0 113 43 230t117 205q150 180 432 180q195 0 307.5 -96.5t112.5 -264.5v-26h-278q-2 70 -45 108.5t-117 38.5q-113 0 -192 -102.5t-79 -249.5q0 -98 47.5 -154.5t129.5 -56.5q100 0 159 76q23 27 43 88h289q-45 -197 -174 -300.5t-332 -103.5q-207 0 -335 119 t-128 309z" />
<glyph unicode="d" horiz-adv-x="1191" d="M63 373q0 276 147.5 460.5t371.5 184.5q176 0 268 -135l102 483h291l-291 -1366h-288l16 76q-123 -102 -262 -103q-166 0 -260.5 107t-94.5 293zM369 393q0 -82 42 -131t111 -49q63 0 118.5 36t88.5 95q63 117 64 248q0 90 -41 138t-119 48q-121 0 -193 -123 q-71 -127 -71 -262z" />
<glyph unicode="e" horiz-adv-x="1171" d="M61 401q0 117 42 230.5t114 197.5q164 188 436 189q205 0 321 -113.5t116 -312.5q0 -84 -21 -180h-717l-2 -35v-12q0 -74 50 -119q54 -49 145 -49q119 0 174 106h305q-131 -330 -502 -330q-219 0 -340 112.5t-121 315.5zM399 616h408q2 94 -38 137.5t-126 43.5 q-181 -1 -244 -181z" />
<glyph unicode="f" horiz-adv-x="618" d="M47 0l164 770h-125l47 219h125l23 113q35 172 125 233q53 37 198 37h51l127 -6l-51 -233l-41 2l-31 2h-9q-40 0 -58 -16q-20 -17 -31 -68l-14 -64h155l-47 -219h-153l-164 -770h-291z" />
<glyph unicode="g" horiz-adv-x="1196" d="M37 0h289q10 -121 147 -121t191 135q16 41 38 154q-100 -88 -243 -88q-168 0 -274.5 113.5t-106.5 295.5q0 225 140 376t349 151q172 0 289 -131l23 104h288l-188 -891q-27 -131 -54.5 -193.5t-78.5 -115.5q-127 -131 -377 -131q-270 0 -373 127q-59 76 -59 215zM375 500 q0 -90 48 -144.5t126 -54.5q57 0 108.5 29.5t79.5 81.5q53 88 54 190q0 88 -48.5 140.5t-130.5 52.5q-100 0 -168.5 -85t-68.5 -210z" />
<glyph unicode="h" horiz-adv-x="1146" d="M18 0l291 1366h289l-98 -469q139 121 288 121q121 0 197 -66.5t76 -173.5q0 -59 -35 -229l-117 -549h-291l119 561q14 66 15 105q0 113 -109 112q-168 0 -231 -295l-103 -483h-291z" />
<glyph unicode="i" horiz-adv-x="546" d="M256 1120l53 246h289l-51 -246h-291zM18 0l211 989h289l-209 -989h-291z" />
<glyph unicode="j" horiz-adv-x="546" d="M258 1124l51 246h291l-51 -246h-291zM37 80l192 909h291l-205 -956q-49 -231 -120 -291q-39 -33 -93.5 -44t-169.5 -11h-131l49 231h50q66 0 91.5 29t45.5 133z" />
<glyph unicode="k" horiz-adv-x="1146" d="M18 0l291 1366h289l-145 -688l350 311h409l-467 -383l256 -606h-321l-160 420l-147 -119l-64 -301h-291z" />
<glyph unicode="l" horiz-adv-x="546" d="M18 0l291 1366h289l-289 -1366h-291z" />
<glyph unicode="m" horiz-adv-x="1718" d="M18 0l211 989h289l-18 -94q127 123 295 123q193 0 243 -139q82 76 156 106.5t168 30.5q129 0 200.5 -61.5t71.5 -172.5q0 -61 -18 -147l-135 -635h-291l119 557q18 92 18 121q0 98 -96 98q-98 0 -166 -98q-43 -66 -72 -199l-100 -479h-291l113 535q25 115 24 145 q0 98 -98 98q-168 0 -231 -299l-101 -479h-291z" />
<glyph unicode="n" horiz-adv-x="1142" d="M18 0l211 989h281l-18 -86q129 113 272 113q129 0 204.5 -73t75.5 -195q0 -94 -26 -220l-113 -528h-291l123 578q12 53 13 90q0 51 -29 79.5t-80 28.5q-168 0 -225 -268l-107 -508h-291z" />
<glyph unicode="o" horiz-adv-x="1210" d="M68 424q0 252 165 428q158 164 420 164q229 0 355.5 -120t126.5 -337q0 -111 -43 -224.5t-115 -191.5q-160 -170 -428 -170q-225 0 -353 120t-128 331zM360 412q0 -100 52.5 -158.5t142.5 -58.5q154 0 229 149q57 115 58 231q0 106 -48.5 163t-138.5 57q-143 0 -229 -142 q-66 -108 -66 -241z" />
<glyph unicode="p" horiz-adv-x="1206" d="M332 102l-103 -485h-290l290 1372h291l-16 -74q129 100 270 101q166 0 262.5 -107.5t96.5 -294.5q0 -211 -105 -393q-66 -117 -176.5 -182.5t-241.5 -65.5q-82 0 -144 28.5t-134 100.5zM391 397q0 -88 41 -136t119 -48q150 0 223 154q55 117 55 223q0 90 -43 138t-122 48 q-115 0 -194 -109.5t-79 -269.5z" />
<glyph unicode="q" horiz-adv-x="1196" d="M66 371q0 274 149.5 459.5t368.5 185.5q174 0 272 -131l23 104h290l-292 -1372h-289l96 459q-117 -102 -266 -103q-164 0 -258 106t-94 292zM373 395q0 -84 40 -133t109 -49q66 0 127.5 42t91.5 107q53 113 54 228q0 90 -42 138t-118 48q-109 0 -185.5 -112.5 t-76.5 -268.5z" />
<glyph unicode="r" horiz-adv-x="749" d="M18 0l211 989h273l-29 -129q51 72 112.5 102.5t162.5 30.5q8 0 73 -4l-63 -303l-70 4q-125 0 -190.5 -57.5t-94.5 -190.5l-94 -442h-291z" />
<glyph unicode="s" horiz-adv-x="999" d="M63 117q-53 74 -53 225h279v-25q0 -121 141 -120q68 0 112 30.5t44 77.5q0 31 -21.5 51.5t-72.5 42.5l-117 50q-133 55 -185.5 110t-52.5 141q0 139 125 227.5t324 88.5q160 0 268 -66q115 -66 115 -209v-39h-281q-2 57 -14 76q-29 39 -107 39q-57 0 -91 -20.5t-34 -53.5 q0 -47 105 -90l121 -49q225 -90 225 -282q0 -154 -129 -251.5t-334 -97.5q-258 1 -367 144z" />
<glyph unicode="t" horiz-adv-x="624" d="M78 133q0 39 28 174l99 463h-123l47 219h123l51 244h291l-51 -244h151l-47 -219h-151l-90 -422q-14 -66 -15 -82q0 -45 70 -45q16 0 47 4l-49 -225q-70 -14 -162 -14q-219 0 -219 147z" />
<glyph unicode="u" horiz-adv-x="1159" d="M86 231q0 90 33 240l110 518h291l-125 -586q-12 -55 -12 -90q0 -100 119 -100q90 0 146.5 67.5t86.5 213.5l107 495h288l-208 -989h-291l18 90q-68 -66 -126 -91.5t-144 -25.5q-137 0 -215 68.5t-78 189.5z" />
<glyph unicode="v" horiz-adv-x="972" d="M225 0l-151 989h315l39 -407q10 -113 10 -209q29 72 84 184l207 432h326l-553 -989h-277z" />
<glyph unicode="w" horiz-adv-x="1413" d="M152 0l-78 989h288l13 -395v-41l2 -43v-68q8 20 33 74l18 39l18 39l201 395h281l26 -350q6 -94 7 -197q14 41 83 197l158 350h293l-483 -989h-269l-26 442q-7 121 -7 162q0 10 1 14q-33 -86 -78 -176l-223 -442h-258z" />
<glyph unicode="x" horiz-adv-x="1028" d="M-109 0l457 526l-227 463h313l88 -186q20 -45 29 -76l53 76l154 186h327l-405 -467l240 -522h-299l-91 190l-22 48l-19 43l-12 24q-47 -66 -76 -98l-178 -207h-332z" />
<glyph unicode="y" horiz-adv-x="1003" d="M4 -82h66q66 0 93 14.5t56 65.5l25 43l-170 948h309l43 -385l23 -233q14 37 100 202l215 416h321l-606 -1065q-76 -137 -131 -184q-61 -53 -244 -53h-149z" />
<glyph unicode="z" horiz-adv-x="983" d="M-41 0l55 258l564 485h-455l51 246h827l-55 -258l-567 -485h491l-51 -246h-860z" />
<glyph unicode="{" d="M176 -94l62 287q10 43 10 83q0 80 -86 101l53 254q68 14 101.5 51t50.5 117l63 299q33 152 117 219q53 41 114.5 55t196.5 14q90 0 146 -4l-62 -290q-10 2 -24 2q-109 0 -150 -31t-61 -129l-39 -191q-20 -102 -58.5 -155t-113.5 -92q78 -55 77 -146q0 -51 -12 -104 l-41 -199q-14 -74 -14 -88q0 -76 151 -76q14 0 27 2l-57 -276q-88 -2 -152 -2q-182 0 -235 33q-78 51 -78 151q0 49 14 115z" />
<glyph unicode="|" d="M387 -342v1708h318v-1708h-318z" />
<glyph unicode="}" d="M76 -100h24q106 0 146.5 30.5t62.5 128.5l41 189q23 104 61 157.5t111 92.5q-78 55 -78 145q0 39 13 105l41 198q12 61 12 86q0 55 -66 68q-43 8 -112 8l59 274q127 4 152 4q180 0 233 -32q78 -47 78 -152q0 -55 -12 -115l-62 -286q-10 -55 -10 -84q0 -82 86 -101 l-55 -254q-66 -16 -99.5 -52t-50.5 -115l-63 -299q-33 -154 -117 -220q-53 -41 -114.5 -55t-192.5 -14q-90 0 -150 2z" />
<glyph unicode="~" horiz-adv-x="1366" d="M377 1126l-154 129q113 283 307 283q66 0 230 -68q119 -51 155 -51q78 0 146 123l153 -127q-63 -152 -135.5 -215t-185.5 -63q-43 0 -80 11t-147 58q-100 45 -148 45q-73 0 -141 -125z" />
<glyph unicode="&#xa1;" horiz-adv-x="575" d="M195 739l61 287h293l-62 -287h-292zM25 -16l208 659h181l-92 -645l-74 -340h-293z" />
<glyph unicode="&#xa2;" horiz-adv-x="1146" d="M397 -12l43 207q-150 39 -234.5 148.5t-84.5 262.5q0 156 73.5 303.5t190.5 225.5q109 72 274 86l37 176h160l-39 -183q147 -23 231.5 -118t84.5 -236v-26h-279q-2 70 -46 109.5t-116 39.5q-113 0 -191.5 -103.5t-78.5 -250.5q0 -98 47 -154.5t129 -56.5q100 0 160 76 q23 27 43 88h289q-39 -188 -166 -293t-326 -111l-41 -190h-160z" />
<glyph unicode="&#xa3;" horiz-adv-x="1146" d="M143 -8l-90 196q201 123 219 379h-170l37 178h119q-37 66 -37 203q0 147 103 273q150 180 436 180q446 0 446 -410q0 -39 -2 -73h-260q2 10 2 22q0 98 -37 145q-57 70 -172 70q-92 0 -155 -53q-31 -27 -51.5 -70t-18.5 -76q10 -137 15 -163.5t22 -47.5h297l-37 -178h-254 q0 -147 -166 -319q74 29 146 28q61 0 145 -20q96 -20 135 -20q104 0 207 69l27 -242q-125 -90 -263 -90q-84 0 -215 47q-133 49 -209 50q-88 0 -219 -78z" />
<glyph unicode="&#xa4;" horiz-adv-x="1464" d="M121 221l205 207q-76 131 -76 268q0 125 82 273l-211 209l164 163l215 -213q147 78 268 78q119 0 264 -78l213 211l162 -161l-207 -207q84 -141 84 -277q0 -117 -76 -266l205 -205l-160 -164l-206 205q-131 -84 -269 -84q-139 0 -289 84l-206 -205zM526 696 q0 -100 71 -170.5t171 -70.5t171 71.5t71 171.5q0 98 -71 170t-169 72q-102 0 -173 -71t-71 -173z" />
<glyph unicode="&#xa5;" horiz-adv-x="1146" d="M313 0l119 553h-313l37 178h241l-84 211h-200l37 178h92l-99 246h330l156 -514l315 514h369l-180 -246h118l-37 -178h-213l-155 -211h235l-39 -178h-303l-118 -553h-308z" />
<glyph unicode="&#xa6;" d="M387 643v723h318v-723h-318zM387 313h318v-655h-318v655z" />
<glyph unicode="&#xa7;" horiz-adv-x="1310" d="M115 0q0 47 16 115h275q-6 -45 -7 -64q0 -59 46.5 -93t123.5 -34q72 0 118 35t46 88q0 37 -20.5 55.5t-106.5 61.5l-244 121q-123 59 -165 114q-55 72 -56 174q0 215 275 304q-55 92 -56 163q0 168 119 264.5t326 96.5q199 0 304 -81t105 -233q0 -29 -8 -69h-280 q6 49 6 59q0 106 -139 107q-63 0 -102.5 -25.5t-39.5 -68.5q0 -35 32 -62t136 -78l197 -96q113 -55 154.5 -109.5t41.5 -144.5q0 -109 -57 -182.5t-190 -132.5q63 -102 63 -201q0 -176 -137 -279.5t-369 -103.5q-195 0 -301 78t-106 221zM430 627q0 -31 18.5 -45.5 t118.5 -63.5l238 -115q115 45 115 115q0 31 -18.5 49.5t-72.5 44.5l-274 136q-70 -27 -97.5 -53.5t-27.5 -67.5z" />
<glyph unicode="&#xa8;" d="M641 1122l55 264h273l-58 -264h-270zM221 1122l55 264h273l-55 -264h-273z" />
<glyph unicode="&#xa9;" horiz-adv-x="1574" d="M113 682q0 299 208.5 506t509.5 207q287 0 493 -211t206 -502q0 -293 -208 -502t-499 -209q-293 0 -501.5 209t-208.5 502zM258 682q0 -238 166 -407t397 -169q233 0 398 169t165 407t-163.5 408t-391.5 170q-240 0 -405.5 -168t-165.5 -410zM436 688q0 182 109.5 297 t283.5 115q143 0 242.5 -84t108.5 -209h-144q-14 61 -69.5 96t-135.5 35q-94 0 -150 -68.5t-56 -183.5t55 -182.5t151 -67.5q88 0 144.5 45t68.5 125h144q-10 -152 -108.5 -242t-254.5 -90q-174 0 -281.5 114t-107.5 300z" />
<glyph unicode="&#xaa;" horiz-adv-x="741" d="M305 530q-88 0 -143.5 49.5t-55.5 125.5q0 113 101 169q63 35 174 46l82 8q55 6 74.5 15t19.5 30q0 41 -82 41q-74 0 -98 -60h-205q59 205 317 205q123 0 188.5 -43t65.5 -123q0 -55 -10 -102l-47 -221q-10 -47 -10 -74v-49h-199l-2 45q-76 -62 -170 -62zM373 674 q102 0 135 102l12 37q-39 -8 -63 -10l-58 -8q-90 -12 -90 -68q0 -23 18.5 -38t45.5 -15z" />
<glyph unicode="&#xab;" horiz-adv-x="929" d="M438 371l68 313l393 244l-63 -307l-209 -129l151 -136l-51 -245zM344 111l-287 260l68 313l393 244l-65 -307l-207 -129l151 -136z" />
<glyph unicode="&#xac;" d="M102 319v277h887v-596h-309v319h-578z" />
<glyph unicode="&#xad;" horiz-adv-x="540" d="M-25 399l52 240h540l-51 -240h-541z" />
<glyph unicode="&#xae;" horiz-adv-x="1574" d="M113 682q0 299 208.5 506t509.5 207q287 0 493 -211t206 -502q0 -293 -208 -502t-499 -209q-293 0 -501.5 209t-208.5 502zM258 682q0 -238 166 -407t397 -169q233 0 398 169t165 407t-163.5 408t-391.5 170q-240 0 -405.5 -168t-165.5 -410zM522 295v788h334 q119 0 184 -36q104 -59 105 -185q0 -131 -131 -190q68 -29 91 -80t28 -176q2 -82 20 -121h-178q-14 31 -19 100q-10 150 -38 180q-37 41 -119 41h-90v-321h-187zM709 725h106q145 0 146 123q0 63 -33 92t-103 29h-116v-244z" />
<glyph unicode="&#xaf;" d="M309 1169l43 217h609l-41 -217h-611z" />
<glyph unicode="&#xb0;" d="M547 729q-133 0 -228.5 95.5t-95.5 228.5t95.5 228t228.5 95q135 0 228 -95t93 -232q0 -131 -95 -225.5t-226 -94.5zM545 850q80 0 139 59.5t59 139.5q0 86 -58 146t-142 60q-78 0 -136.5 -60t-58.5 -142t58.5 -142.5t138.5 -60.5z" />
<glyph unicode="&#xb1;" d="M467 276v394h-414v149h414v410h154v-410h417v-149h-417v-394h-154zM53 43v150h985v-150h-985z" />
<glyph unicode="&#xb2;" horiz-adv-x="778" d="M94 547q25 152 91.5 237.5t240.5 186.5q96 55 132 94t36 84q0 29 -19.5 47t-50.5 18q-96 0 -110 -137h-203q18 133 63 189q90 109 261 108q127 0 200.5 -60.5t73.5 -165t-72 -179.5q-47 -49 -190 -129q-139 -78 -176 -119h166h178l-39 -174h-582z" />
<glyph unicode="&#xb3;" horiz-adv-x="778" d="M416 530q-131 0 -214 69t-83 177q0 14 4 60h203q-2 -25 -2 -45q0 -102 86 -103q45 0 75.5 35t30.5 86q0 47 -24.5 64.5t-98.5 21.5l33 141q59 0 90 19q59 31 59 106q0 53 -57 53q-82 0 -108 -116h-201q41 276 315 276q115 0 191 -62.5t76 -158.5q0 -78 -41 -129 q-12 -16 -105 -63l-6 -5q55 -33 77.5 -69.5t22.5 -91.5q0 -113 -93 -189t-230 -76z" />
<glyph unicode="&#xb4;" d="M430 1118l113 268h366l-243 -268h-236z" />
<glyph unicode="&#xb5;" d="M96 -348v1331h269v-512q0 -125 34 -180q57 -88 148 -88q86 0 134 72.5t48 203.5v504h268v-983h-268v135q-57 -156 -186 -155q-111 0 -178 122v-450h-269z" />
<glyph unicode="&#xb6;" horiz-adv-x="1275" d="M348 -231l189 884h-27q-141 0 -223 73t-82 196q0 94 44 186t118 152q70 57 157.5 81.5t227.5 24.5h526l-27 -119h-104l-316 -1478h-151l315 1478h-182l-313 -1478h-152z" />
<glyph unicode="&#xb7;" horiz-adv-x="550" d="M98 375l62 287h293l-62 -287h-293z" />
<glyph unicode="&#xb8;" d="M330 -68h243l-41 -192q-20 -92 -57 -119t-145 -27q-37 0 -72 3l21 100q18 -2 40 -2q53 0 73 13t24 56h-123z" />
<glyph unicode="&#xb9;" horiz-adv-x="778" d="M324 547l125 534h-224l33 140q117 -4 179.5 26.5t101.5 110.5h174l-187 -811h-202z" />
<glyph unicode="&#xba;" horiz-adv-x="786" d="M434 528q-143 0 -226 74t-83 203q0 156 102.5 255t266.5 99q145 0 227 -73.5t82 -204.5q0 -154 -104.5 -253.5t-264.5 -99.5zM438 674q70 0 118 62.5t48 152.5q0 125 -110 125q-72 0 -121 -62.5t-49 -152.5q0 -59 30.5 -92t83.5 -33z" />
<glyph unicode="&#xbb;" horiz-adv-x="929" d="M412 111l65 307l207 129l-149 135l51 246l286 -260l-65 -314zM31 111l65 307l207 129l-151 135l53 246l287 -260l-66 -314z" />
<glyph unicode="&#xbc;" horiz-adv-x="1959" d="M324 547l125 534h-224l33 140q117 -4 179.5 26.5t101.5 110.5h174l-187 -811h-202zM451 0l907 1333h217l-905 -1333h-219zM1163 166l47 201l443 444h207l-115 -489h96l-35 -156h-96l-39 -166h-201l37 166h-344zM1386 322h158l29 129l2 6q2 6 4 16t4 19l8 30l4 23 q-51 -59 -92 -101z" />
<glyph unicode="&#xbd;" horiz-adv-x="1959" d="M324 547l125 534h-224l33 140q117 -4 179.5 26.5t101.5 110.5h174l-187 -811h-202zM451 0l907 1333h217l-905 -1333h-219zM1159 0q25 154 91.5 239t242.5 187q96 55 132 94t36 84q0 29 -19.5 47.5t-50.5 18.5q-98 0 -112 -140h-203q18 133 63 189q90 109 263 108 q127 0 200.5 -60t73.5 -163q0 -106 -72 -182q-47 -49 -190 -129q-135 -72 -178 -119h166h180l-41 -174h-582z" />
<glyph unicode="&#xbe;" horiz-adv-x="1961" d="M416 530q-131 0 -214 69t-83 177q0 14 4 60h203q-2 -25 -2 -45q0 -102 86 -103q45 0 75.5 35t30.5 86q0 47 -24.5 64.5t-98.5 21.5l33 141q59 0 90 19q59 31 59 106q0 53 -57 53q-82 0 -108 -116h-201q41 276 315 276q115 0 191 -62.5t76 -158.5q0 -78 -41 -129 q-12 -16 -105 -63l-6 -5q55 -33 77.5 -69.5t22.5 -91.5q0 -113 -93 -189t-230 -76zM451 0l907 1333h217l-905 -1333h-219zM1165 166l45 201l443 444h207l-113 -489h96l-35 -156h-96l-39 -166h-203l39 166h-344zM1389 322h155l31 129q0 10 10 41l6 30l6 23l-92 -101z" />
<glyph unicode="&#xbf;" horiz-adv-x="1095" d="M467 772l61 287h293l-61 -287h-293zM-41 29q0 154 117 270q49 49 213 156q86 57 128 107t56 112h254q-33 -170 -107.5 -267.5t-254.5 -207.5q-129 -78 -129 -170q0 -70 55 -113t143 -43q133 0 197 100q25 39 41 129h280q-47 -444 -508 -444q-223 0 -354 100.5t-131 270.5 z" />
<glyph unicode="&#xc0;" horiz-adv-x="1269" d="M709 1495l-197 240h342l68 -240h-213zM-82 0l744 1366h329l195 -1366h-309l-31 279h-449l-143 -279h-336zM528 530h287l-27 285l-16 207l-12 -27l-25 -53l-61 -127z" />
<glyph unicode="&#xc1;" horiz-adv-x="1269" d="M731 1493l113 242h366l-243 -242h-236zM-82 0l744 1366h329l195 -1366h-309l-31 279h-449l-143 -279h-336zM528 530h287l-27 285l-16 207l-12 -27l-25 -53l-61 -127z" />
<glyph unicode="&#xc2;" horiz-adv-x="1269" d="M500 1495l227 240h344l137 -240h-254l-65 109l-103 -109h-286zM-82 0l744 1366h329l195 -1366h-309l-31 279h-449l-143 -279h-336zM528 530h287l-27 285l-16 207l-12 -27l-25 -53l-61 -127z" />
<glyph unicode="&#xc3;" horiz-adv-x="1269" d="M545 1542q27 90 80 140.5t120 50.5q41 0 119 -27q84 -29 113 -29q37 0 67 58l173 -35q-37 -102 -84.5 -145.5t-124.5 -43.5q-37 0 -111 23q-98 31 -123 31q-41 0 -67 -49zM-82 0l744 1366h329l195 -1366h-309l-31 279h-449l-143 -279h-336zM528 530h287l-27 285l-16 207 l-12 -27l-25 -53l-61 -127z" />
<glyph unicode="&#xc4;" horiz-adv-x="1269" d="M936 1473l55 262h273l-56 -262h-272zM512 1473l55 262h275l-58 -262h-272zM-82 0l744 1366h329l195 -1366h-309l-31 279h-449l-143 -279h-336zM528 530h287l-27 285l-16 207l-12 -27l-25 -53l-61 -127z" />
<glyph unicode="&#xc5;" horiz-adv-x="1269" d="M872 1495q-70 0 -114.5 44t-44.5 112q0 92 74.5 165.5t168.5 73.5q70 0 116 -44t46 -111q0 -94 -75 -167t-171 -73zM895 1606q43 0 77 32.5t34 73.5q0 29 -20.5 48.5t-51.5 19.5q-41 0 -75 -33t-34 -72q0 -31 20.5 -50t49.5 -19zM-82 0l744 1366h329l195 -1366h-309 l-31 279h-449l-143 -279h-336zM528 530h287l-27 285l-16 207l-12 -27l-25 -53l-61 -127z" />
<glyph unicode="&#xc6;" horiz-adv-x="1935" d="M-82 0l733 1366h1362l-55 -262h-709l-51 -240h653l-57 -262h-651l-72 -340h737l-55 -262h-1024l66 305h-418l-160 -305h-299zM485 512h353l131 612h-162z" />
<glyph unicode="&#xc7;" horiz-adv-x="1441" d="M117 528q0 293 162 543q215 330 636 330q164 0 289 -57.5t189 -159.5q61 -98 59 -301h-315q0 123 -27 170q-53 102 -211 102q-225 0 -358 -229q-102 -172 -103 -369q0 -160 79 -253t214 -93q236 0 322 272h338q-141 -518 -689 -518q-283 0 -434 145.5t-151 417.5z M555 -68h244l-41 -172q-20 -84 -57 -107.5t-146 -23.5h-72l23 92q14 -2 35 -2q57 0 76.5 11.5t23.5 50.5h-123z" />
<glyph unicode="&#xc8;" horiz-adv-x="1269" d="M735 1495l-196 240h342l67 -240h-213zM41 0l291 1366h1016l-56 -262h-710l-50 -240h654l-58 -262h-653l-72 -340h740l-56 -262h-1046z" />
<glyph unicode="&#xc9;" horiz-adv-x="1269" d="M737 1493l113 242h367l-244 -242h-236zM41 0l291 1366h1016l-56 -262h-710l-50 -240h654l-58 -262h-653l-72 -340h740l-56 -262h-1046z" />
<glyph unicode="&#xca;" horiz-adv-x="1269" d="M526 1495l228 240h344l137 -240h-254l-66 109l-102 -109h-287zM41 0l291 1366h1016l-56 -262h-710l-50 -240h654l-58 -262h-653l-72 -340h740l-56 -262h-1046z" />
<glyph unicode="&#xcb;" horiz-adv-x="1269" d="M942 1473l55 262h273l-56 -262h-272zM518 1473l55 262h275l-57 -262h-273zM41 0l291 1366h1016l-56 -262h-710l-50 -240h654l-58 -262h-653l-72 -340h740l-56 -262h-1046z" />
<glyph unicode="&#xcc;" horiz-adv-x="620" d="M397 1495l-196 240h342l67 -240h-213zM41 0l291 1366h319l-289 -1366h-321z" />
<glyph unicode="&#xcd;" horiz-adv-x="620" d="M399 1493l113 242h367l-244 -242h-236zM41 0l291 1366h319l-289 -1366h-321z" />
<glyph unicode="&#xce;" horiz-adv-x="620" d="M162 1495l227 240h344l137 -240h-254l-65 109l-102 -109h-287zM41 0l291 1366h319l-289 -1366h-321z" />
<glyph unicode="&#xcf;" horiz-adv-x="620" d="M586 1473l55 262h246l-56 -262h-245zM205 1473l55 262h246l-55 -262h-246zM41 0l291 1366h319l-289 -1366h-321z" />
<glyph unicode="&#xd0;" horiz-adv-x="1433" d="M41 0l127 602h-86l57 262h86l107 502h434q317 0 467 -121q174 -139 174 -414q0 -186 -77 -363t-210 -298q-102 -92 -231 -131t-330 -39h-518zM403 262h181q133 0 206.5 27.5t139.5 101.5q76 86 119 201t43 229q0 158 -93 230q-70 53 -249 53h-168l-50 -240h259l-56 -262 h-260z" />
<glyph unicode="&#xd1;" horiz-adv-x="1423" d="M635 1542q27 90 80 140.5t121 50.5q41 0 118 -27q84 -29 113 -29q37 0 68 58l172 -35q-37 -102 -84 -145.5t-125 -43.5q-37 0 -111 23q-98 31 -123 31q-41 0 -67 -49zM41 0l291 1366h307l252 -664q63 -168 76 -227q6 29 6 39q20 133 33 188l141 664h307l-291 -1366h-323 l-275 750q-31 88 -43 147q-4 -84 -22 -174l-152 -723h-307z" />
<glyph unicode="&#xd2;" horiz-adv-x="1591" d="M836 1495l-197 240h342l68 -240h-213zM119 555q0 164 56 328t153 276q203 242 569 242q309 0 477 -157t168 -445q0 -137 -46 -282.5t-124 -258.5q-201 -293 -616 -293q-299 0 -468 157t-169 433zM440 555q0 -160 85 -252t233 -92q252 0 368 217q94 174 95 371 q0 356 -322 356q-227 0 -344 -188q-115 -187 -115 -412z" />
<glyph unicode="&#xd3;" horiz-adv-x="1591" d="M803 1493l112 242h367l-244 -242h-235zM119 555q0 164 56 328t153 276q203 242 569 242q309 0 477 -157t168 -445q0 -137 -46 -282.5t-124 -258.5q-201 -293 -616 -293q-299 0 -468 157t-169 433zM440 555q0 -160 85 -252t233 -92q252 0 368 217q94 174 95 371 q0 356 -322 356q-227 0 -344 -188q-115 -187 -115 -412z" />
<glyph unicode="&#xd4;" horiz-adv-x="1591" d="M633 1495l227 240h344l137 -240h-254l-65 109l-102 -109h-287zM119 555q0 164 56 328t153 276q203 242 569 242q309 0 477 -157t168 -445q0 -137 -46 -282.5t-124 -258.5q-201 -293 -616 -293q-299 0 -468 157t-169 433zM440 555q0 -160 85 -252t233 -92q252 0 368 217 q94 174 95 371q0 356 -322 356q-227 0 -344 -188q-115 -187 -115 -412z" />
<glyph unicode="&#xd5;" horiz-adv-x="1591" d="M666 1542q27 90 80 140.5t120 50.5q41 0 119 -27q84 -29 113 -29q37 0 67 58l172 -35q-37 -102 -84 -145.5t-125 -43.5q-37 0 -110 23q-96 31 -123 31q-41 0 -68 -49zM119 555q0 164 56 328t153 276q203 242 569 242q309 0 477 -157t168 -445q0 -137 -46 -282.5 t-124 -258.5q-201 -293 -616 -293q-299 0 -468 157t-169 433zM440 555q0 -160 85 -252t233 -92q252 0 368 217q94 174 95 371q0 356 -322 356q-227 0 -344 -188q-115 -187 -115 -412z" />
<glyph unicode="&#xd6;" horiz-adv-x="1591" d="M1057 1473l55 262h272l-55 -262h-272zM633 1473l55 262h275l-58 -262h-272zM119 555q0 164 56 328t153 276q203 242 569 242q309 0 477 -157t168 -445q0 -137 -46 -282.5t-124 -258.5q-201 -293 -616 -293q-299 0 -468 157t-169 433zM440 555q0 -160 85 -252t233 -92 q252 0 368 217q94 174 95 371q0 356 -322 356q-227 0 -344 -188q-115 -187 -115 -412z" />
<glyph unicode="&#xd7;" d="M242 322l-109 108l309 307l-305 303l105 105l303 -305l307 309l109 -109l-310 -307l307 -303l-104 -106l-305 307z" />
<glyph unicode="&#xd8;" horiz-adv-x="1591" d="M78 72l135 135q-96 145 -96 350q0 166 55 325.5t154 276.5q201 242 573 242q238 0 412 -109l137 135l133 -133l-135 -133q94 -143 94 -352q0 -305 -170 -551q-203 -293 -614 -293q-242 0 -406 107l-139 -138zM453 442l657 650q-88 63 -213 63q-227 0 -344 -188 q-115 -186 -115 -414q1 -62 15 -111zM553 274q82 -63 207 -63q246 0 364 217q94 172 95 377q0 68 -11 119z" />
<glyph unicode="&#xd9;" horiz-adv-x="1411" d="M780 1495l-196 240h342l67 -240h-213zM287 37q-74 43 -116 122t-42 175q0 68 23 180l180 852h307l-180 -852q-16 -72 -17 -121q0 -82 53.5 -129t143.5 -47q141 0 214 85t120 300l162 764h307l-178 -840q-33 -156 -65 -238.5t-85 -146.5q-143 -176 -477 -176 q-225 0 -350 72z" />
<glyph unicode="&#xda;" horiz-adv-x="1411" d="M801 1493l112 242h367l-244 -242h-235zM287 37q-74 43 -116 122t-42 175q0 68 23 180l180 852h307l-180 -852q-16 -72 -17 -121q0 -82 53.5 -129t143.5 -47q141 0 214 85t120 300l162 764h307l-178 -840q-33 -156 -65 -238.5t-85 -146.5q-143 -176 -477 -176 q-225 0 -350 72z" />
<glyph unicode="&#xdb;" horiz-adv-x="1411" d="M563 1495l228 240h344l137 -240h-254l-66 109l-102 -109h-287zM287 37q-74 43 -116 122t-42 175q0 68 23 180l180 852h307l-180 -852q-16 -72 -17 -121q0 -82 53.5 -129t143.5 -47q141 0 214 85t120 300l162 764h307l-178 -840q-33 -156 -65 -238.5t-85 -146.5 q-143 -176 -477 -176q-225 0 -350 72z" />
<glyph unicode="&#xdc;" horiz-adv-x="1411" d="M993 1473l56 262h272l-55 -262h-273zM569 1473l56 262h274l-57 -262h-273zM287 37q-74 43 -116 122t-42 175q0 68 23 180l180 852h307l-180 -852q-16 -72 -17 -121q0 -82 53.5 -129t143.5 -47q141 0 214 85t120 300l162 764h307l-178 -840q-33 -156 -65 -238.5 t-85 -146.5q-143 -176 -477 -176q-225 0 -350 72z" />
<glyph unicode="&#xdd;" horiz-adv-x="1171" d="M627 1493l112 242h367l-244 -242h-235zM328 0l125 582l-316 784h336l170 -514l330 514h375l-594 -805l-119 -561h-307z" />
<glyph unicode="&#xde;" horiz-adv-x="1253" d="M41 0l291 1366h307l-43 -205h123q172 0 266 -20.5t154 -69.5q111 -94 110 -270q0 -115 -47 -226.5t-125 -183.5q-145 -131 -446 -131h-228l-55 -260h-307zM459 522h149q162 0 238 62q80 63 80 168q0 78 -49.5 112.5t-161.5 34.5h-176z" />
<glyph unicode="&#xdf;" horiz-adv-x="1216" d="M18 0l207 971q49 233 154 323q125 106 340 107q205 0 320.5 -88t115.5 -244q0 -182 -194 -291q156 -84 155 -282q0 -188 -106 -336q-135 -186 -398 -187q-100 0 -213 27l50 231q57 -18 110 -18q115 0 191.5 74.5t76.5 185.5q0 88 -64.5 136t-178.5 48h-25l-20 -2l47 224 q33 -4 65 -5q100 0 159.5 43.5t59.5 114.5q0 59 -43 94t-114 35q-109 0 -154 -69q-20 -29 -28.5 -55.5t-30.5 -133.5l-191 -903h-291z" />
<glyph unicode="&#xe0;" horiz-adv-x="1136" d="M539 1120l-197 266h342l68 -266h-213zM35 256q0 86 42 162t111 119q88 53 279 71l133 15q92 8 128 29.5t36 62.5q0 37 -38 58.5t-103 21.5q-129 0 -170 -103h-303q88 324 495 324q193 0 294 -68.5t101 -195.5q0 -90 -18 -179l-80 -374q-16 -80 -18 -131l-2 -68h-293v90 q-78 -66 -142.5 -91.5t-146.5 -25.5q-133 0 -219 79t-86 204zM336 291q0 -41 31.5 -69.5t78.5 -28.5q82 0 145.5 49t92.5 135l27 80q-72 -16 -123 -23l-90 -12q-162 -22 -162 -131z" />
<glyph unicode="&#xe1;" horiz-adv-x="1136" d="M547 1118l112 268h367l-244 -268h-235zM35 256q0 86 42 162t111 119q88 53 279 71l133 15q92 8 128 29.5t36 62.5q0 37 -38 58.5t-103 21.5q-129 0 -170 -103h-303q88 324 495 324q193 0 294 -68.5t101 -195.5q0 -90 -18 -179l-80 -374q-16 -80 -18 -131l-2 -68h-293v90 q-78 -66 -142.5 -91.5t-146.5 -25.5q-133 0 -219 79t-86 204zM336 291q0 -41 31.5 -69.5t78.5 -28.5q82 0 145.5 49t92.5 135l27 80q-72 -16 -123 -23l-90 -12q-162 -22 -162 -131z" />
<glyph unicode="&#xe2;" horiz-adv-x="1136" d="M344 1120l227 266h344l138 -266h-254l-66 121l-102 -121h-287zM35 256q0 86 42 162t111 119q88 53 279 71l133 15q92 8 128 29.5t36 62.5q0 37 -38 58.5t-103 21.5q-129 0 -170 -103h-303q88 324 495 324q193 0 294 -68.5t101 -195.5q0 -90 -18 -179l-80 -374 q-16 -80 -18 -131l-2 -68h-293v90q-78 -66 -142.5 -91.5t-146.5 -25.5q-133 0 -219 79t-86 204zM336 291q0 -41 31.5 -69.5t78.5 -28.5q82 0 145.5 49t92.5 135l27 80q-72 -16 -123 -23l-90 -12q-162 -22 -162 -131z" />
<glyph unicode="&#xe3;" horiz-adv-x="1136" d="M389 1176q29 100 81 155t122 55q43 0 117 -28q78 -31 112 -31q37 0 68 62l172 -39q-37 -113 -84 -161t-125 -48q-39 0 -111 24q-98 35 -123 35q-41 0 -67 -55zM35 256q0 86 42 162t111 119q88 53 279 71l133 15q92 8 128 29.5t36 62.5q0 37 -38 58.5t-103 21.5 q-129 0 -170 -103h-303q88 324 495 324q193 0 294 -68.5t101 -195.5q0 -90 -18 -179l-80 -374q-16 -80 -18 -131l-2 -68h-293v90q-78 -66 -142.5 -91.5t-146.5 -25.5q-133 0 -219 79t-86 204zM336 291q0 -41 31.5 -69.5t78.5 -28.5q82 0 145.5 49t92.5 135l27 80 q-72 -16 -123 -23l-90 -12q-162 -22 -162 -131z" />
<glyph unicode="&#xe4;" horiz-adv-x="1136" d="M778 1122l56 264h272l-57 -264h-271zM358 1122l56 264h272l-55 -264h-273zM35 256q0 86 42 162t111 119q88 53 279 71l133 15q92 8 128 29.5t36 62.5q0 37 -38 58.5t-103 21.5q-129 0 -170 -103h-303q88 324 495 324q193 0 294 -68.5t101 -195.5q0 -90 -18 -179l-80 -374 q-16 -80 -18 -131l-2 -68h-293v90q-78 -66 -142.5 -91.5t-146.5 -25.5q-133 0 -219 79t-86 204zM336 291q0 -41 31.5 -69.5t78.5 -28.5q82 0 145.5 49t92.5 135l27 80q-72 -16 -123 -23l-90 -12q-162 -22 -162 -131z" />
<glyph unicode="&#xe5;" horiz-adv-x="1136" d="M676 1120q-70 0 -115 44t-45 114q0 92 75 166t169 74q72 0 117 -44t45 -114q0 -94 -75 -167t-171 -73zM698 1231q43 0 77 32.5t34 73.5q0 31 -20.5 50.5t-51.5 19.5q-41 0 -74.5 -33t-33.5 -74q0 -29 20 -49t49 -20zM35 256q0 86 42 162t111 119q88 53 279 71l133 15 q92 8 128 29.5t36 62.5q0 37 -38 58.5t-103 21.5q-129 0 -170 -103h-303q88 324 495 324q193 0 294 -68.5t101 -195.5q0 -90 -18 -179l-80 -374q-16 -80 -18 -131l-2 -68h-293v90q-78 -66 -142.5 -91.5t-146.5 -25.5q-133 0 -219 79t-86 204zM336 291q0 -41 31.5 -69.5 t78.5 -28.5q82 0 145.5 49t92.5 135l27 80q-72 -16 -123 -23l-90 -12q-162 -22 -162 -131z" />
<glyph unicode="&#xe6;" horiz-adv-x="1773" d="M35 256q0 88 41 163t112 118q84 51 279 71l133 15q94 10 130 30.5t36 61.5q0 37 -38 58.5t-103 21.5q-131 0 -172 -103h-303q88 324 497 324q197 0 309 -78q115 80 297 80q207 0 323 -112.5t116 -311.5q0 -86 -21 -182h-717l-2 -35q-4 -82 50.5 -131t144.5 -49 q117 0 174 106h305q-131 -330 -502 -330q-229 0 -336 107q-29 31 -55 74q-100 -98 -189 -139.5t-200 -41.5q-137 0 -223 79t-86 204zM1001 616h408q2 94 -37 137.5t-127 43.5q-183 -1 -244 -181zM336 291q0 -41 31.5 -69.5t78.5 -28.5q82 0 145.5 49t92.5 135l27 80 q-72 -16 -123 -23l-90 -12q-162 -22 -162 -131z" />
<glyph unicode="&#xe7;" horiz-adv-x="1105" d="M61 401q0 113 43 230t117 205q150 180 432 180q195 0 307.5 -96.5t112.5 -264.5v-26h-278q-2 70 -45 108.5t-117 38.5q-113 0 -192 -102.5t-79 -249.5q0 -98 47.5 -154.5t129.5 -56.5q100 0 159 76q23 27 43 88h289q-45 -197 -174 -300.5t-332 -103.5q-207 0 -335 119 t-128 309zM379 -68h244l-41 -192q-20 -92 -57.5 -119t-145.5 -27q-37 0 -72 3l21 100q18 -2 41 -2q53 0 72.5 13t23.5 56h-123z" />
<glyph unicode="&#xe8;" horiz-adv-x="1171" d="M578 1120l-197 266h342l68 -266h-213zM61 401q0 117 42 230.5t114 197.5q164 188 436 189q205 0 321 -113.5t116 -312.5q0 -84 -21 -180h-717l-2 -35q-4 -82 50.5 -131t144.5 -49q119 0 174 106h305q-131 -330 -502 -330q-219 0 -340 112.5t-121 315.5zM399 616h408 q2 94 -38 137.5t-126 43.5q-181 -1 -244 -181z" />
<glyph unicode="&#xe9;" horiz-adv-x="1171" d="M545 1118l112 268h367l-244 -268h-235zM61 401q0 117 42 230.5t114 197.5q164 188 436 189q205 0 321 -113.5t116 -312.5q0 -84 -21 -180h-717l-2 -35q-4 -82 50.5 -131t144.5 -49q119 0 174 106h305q-131 -330 -502 -330q-219 0 -340 112.5t-121 315.5zM399 616h408 q2 94 -38 137.5t-126 43.5q-181 -1 -244 -181z" />
<glyph unicode="&#xea;" horiz-adv-x="1171" d="M348 1120l227 266h345l137 -266h-254l-66 121l-102 -121h-287zM61 401q0 117 42 230.5t114 197.5q164 188 436 189q205 0 321 -113.5t116 -312.5q0 -84 -21 -180h-717l-2 -35q-4 -82 50.5 -131t144.5 -49q119 0 174 106h305q-131 -330 -502 -330q-219 0 -340 112.5 t-121 315.5zM399 616h408q2 94 -38 137.5t-126 43.5q-181 -1 -244 -181z" />
<glyph unicode="&#xeb;" horiz-adv-x="1171" d="M754 1122l55 264h272l-57 -264h-270zM334 1122l55 264h273l-56 -264h-272zM61 401q0 117 42 230.5t114 197.5q164 188 436 189q205 0 321 -113.5t116 -312.5q0 -84 -21 -180h-717l-2 -35q-4 -82 50.5 -131t144.5 -49q119 0 174 106h305q-131 -330 -502 -330 q-219 0 -340 112.5t-121 315.5zM399 616h408q2 94 -38 137.5t-126 43.5q-181 -1 -244 -181z" />
<glyph unicode="&#xec;" horiz-adv-x="546" d="M291 1120l-197 266h342l68 -266h-213zM18 0l211 989h289l-209 -989h-291z" />
<glyph unicode="&#xed;" horiz-adv-x="546" d="M287 1118l112 268h367l-244 -268h-235zM18 0l211 989h289l-209 -989h-291z" />
<glyph unicode="&#xee;" horiz-adv-x="546" d="M41 1120l227 266h344l138 -266h-254l-66 121l-102 -121h-287zM18 0l211 989h289l-209 -989h-291z" />
<glyph unicode="&#xef;" horiz-adv-x="546" d="M469 1122l57 264h244l-55 -264h-246zM92 1122l55 264h246l-55 -264h-246zM18 0l211 989h289l-209 -989h-291z" />
<glyph unicode="&#xf0;" horiz-adv-x="1210" d="M68 432q0 121 45 235.5t120 192.5q160 164 416 164q106 0 199 -29l-25 54q-76 164 -245 264l88 164q244 -100 361.5 -285.5t117.5 -468.5q0 -86 -10 -150q-4 -268 -165 -430.5t-421 -162.5q-225 0 -353 119.5t-128 332.5zM360 420q0 -102 52.5 -160.5t142.5 -58.5 q72 0 133.5 40t95.5 111q57 115 58 232q0 106 -48.5 162.5t-138.5 56.5q-143 0 -229 -141q-66 -109 -66 -242z" />
<glyph unicode="&#xf1;" horiz-adv-x="1142" d="M385 1176q29 100 81 155t122 55q43 0 117 -28q78 -31 112 -31q37 0 68 62l172 -39q-37 -113 -84 -161t-125 -48q-39 0 -111 24q-98 35 -123 35q-41 0 -67 -55zM18 0l211 989h281l-18 -86q129 113 272 113q129 0 204.5 -73t75.5 -195q0 -94 -26 -220l-113 -528h-291 l123 578q12 53 13 90q0 51 -29 79.5t-80 28.5q-168 0 -225 -268l-107 -508h-291z" />
<glyph unicode="&#xf2;" horiz-adv-x="1210" d="M571 1120l-196 266h342l67 -266h-213zM68 424q0 252 165 428q158 164 420 164q229 0 355.5 -120t126.5 -337q0 -111 -43 -224.5t-115 -191.5q-160 -170 -428 -170q-225 0 -353 120t-128 331zM360 412q0 -100 52.5 -158.5t142.5 -58.5q154 0 229 149q57 115 58 231 q0 106 -48.5 163t-138.5 57q-143 0 -229 -142q-66 -108 -66 -241z" />
<glyph unicode="&#xf3;" horiz-adv-x="1210" d="M565 1118l113 268h366l-243 -268h-236zM68 424q0 252 165 428q158 164 420 164q229 0 355.5 -120t126.5 -337q0 -111 -43 -224.5t-115 -191.5q-160 -170 -428 -170q-225 0 -353 120t-128 331zM360 412q0 -100 52.5 -158.5t142.5 -58.5q154 0 229 149q57 115 58 231 q0 106 -48.5 163t-138.5 57q-143 0 -229 -142q-66 -108 -66 -241z" />
<glyph unicode="&#xf4;" horiz-adv-x="1210" d="M362 1120l228 266h344l137 -266h-254l-65 121l-103 -121h-287zM68 424q0 252 165 428q158 164 420 164q229 0 355.5 -120t126.5 -337q0 -111 -43 -224.5t-115 -191.5q-160 -170 -428 -170q-225 0 -353 120t-128 331zM360 412q0 -100 52.5 -158.5t142.5 -58.5 q154 0 229 149q57 115 58 231q0 106 -48.5 163t-138.5 57q-143 0 -229 -142q-66 -108 -66 -241z" />
<glyph unicode="&#xf5;" horiz-adv-x="1210" d="M408 1176q29 100 81 155t121 55q43 0 117 -28q78 -31 113 -31q37 0 67 62l172 -39q-37 -113 -85 -161t-124 -48q-39 0 -110 24q-98 35 -123 35q-39 0 -68 -55zM68 424q0 252 165 428q158 164 420 164q229 0 355.5 -120t126.5 -337q0 -111 -43 -224.5t-115 -191.5 q-160 -170 -428 -170q-225 0 -353 120t-128 331zM360 412q0 -100 52.5 -158.5t142.5 -58.5q154 0 229 149q57 115 58 231q0 106 -48.5 163t-138.5 57q-143 0 -229 -142q-66 -108 -66 -241z" />
<glyph unicode="&#xf6;" horiz-adv-x="1210" d="M762 1122l55 264h273l-58 -264h-270zM342 1122l55 264h273l-56 -264h-272zM68 424q0 252 165 428q158 164 420 164q229 0 355.5 -120t126.5 -337q0 -111 -43 -224.5t-115 -191.5q-160 -170 -428 -170q-225 0 -353 120t-128 331zM360 412q0 -100 52.5 -158.5t142.5 -58.5 q154 0 229 149q57 115 58 231q0 106 -48.5 163t-138.5 57q-143 0 -229 -142q-66 -108 -66 -241z" />
<glyph unicode="&#xf7;" d="M547 971q-47 0 -82 33.5t-35 80.5q0 49 34 83t83 34q47 0 81 -33.5t34 -81t-34 -82t-81 -34.5zM53 659v150h985v-150h-985zM430 383q0 47 34 81t83 34q47 0 81 -34t34 -81t-34 -82t-81 -35t-82 35t-35 82z" />
<glyph unicode="&#xf8;" horiz-adv-x="1210" d="M8 57l123 113q-63 111 -63 254q0 121 45 235.5t120 192.5q158 164 420 164q199 0 320 -90l129 116l90 -102l-127 -113q70 -104 70 -262q0 -117 -43 -230.5t-115 -191.5q-160 -170 -428 -170q-197 0 -326 95l-125 -111zM362 377l416 375q-43 43 -125 43q-143 0 -227 -142 q-66 -115 -66 -239q0 -23 2 -37zM420 246q55 -51 135 -51q72 0 133.5 39.5t95.5 109.5q57 119 58 234q0 25 -4 45z" />
<glyph unicode="&#xf9;" horiz-adv-x="1159" d="M584 1120l-197 266h342l68 -266h-213zM86 231q0 90 33 240l110 518h291l-125 -586q-12 -55 -12 -90q0 -100 119 -100q90 0 146.5 67.5t86.5 213.5l107 495h288l-208 -989h-291l18 90q-68 -66 -126 -91.5t-144 -25.5q-137 0 -215 68.5t-78 189.5z" />
<glyph unicode="&#xfa;" horiz-adv-x="1159" d="M586 1118l112 268h367l-244 -268h-235zM86 231q0 90 33 240l110 518h291l-125 -586q-12 -55 -12 -90q0 -100 119 -100q90 0 146.5 67.5t86.5 213.5l107 495h288l-208 -989h-291l18 90q-68 -66 -126 -91.5t-144 -25.5q-137 0 -215 68.5t-78 189.5z" />
<glyph unicode="&#xfb;" horiz-adv-x="1159" d="M348 1120l227 266h345l137 -266h-254l-66 121l-102 -121h-287zM86 231q0 90 33 240l110 518h291l-125 -586q-12 -55 -12 -90q0 -100 119 -100q90 0 146.5 67.5t86.5 213.5l107 495h288l-208 -989h-291l18 90q-68 -66 -126 -91.5t-144 -25.5q-137 0 -215 68.5t-78 189.5z " />
<glyph unicode="&#xfc;" horiz-adv-x="1159" d="M782 1122l56 264h272l-57 -264h-271zM362 1122l56 264h272l-55 -264h-273zM86 231q0 90 33 240l110 518h291l-125 -586q-12 -55 -12 -90q0 -100 119 -100q90 0 146.5 67.5t86.5 213.5l107 495h288l-208 -989h-291l18 90q-68 -66 -126 -91.5t-144 -25.5q-137 0 -215 68.5 t-78 189.5z" />
<glyph unicode="&#xfd;" horiz-adv-x="1003" d="M489 1118l113 268h367l-244 -268h-236zM4 -82h66q66 0 93 14.5t56 65.5l25 43l-170 948h309l43 -385l23 -233q14 37 100 202l215 416h321l-606 -1065q-76 -137 -131 -184q-61 -53 -244 -53h-149z" />
<glyph unicode="&#xfe;" horiz-adv-x="1206" d="M332 102l-103 -485h-290l370 1749h291l-96 -451q129 102 270 103q166 0 262.5 -107.5t96.5 -294.5q0 -213 -105 -395q-66 -117 -176.5 -182.5t-241.5 -65.5q-82 0 -144 28.5t-134 100.5zM391 397q0 -88 41 -136t119 -48q150 0 223 154q55 117 55 223q0 90 -43 139 t-122 49q-115 0 -194 -110.5t-79 -270.5z" />
<glyph unicode="&#xff;" horiz-adv-x="1003" d="M672 1122l55 264h272l-57 -264h-270zM252 1122l55 264h273l-56 -264h-272zM4 -82h66q66 0 93 14.5t56 65.5l25 43l-170 948h309l43 -385l23 -233q14 37 100 202l215 416h321l-606 -1065q-76 -137 -131 -184q-61 -53 -244 -53h-149z" />
<glyph unicode="&#x152;" horiz-adv-x="2230" d="M119 555q0 166 56 327.5t153 276.5q201 242 571 242q225 0 377 -117l16 82h1016l-55 -262h-709l-51 -240h653l-57 -262h-651l-72 -340h737l-55 -262h-1047l11 47q-80 -41 -140.5 -55.5t-160.5 -14.5q-276 0 -434 155t-158 423zM440 555q0 -160 85 -252t233 -92 q205 0 319 145l127 592q-59 207 -305 207q-227 0 -344 -188q-115 -187 -115 -412z" />
<glyph unicode="&#x153;" horiz-adv-x="1935" d="M68 426q0 121 44 234.5t121 193.5q158 162 422 162q244 0 373 -139q160 141 391 141q205 0 320.5 -112.5t115.5 -311.5q0 -86 -20 -182h-717q-2 -14 -2 -35q0 -82 52.5 -131t142.5 -49q119 0 172 106h307q-135 -330 -504 -330q-238 0 -354 127q-152 -127 -383 -127 q-225 0 -353 121t-128 332zM1163 616h410v31q0 70 -43 110t-121 40q-183 -1 -246 -181zM360 414q0 -100 52.5 -158.5t142.5 -58.5q154 0 229 149q57 115 58 232q0 104 -48.5 160.5t-138.5 56.5q-143 0 -229 -142q-66 -106 -66 -239z" />
<glyph unicode="&#x178;" horiz-adv-x="1171" d="M852 1473l55 262h273l-56 -262h-272zM428 1473l55 262h275l-58 -262h-272zM328 0l125 582l-316 784h336l170 -514l330 514h375l-594 -805l-119 -561h-307z" />
<glyph unicode="&#x2c6;" d="M240 1120l227 266h344l137 -266h-254l-65 121l-103 -121h-286z" />
<glyph unicode="&#x2dc;" d="M258 1176q29 100 81 155t122 55q43 0 117 -28q78 -31 112 -31q37 0 68 62l172 -39q-37 -113 -84 -161t-125 -48q-39 0 -111 24q-98 35 -123 35q-41 0 -67 -55z" />
<glyph unicode="&#x2000;" horiz-adv-x="945" />
<glyph unicode="&#x2001;" horiz-adv-x="1890" />
<glyph unicode="&#x2002;" horiz-adv-x="945" />
<glyph unicode="&#x2003;" horiz-adv-x="1890" />
<glyph unicode="&#x2004;" horiz-adv-x="630" />
<glyph unicode="&#x2005;" horiz-adv-x="472" />
<glyph unicode="&#x2006;" horiz-adv-x="315" />
<glyph unicode="&#x2007;" horiz-adv-x="315" />
<glyph unicode="&#x2008;" horiz-adv-x="236" />
<glyph unicode="&#x2009;" horiz-adv-x="378" />
<glyph unicode="&#x200a;" horiz-adv-x="105" />
<glyph unicode="&#x2010;" horiz-adv-x="540" d="M-25 399l52 240h540l-51 -240h-541z" />
<glyph unicode="&#x2011;" horiz-adv-x="540" d="M-25 399l52 240h540l-51 -240h-541z" />
<glyph unicode="&#x2012;" horiz-adv-x="540" d="M-25 399l52 240h540l-51 -240h-541z" />
<glyph unicode="&#x2013;" horiz-adv-x="1146" d="M43 399l51 240h1010l-51 -240h-1010z" />
<glyph unicode="&#x2014;" horiz-adv-x="1460" d="M-25 399l52 240h1460l-51 -240h-1461z" />
<glyph unicode="&#x2018;" horiz-adv-x="538" d="M174 758l51 246q39 186 127 272t244 90l-27 -131q-72 -10 -113.5 -54t-68.5 -137h141l-61 -286h-293z" />
<glyph unicode="&#x2019;" horiz-adv-x="538" d="M174 758l29 131q70 8 111.5 53t70.5 137h-143l61 287h293l-51 -246q-39 -184 -127 -271t-244 -91z" />
<glyph unicode="&#x201a;" horiz-adv-x="538" d="M12 0l62 287h293l-52 -246q-39 -184 -127 -271t-243 -92l28 132q70 8 112 53t71 137h-144z" />
<glyph unicode="&#x201c;" horiz-adv-x="931" d="M567 758l51 246q39 186 127.5 272t243.5 90l-26 -131q-72 -10 -114 -53t-69 -138h142l-62 -286h-293zM174 758l51 246q39 186 127 272t244 90l-27 -131q-74 -10 -113.5 -52t-68.5 -139h141l-61 -286h-293z" />
<glyph unicode="&#x201d;" horiz-adv-x="931" d="M567 758l27 131q74 10 114 52t68 138h-141l61 287h293l-51 -246q-39 -184 -127 -271t-244 -91zM174 758l29 131q70 8 111.5 53t70.5 137h-143l61 287h293l-51 -246q-39 -184 -127 -271t-244 -91z" />
<glyph unicode="&#x201e;" horiz-adv-x="931" d="M406 0l61 287h293l-51 -246q-39 -184 -127 -271t-244 -92l27 132q74 10 113.5 52t68.5 138h-141zM12 0l62 287h293l-52 -246q-39 -184 -127 -271t-243 -92l28 132q70 8 112 53t71 137h-144z" />
<glyph unicode="&#x2022;" horiz-adv-x="1366" d="M436 692q0 119 84 202t205 83q113 0 196 -84t83 -199q0 -119 -83 -201.5t-200 -82.5t-201 82.5t-84 199.5z" />
<glyph unicode="&#x2026;" horiz-adv-x="1650" d="M1118 -2l62 287h293l-60 -287h-295zM569 -2l60 287h295l-62 -287h-293zM18 -2l62 287h293l-62 -287h-293z" />
<glyph unicode="&#x202f;" horiz-adv-x="378" />
<glyph unicode="&#x2039;" horiz-adv-x="546" d="M344 111l-287 260l68 313l393 244l-65 -307l-207 -129l151 -136z" />
<glyph unicode="&#x203a;" horiz-adv-x="546" d="M31 111l65 307l207 129l-151 135l53 246l287 -260l-66 -314z" />
<glyph unicode="&#x205f;" horiz-adv-x="472" />
<glyph unicode="&#x20ac;" horiz-adv-x="1568" d="M100 496l90 139h117q2 16 19 94h-174l88 139h133q106 248 312 388.5t460 140.5q229 0 391 -131l-190 -295q-35 88 -95.5 127t-158.5 39q-127 0 -231.5 -72t-162.5 -197h584l-90 -139h-545q-16 -74 -18 -94h504l-91 -139h-421q8 -127 79.5 -197t196.5 -70q186 0 328 170 l-78 -370q-158 -59 -305 -60q-254 0 -400.5 141.5t-146.5 385.5h-195z" />
<glyph unicode="&#x2122;" horiz-adv-x="1861" d="M852 547l174 819h256l61 -403q2 -6 7 -54l10 -96l20 41l25 47l27 47l231 418h272l-170 -819h-213l95 434l10 33l2 8l-23 -43l-237 -432h-187l-57 422l-4 32v5l-92 -459h-207zM276 547l138 651h-248l37 168h698l-35 -168h-237l-137 -651h-216z" />
<glyph unicode="&#xe000;" horiz-adv-x="990" d="M0 990h990v-990h-990v990z" />
<glyph unicode="&#xfb01;" horiz-adv-x="1165" d="M47 0l164 770h-125l47 219h125l23 113q35 172 125 233q53 37 198 37h51l127 -6l-51 -233l-41 2l-31 2q-47 2 -67.5 -15.5t-30.5 -68.5l-14 -64h155l-47 -219h-153l-164 -770h-291zM874 1120l52 246h291l-52 -246h-291zM637 0l209 989h291l-211 -989h-289z" />
<glyph unicode="&#xfb02;" horiz-adv-x="1165" d="M47 0l164 770h-125l47 219h125l23 113q35 172 125 233q53 37 198 37h51l127 -6l-51 -233l-41 2l-31 2q-47 2 -67.5 -15.5t-30.5 -68.5l-14 -64h155l-47 -219h-153l-164 -770h-291zM637 0l289 1366h291l-291 -1366h-289z" />
<glyph unicode="&#xfb03;" horiz-adv-x="1782" d="M1492 1120l53 246h289l-51 -246h-291zM1254 0l211 989h289l-209 -989h-291zM665 0l164 770h-125l47 219h125l23 113q35 172 125 233q53 37 198 37h51l127 -6l-51 -233l-41 2l-31 2h-9q-40 0 -58 -16q-20 -17 -31 -68l-14 -64h155l-47 -219h-153l-164 -770h-291zM47 0 l164 770h-125l47 219h125l23 113q35 172 125 233q53 37 198 37h51l127 -6l-51 -233l-41 2l-31 2h-9q-40 0 -58 -16q-20 -17 -31 -68l-14 -64h155l-47 -219h-153l-164 -770h-291z" />
<glyph unicode="&#xfb04;" horiz-adv-x="1782" d="M1254 0l291 1366h289l-289 -1366h-291zM665 0l164 770h-125l47 219h125l23 113q35 172 125 233q53 37 198 37h51l127 -6l-51 -233l-41 2l-31 2h-9q-40 0 -58 -16q-20 -17 -31 -68l-14 -64h155l-47 -219h-153l-164 -770h-291zM47 0l164 770h-125l47 219h125l23 113 q35 172 125 233q53 37 198 37h51l127 -6l-51 -233l-41 2l-31 2h-9q-40 0 -58 -16q-20 -17 -31 -68l-14 -64h155l-47 -219h-153l-164 -770h-291z" />
</font>
</defs>
</svg>
