<?xml version="1.0" standalone="no"?>
<!DOCTYPE svg PUBLIC "-//W3C//DTD SVG 1.1//EN" "http://www.w3.org/Graphics/SVG/1.1/DTD/svg11.dtd" >
<svg xmlns="http://www.w3.org/2000/svg">
<metadata>
This is a custom SVG webfont generated by Fontspring.
</metadata>
<defs>
<font id="webfontcXUvODRq" horiz-adv-x="956" >
<font-face units-per-em="2048" ascent="1690" descent="-358" />
<missing-glyph horiz-adv-x="512" />
<glyph unicode=" "  horiz-adv-x="512" />
<glyph unicode="&#x09;" horiz-adv-x="512" />
<glyph unicode="&#xa0;" horiz-adv-x="512" />
<glyph unicode="!" horiz-adv-x="544" d="M262 330l55 626l58 410h106l-51 -410l-127 -626h-41zM156 0l39 186h159l-41 -186h-157z" />
<glyph unicode="&#x22;" horiz-adv-x="573" d="M455 901l80 465h114l-117 -465h-77zM201 901l80 465h114l-116 -465h-78z" />
<glyph unicode="#" horiz-adv-x="1024" d="M127 0l125 420h-160l29 98h162l98 330h-162l31 98h160l125 420h106l-125 -420h217l125 420h109l-127 -420h157l-28 -98h-158l-98 -330h159l-28 -98h-160l-125 -420h-106l125 420h-220l-125 -420h-106zM387 518h219l99 330h-220z" />
<glyph unicode="$" d="M80 303q0 55 12 154h98q-10 -92 -10 -138q0 -203 154 -243l121 573l-52 33q-86 53 -122 98q-66 82 -66 180.5t45 195.5t115 149q84 61 233 67l35 164h80l-35 -164q115 -23 168 -91.5t53 -193.5q0 -55 -10 -149h-96q12 92 12 154q0 174 -143 196l-123 -575 q143 -88 188 -133q80 -80 80 -211q0 -100 -51 -190.5t-135 -137.5t-236 -53l-37 -168h-79l36 174q-111 20 -173 102t-62 207zM475 748l117 548q-78 -4 -123 -28.5t-86 -83.5q-66 -94 -66 -211q0 -92 52 -144q26 -26 106 -81zM412 68q127 2 198 57q45 37 75 107.5t30 140.5 q0 72 -40 125t-147 118z" />
<glyph unicode="%" horiz-adv-x="972" d="M317 795q-139 0 -139 159q0 57 20.5 153.5t45.5 149.5q49 115 159 115q63 0 100.5 -39t37.5 -108q0 -68 -23.5 -174.5t-50.5 -157.5q-54 -98 -150 -98zM106 0l760 1366h80l-760 -1366h-80zM319 850q70 0 109 115q16 49 32.5 135t16.5 127t-20.5 65.5t-55.5 24.5 q-70 0 -106 -111q-51 -145 -51 -254q-1 -102 75 -102zM500 147q0 57 20.5 153.5t44.5 150.5q49 115 160 114q63 0 100 -39t37 -108q0 -68 -23.5 -173.5t-50.5 -156.5q-51 -98 -149 -98q-139 -1 -139 157zM565 147q0 -102 76 -102q70 0 109 115q16 47 32.5 134t16.5 126 q0 41 -20.5 65.5t-55.5 24.5q-70 0 -107 -111q-51 -146 -51 -252z" />
<glyph unicode="&#x26;" horiz-adv-x="1091" d="M72 336q0 133 75.5 232.5t251.5 199.5q-96 162 -96 301q0 131 76 214t194 83q113 0 183.5 -74.5t70.5 -189.5q0 -135 -108 -228q-39 -35 -197 -124l250 -467q72 104 125 290h100q-55 -201 -180 -374l109 -199h-107l-71 133q-172 -160 -330 -160q-152 0 -249 102.5 t-97 260.5zM481 815q4 4 19 10q63 35 82 47q88 57 118.5 104.5t30.5 125.5q0 80 -45 131t-117 51q-76 0 -122 -58.5t-46 -152.5q0 -123 80 -258zM170 354q0 -123 76 -208t184 -85q129 0 277 146l-269 493q-150 -90 -209 -166t-59 -180z" />
<glyph unicode="'" horiz-adv-x="313" d="M184 854l88 512h127l-131 -512h-84z" />
<glyph unicode="(" horiz-adv-x="573" d="M268 -240q-90 182 -127 325.5t-37 307.5q0 311 150 606q100 195 293 387h84q-205 -209 -307 -477q-109 -287 -109 -575q0 -287 123 -574h-70z" />
<glyph unicode=")" horiz-adv-x="573" d="M-33 -240q205 209 307 478q109 287 109 575q0 287 -123 573h70q90 -182 127 -325t37 -307q0 -311 -150 -607q-51 -104 -116.5 -190t-174.5 -197h-86z" />
<glyph unicode="*" horiz-adv-x="792" d="M328 872l-52 56l195 159l-223 121l37 66l215 -133l45 248l71 -17l-57 -244l248 35l6 -76l-248 -18l107 -225l-68 -31l-94 231z" />
<glyph unicode="+" d="M377 279l78 362h-326l18 86h326l74 352h100l-76 -352h328l-18 -86h-328l-78 -362h-98z" />
<glyph unicode="," horiz-adv-x="356" d="M10 0l35 158h117l-43 -193q-27 -119 -63 -167t-115 -68l14 67q45 14 64.5 47t39.5 121l9 35h-58z" />
<glyph unicode="-" horiz-adv-x="374" d="M-2 496l20 94h373l-20 -94h-373z" />
<glyph unicode="." horiz-adv-x="356" d="M10 0l37 168h115l-35 -168h-117z" />
<glyph unicode="/" horiz-adv-x="722" d="M-20 -240h-91l813 1626h86z" />
<glyph unicode="0" d="M188 70q-70 90 -69 278q0 139 48 382t101 372q59 145 142.5 211.5t203.5 66.5q139 0 217 -91t78 -255q0 -168 -54 -434t-114 -389q-113 -238 -327 -238q-150 1 -226 97zM268 131q53 -74 152 -74q182 0 276 310q39 127 77 347t38 322q0 119 -54.5 188.5t-146.5 69.5 q-96 0 -158.5 -68.5t-115.5 -230.5q-43 -133 -80 -338.5t-37 -312.5q0 -141 49 -213z" />
<glyph unicode="1" d="M373 0l237 1112q-141 -55 -266 -55h-43l16 78q139 2 221.5 56t125.5 175h96l-291 -1366h-96z" />
<glyph unicode="2" d="M33 0q39 227 133 350t336 264q158 90 221 154q102 102 102 272q0 119 -60 188.5t-163 69.5q-115 0 -184.5 -93t-83.5 -269h-103q29 233 119 340.5t254 107.5q152 0 238 -94t86 -260q0 -182 -107 -301q-49 -51 -98 -88t-172 -106q-195 -113 -284 -211.5t-111 -235.5h598 l-19 -88h-702z" />
<glyph unicode="3" d="M90 330q0 20 4 94h101q-4 -61 -5 -80q0 -133 63.5 -210t176.5 -77q123 0 203 104.5t80 264.5q0 121 -65.5 178.5t-207.5 61.5l17 82q25 -2 61 -3q131 0 207 80q86 92 86 234q0 106 -57.5 171.5t-151.5 65.5q-113 0 -180 -98q-41 -66 -70 -186h-98q45 186 106 258 q96 115 246 114q139 0 221 -85t82 -232q0 -137 -71 -246q-53 -78 -195 -127q45 -20 68.5 -39.5t46.5 -56.5q57 -84 57 -195q0 -195 -131 -329q-96 -100 -248 -101q-154 0 -250 99.5t-96 257.5z" />
<glyph unicode="4" d="M57 350l19 88l731 928h96l-196 -928h129l-19 -88h-129l-76 -350h-96l76 350h-535zM178 438h432l160 748z" />
<glyph unicode="5" d="M111 276q0 37 6 93h96q-6 -45 -6 -78q0 -102 60.5 -169t154.5 -67q137 0 215 123q96 145 96 340q0 133 -57.5 209t-157.5 76q-70 0 -126 -34t-120 -116h-94l211 713h549l-20 -88h-465l-150 -490q119 92 229 93q135 0 218.5 -101.5t83.5 -265.5q0 -244 -136 -414 q-104 -127 -278 -127q-135 0 -222 85t-87 218z" />
<glyph unicode="6" d="M123 365q0 160 42 370.5t99 343.5q70 160 159 232.5t210 72.5q131 0 209 -82.5t78 -224.5q0 -33 -2 -57h-99q4 45 4 53q0 104 -52 164.5t-142 60.5q-170 0 -271 -243q-45 -102 -92 -314q68 63 103 88q74 51 168 52q139 0 221 -101.5t82 -271.5q0 -229 -113 -382 t-281 -153q-152 0 -237.5 104t-85.5 288zM219 356q0 -141 59.5 -220t165.5 -79q115 0 189 101q104 147 104 352q0 137 -59.5 214t-161.5 77q-129 0 -205 -119q-92 -144 -92 -326z" />
<glyph unicode="7" d="M248 0q70 365 236.5 696.5t406.5 581.5h-596l20 88h691l-21 -88q-510 -563 -629 -1278h-108z" />
<glyph unicode="8" d="M104 334q0 203 117 332q59 66 164 92q-121 86 -121 254q0 156 94 266q88 106 244 106q74 0 139.5 -28.5t102.5 -75.5q59 -80 59 -217q0 -258 -213 -356q76 -51 103.5 -107.5t27.5 -159.5q0 -213 -103.5 -340t-277.5 -127q-164 0 -250 92.5t-86 268.5zM565 772 q104 0 171 83t67 212q0 104 -54.5 167.5t-144.5 63.5q-100 0 -165.5 -87t-65.5 -220q0 -104 50 -161.5t142 -57.5zM207 328q0 -127 61.5 -200t167.5 -73q121 0 202 118t81 294q0 109 -62.5 169t-175.5 60q-127 0 -196 -98q-78 -114 -78 -270z" />
<glyph unicode="9" d="M104 258q0 35 2 57h95q-2 -18 -2 -47q0 -98 51 -154.5t143 -56.5q141 0 230 156q98 176 135 418q-63 -88 -127 -126t-148 -38q-135 0 -216 100.5t-81 266.5q0 240 113 395t287 155q147 0 232 -106.5t85 -288.5q0 -178 -51 -405.5t-123 -374.5q-119 -236 -342 -236 q-129 0 -206 77t-77 208zM510 547q121 0 208 133t87 319q0 137 -59.5 217t-161.5 80q-125 0 -199 -116q-96 -156 -96 -342q0 -137 58.5 -214t162.5 -77z" />
<glyph unicode=":" horiz-adv-x="382" d="M219 844l37 168h115l-37 -168h-115zM39 0l37 168h114l-34 -168h-117z" />
<glyph unicode=";" horiz-adv-x="382" d="M213 844l37 168h115l-35 -168h-117zM37 0l35 158h116l-43 -193q-27 -119 -62.5 -167t-115.5 -68l15 67q45 14 64.5 47t39.5 121l8 35h-57z" />
<glyph unicode="&#x3c;" horiz-adv-x="1024" d="M68 637v92l886 399v-102l-776 -344l776 -344v-102z" />
<glyph unicode="=" d="M174 766l19 86h710l-18 -86h-711zM123 520l18 86h711l-18 -86h-711z" />
<glyph unicode="&#x3e;" horiz-adv-x="1024" d="M137 236v102l776 344l-776 344v102l887 -399v-92z" />
<glyph unicode="?" horiz-adv-x="854" d="M313 330q29 201 89.5 290t252.5 218q131 86 131 239q0 102 -59 165t-156 63q-106 0 -165.5 -70t-83.5 -223h-95q25 172 90 260q94 121 254 121q143 0 231.5 -87t88.5 -231q0 -113 -54.5 -190.5t-195.5 -169.5q-121 -80 -167 -156t-64 -229h-97zM219 0l41 186h158 l-39 -186h-160z" />
<glyph unicode="@" horiz-adv-x="1320" d="M309 223q109 -182 348 -182q184 0 357 86l18 -76q-182 -94 -387 -94q-240 0 -382 164t-142 438q0 330 204.5 575.5t481.5 245.5q213 0 349 -146.5t136 -377.5q0 -213 -116.5 -388t-260.5 -175q-61 0 -88 55q-10 25 -16 78q-102 -141 -217 -141q-82 0 -132 70.5t-50 185.5 q0 182 105.5 326.5t238.5 144.5q59 0 95 -36t58 -120l41 131h90l-127 -422q-27 -90 -26 -116q0 -74 45 -74q96 0 180 151.5t84 327.5q0 197 -109.5 319.5t-287.5 122.5q-231 0 -403.5 -219t-172.5 -516q0 -193 86 -338zM622.5 373q51.5 0 97.5 42t79 117q59 135 59 263 q0 55 -27.5 91t-70.5 40q-88 6 -168 -116t-80 -261q0 -84 29.5 -130t81 -46z" />
<glyph unicode="A" horiz-adv-x="958" d="M41 0h-113l662 1366h125l110 -1366h-102l-29 410h-461zM274 498h416l-53 792z" />
<glyph unicode="B" horiz-adv-x="976" d="M39 0l291 1366h237q168 0 246 -41q143 -78 143 -276q0 -139 -68.5 -227.5t-197.5 -110.5q174 -63 174 -279q0 -164 -71.5 -275.5t-196.5 -140.5q-70 -16 -260 -16h-297zM305 766h119q158 0 200 4t81 21q72 29 111.5 96t39.5 157q0 176 -145 218q-61 16 -189 16h-108z M160 88h141q150 0 194 4t85 19q84 29 133 114.5t49 204.5q0 168 -107 215q-78 33 -274 33h-96z" />
<glyph unicode="C" horiz-adv-x="989" d="M111 381q0 199 52 423t132 372q125 225 360 225q168 0 260.5 -97.5t92.5 -273.5q0 -31 -4 -125h-107q4 82 4 111q0 145 -64.5 222t-185.5 77q-190 0 -291 -230q-63 -143 -105 -346.5t-42 -363.5q0 -156 63.5 -240t182.5 -84q252 0 346 406h100q-57 -293 -219 -422 q-84 -70 -258 -70q-150 0 -233.5 110.5t-83.5 305.5z" />
<glyph unicode="D" horiz-adv-x="1071" d="M39 0l291 1366h225q82 0 171 -17.5t134 -43.5q158 -84 158 -379q0 -225 -56.5 -435t-146.5 -323q-78 -96 -175 -132t-282 -36h-319zM160 88h157q141 0 196.5 8t104.5 35q143 76 218 303q80 244 79 500q0 193 -83.5 268.5t-294.5 75.5h-123z" />
<glyph unicode="E" horiz-adv-x="890" d="M39 0l291 1366h600l-21 -88h-495l-111 -522h496l-19 -88h-497l-123 -580h551l-19 -88h-653z" />
<glyph unicode="F" horiz-adv-x="763" d="M18 0l291 1366h572l-19 -88h-469l-112 -528h469l-19 -88h-469l-141 -662h-103z" />
<glyph unicode="G" horiz-adv-x="1071" d="M115 385q0 311 116 645q68 193 170.5 282t260.5 89q172 0 263 -99q87 -95 87 -270v-16l-2 -80h-101q2 29 2 72q0 307 -249 307q-119 0 -199 -78t-137 -250q-111 -332 -111 -620q0 -152 67.5 -234t192.5 -82q158 0 266 180q76 121 121 344h-330l19 89h434l-141 -664h-103 l33 156q-72 -102 -144.5 -146.5t-168.5 -44.5q-166 0 -256 109.5t-90 310.5z" />
<glyph unicode="H" horiz-adv-x="1081" d="M39 0l291 1366h102l-125 -588h578l125 588h102l-291 -1366h-102l147 690h-577l-148 -690h-102z" />
<glyph unicode="I" horiz-adv-x="428" d="M53 0l291 1366h102l-290 -1366h-103z" />
<glyph unicode="J" horiz-adv-x="778" d="M14 260q0 63 17 162h98q-18 -127 -18 -184q0 -86 46 -134.5t126 -48.5q119 0 172 111q29 55 53 180l215 1020h102l-217 -1024q-37 -178 -78 -246q-78 -125 -243 -125q-273 0 -273 289z" />
<glyph unicode="K" horiz-adv-x="991" d="M39 0l291 1366h102l-139 -655l663 655h136l-547 -530l299 -836h-109l-268 754l-209 -201l-117 -553h-102z" />
<glyph unicode="L" horiz-adv-x="858" d="M39 0l291 1366h102l-272 -1278h551l-19 -88h-653z" />
<glyph unicode="M" horiz-adv-x="1366" d="M39 0l291 1366h176l110 -1182l596 1182h187l-291 -1366h-102l272 1284l-647 -1284h-99l-118 1284l-273 -1284h-102z" />
<glyph unicode="N" horiz-adv-x="1085" d="M39 0l291 1366h166l249 -1266l271 1266h102l-291 -1366h-161l-254 1270l-271 -1270h-102z" />
<glyph unicode="O" horiz-adv-x="1071" d="M209 72q-92 106 -92 319q0 162 41 358.5t104 346.5q68 158 164 231.5t236 73.5q365 0 364 -434q0 -170 -44 -376t-112 -349q-127 -276 -389 -277q-178 1 -272 107zM217 389q0 -166 65.5 -252t192.5 -86q109 0 184.5 62.5t131.5 199.5q57 139 96 332t39 336 q0 334 -262 334q-113 0 -188 -68.5t-134 -222.5q-51 -135 -88 -321.5t-37 -313.5z" />
<glyph unicode="P" horiz-adv-x="970" d="M39 0l291 1366h243q172 0 265 -39q72 -29 114.5 -114t42.5 -199.5t-44 -209.5t-120 -149q-109 -78 -317 -77q-12 0 -127 4q-10 0 -121 4l-125 -586h-102zM285 670q135 -6 204 -6q190 0 281 65q121 92 121 285q0 201 -154 250q-57 18 -237 18h-86z" />
<glyph unicode="Q" horiz-adv-x="1062" d="M227 53q-111 98 -110 322q0 174 43 385t108 354q133 287 389 287q188 0 279.5 -107.5t91.5 -328.5q0 -256 -90 -559q-31 -102 -58.5 -162t-80.5 -133l106 -105l-57 -65l-111 108q-115 -84 -256 -84q-158 0 -254 88zM219 375q0 -324 268 -324q98 0 187 62l-164 159l57 62 l160 -156q86 141 135 330q66 256 66 465q0 342 -264 342q-113 0 -188 -68.5t-134 -222.5q-53 -147 -88 -327.5t-35 -321.5z" />
<glyph unicode="R" horiz-adv-x="1067" d="M53 0l277 1366h272q147 0 250 -33q84 -29 130 -107.5t46 -191.5q0 -100 -38 -185t-101 -124q-31 -18 -119 -55q68 -33 96.5 -84t28.5 -140q0 -63 -49 -337l-2 -31q-2 -25 24 -78h-114q-16 47 -17 74q0 35 21 145q31 158 30 227q0 117 -75 162q-51 31 -230 31h-198 l-127 -639h-105zM303 723l180 -2h15q214 0 313 57q119 70 119 248q0 188 -156 234q-76 20 -274 20h-86z" />
<glyph unicode="S" horiz-adv-x="962" d="M55 336q0 45 2 76h101q-2 -25 -2 -60q0 -147 70.5 -224t207.5 -77q135 0 222 92.5t87 235.5q0 111 -57 172q-25 27 -55.5 43t-132.5 57q-168 66 -230.5 136.5t-62.5 195.5q0 182 107.5 297t275.5 115q164 0 259 -91.5t95 -248.5q0 -27 -2 -43h-100q2 16 2 37 q0 121 -67.5 190.5t-184.5 69.5q-123 0 -204 -89.5t-81 -226.5q0 -94 50.5 -146t195.5 -110q170 -66 232.5 -138.5t62.5 -201.5q0 -195 -131 -321q-113 -111 -285 -111q-176 0 -275.5 98.5t-99.5 272.5z" />
<glyph unicode="T" horiz-adv-x="835" d="M285 0l270 1278h-350l18 88h752l-19 -88h-299l-270 -1278h-102z" />
<glyph unicode="U" horiz-adv-x="1048" d="M279 117q72 -66 186 -66q172 0 256 148q35 63 70 219l200 948h103l-205 -971q-39 -188 -90 -266q-104 -164 -332 -164q-166 0 -263.5 87t-97.5 237q0 100 31 248l176 829h103l-187 -881q-20 -102 -20 -172q0 -133 70 -196z" />
<glyph unicode="V" horiz-adv-x="989" d="M332 0l-113 1366h100l99 -1229l592 1229h108l-659 -1366h-127z" />
<glyph unicode="W" horiz-adv-x="1433" d="M322 0l-103 1366h103l84 -1157l401 1157h125l96 -1178l397 1178h111l-473 -1366h-125l-88 1192l-412 -1192h-116z" />
<glyph unicode="X" horiz-adv-x="958" d="M-2 0l471 705l-270 661h108l232 -559l376 559h119l-448 -666l282 -700h-110l-244 596l-399 -596h-117z" />
<glyph unicode="Y" horiz-adv-x="919" d="M362 0l119 563l-309 803h107l266 -688l411 688h115l-487 -803l-119 -563h-103z" />
<glyph unicode="Z" horiz-adv-x="913" d="M31 0l18 88l770 1190h-602l21 88h706l-12 -88l-770 -1190h622l-18 -88h-735z" />
<glyph unicode="[" horiz-adv-x="540" d="M90 -150h211l-14 -69h-310l336 1585h310l-13 -59h-211z" />
<glyph unicode="\" horiz-adv-x="722" d="M406 -240l-117 1626h86l123 -1626h-92z" />
<glyph unicode="]" horiz-adv-x="540" d="M-47 -160h211l309 1456h-211l14 70h310l-336 -1585h-309z" />
<glyph unicode="^" horiz-adv-x="1024" d="M131 784l375 582h119l376 -582h-106l-332 510l-330 -510h-102z" />
<glyph unicode="_" horiz-adv-x="1024" d="M0 -158h1024v-75h-1024v75z" />
<glyph unicode="`" horiz-adv-x="1024" d="M588 1141l-168 254h135l96 -254h-63z" />
<glyph unicode="a" horiz-adv-x="808" d="M23 219q0 193 104 281q61 49 223 80q190 37 225 63q55 43 56 162q0 158 -176 158q-184 0 -211 -211h-92q39 289 309 288q125 0 196.5 -56t71.5 -155q0 -31 -22 -143l-93 -461q-16 -86 -16 -116q0 -57 41 -58q18 0 68 12l-21 -63q-63 -18 -94 -18q-45 0 -64.5 26.5 t-21.5 91.5q-70 -72 -124 -97.5t-132 -25.5q-109 0 -168 63.5t-59 178.5zM117 223q0 -82 43 -127t121 -45q104 0 169.5 78t100.5 248l39 184q-76 -29 -211 -55q-90 -18 -125 -31.5t-61 -40.5q-76 -72 -76 -211z" />
<glyph unicode="b" horiz-adv-x="884" d="M20 0l291 1366h95l-95 -438q102 113 242 112q125 0 193.5 -83t68.5 -232q0 -131 -37 -294t-90 -263q-102 -195 -285 -195q-92 0 -157 47q-57 41 -96 138l-33 -158h-97zM205 315q0 -115 54 -185.5t142 -70.5q152 0 238 228q29 78 53.5 216t24.5 224q0 109 -49.5 172.5 t-132.5 63.5q-178 0 -261 -261q-25 -74 -47 -202t-22 -185z" />
<glyph unicode="c" horiz-adv-x="806" d="M74 301q0 158 39 326t98 262q98 152 276 151q137 0 213 -76.5t76 -215.5q0 -39 -2 -68h-96q4 57 4 72q0 98 -50 152t-140 54q-80 0 -135.5 -45t-96.5 -145q-37 -92 -63.5 -230.5t-26.5 -242.5q0 -244 182 -244q104 0 163.5 68.5t90.5 224.5h96q-57 -371 -352 -371 q-276 0 -276 328z" />
<glyph unicode="d" horiz-adv-x="882" d="M74 305q0 332 129 555q104 180 280 180q94 0 151.5 -45t92.5 -145l111 516h94l-289 -1366h-96l18 92q-117 -119 -246 -119q-119 0 -182 86t-63 246zM354 61q74 0 134.5 49.5t97.5 139.5q37 86 63.5 221t26.5 229q0 113 -53.5 185.5t-135.5 72.5q-131 0 -211 -157 q-45 -90 -75.5 -226.5t-30.5 -248.5q0 -265 184 -265z" />
<glyph unicode="e" horiz-adv-x="813" d="M72 313q0 137 34.5 291t90.5 260q92 178 282 178q131 0 201 -77.5t70 -225.5q0 -86 -27 -227h-539q-20 -145 -20 -217q0 -113 50 -175.5t142 -62.5q186 0 236 267h90q-41 -186 -118 -268.5t-214 -82.5q-278 0 -278 340zM199 594h444q16 96 16 154q0 217 -178 217 q-115 0 -194 -123q-57 -90 -88 -248z" />
<glyph unicode="f" horiz-adv-x="473" d="M74 0l198 930h-114l14 82h117l37 170q23 109 73 154.5t144 45.5q41 0 100 -16l-16 -68q-47 4 -76 5q-55 0 -88 -33t-47 -109l-31 -149h147l-16 -82h-147l-197 -930h-98z" />
<glyph unicode="g" horiz-adv-x="870" d="M16 -82h97q4 -104 48 -150.5t140 -46.5q104 0 156.5 60.5t87.5 216.5l20 94q-76 -70 -125 -94.5t-118 -24.5q-119 0 -183.5 90.5t-64.5 260.5q0 141 33.5 287.5t91.5 246.5q100 180 282 180q94 0 152.5 -44t93.5 -144l35 162h96l-223 -1043q-23 -106 -42.5 -151 t-60.5 -86q-86 -90 -235 -90q-277 0 -281 276zM354 61q154 0 232 187q37 88 63.5 223t26.5 227q0 113 -53.5 185.5t-135.5 72.5q-133 0 -211 -157q-45 -90 -75.5 -226.5t-30.5 -246.5q0 -265 184 -265z" />
<glyph unicode="h" horiz-adv-x="878" d="M23 0l286 1366h101l-101 -479q133 154 293 153q100 0 155.5 -51t55.5 -141q0 -41 -14 -113l-156 -735h-96l155 735q14 61 15 99q0 57 -42 93t-108 36q-158 0 -293 -228l-155 -735h-96z" />
<glyph unicode="i" horiz-adv-x="358" d="M279 1200l34 166h97l-37 -166h-94zM23 0l215 1012h96l-215 -1012h-96z" />
<glyph unicode="j" horiz-adv-x="346" d="M264 1200l37 166h94l-35 -166h-96zM-6 -70l231 1082h97l-230 -1082q-33 -150 -59 -192q-45 -80 -142 -80q-39 0 -79 8l16 76q29 -6 49 -6q63 0 88 71q4 10 29 123z" />
<glyph unicode="k" horiz-adv-x="770" d="M23 0l290 1366h97l-174 -821l454 467h133l-387 -389l172 -623h-100l-150 545l-157 -160l-82 -385h-96z" />
<glyph unicode="l" horiz-adv-x="358" d="M23 0l290 1366h97l-291 -1366h-96z" />
<glyph unicode="m" horiz-adv-x="1368" d="M23 0l217 1012h96l-27 -119q68 80 132.5 112.5t152.5 32.5q84 0 129 -31.5t72 -113.5q125 147 288 147q102 0 164 -49t62 -133q0 -25 -19 -113l-157 -745h-97l160 745q12 55 12 82q0 59 -39 97.5t-102 38.5q-90 0 -174 -68q-55 -45 -98 -150l-166 -745h-97l160 745 q10 47 10 82q0 61 -40.5 98.5t-108.5 37.5q-82 0 -164 -64q-63 -53 -113 -154l-157 -745h-96z" />
<glyph unicode="n" horiz-adv-x="878" d="M23 0l215 1012h96l-27 -123q86 82 152.5 115.5t144.5 33.5q100 0 155.5 -52t55.5 -146q0 -33 -18 -117l-156 -723h-94l153 723q16 76 17 106q0 59 -39 95.5t-103 36.5q-74 0 -140 -46.5t-154 -154.5l-162 -760h-96z" />
<glyph unicode="o" horiz-adv-x="876" d="M72 330q0 127 32.5 271t85.5 247q98 193 306 192q307 0 307 -335q0 -139 -38 -300t-95 -262q-96 -170 -297 -170q-301 1 -301 357zM217 129q55 -76 162 -76q152 0 221 162q43 98 74 245.5t31 254.5q0 246 -213 246q-145 0 -222 -166q-41 -94 -70.5 -233.5t-29.5 -246.5 q0 -129 47 -186z" />
<glyph unicode="p" horiz-adv-x="882" d="M154 162l-109 -514h-96l289 1364h96l-19 -92q119 121 246 120q119 0 182.5 -86t63.5 -245q0 -332 -129 -555q-104 -180 -281 -181q-94 0 -151 44.5t-92 144.5zM205 313q0 -113 53 -185.5t135 -72.5q131 0 211 158q45 90 76 227.5t31 247.5q0 268 -183 268 q-158 0 -233 -188q-37 -90 -63.5 -225.5t-26.5 -229.5z" />
<glyph unicode="q" horiz-adv-x="884" d="M68 285q0 135 36.5 299t90.5 262q100 193 284 192q88 0 158 -47q53 -37 96 -135l33 156h96l-291 -1364h-96l96 444q-104 -119 -243 -119q-121 0 -190.5 83.5t-69.5 228.5zM166 287q0 -109 49 -172.5t133 -63.5q174 0 260 260q23 74 46.5 202t23.5 183q0 115 -54.5 185.5 t-142.5 70.5q-152 0 -237 -225q-29 -78 -53.5 -216t-24.5 -224z" />
<glyph unicode="r" horiz-adv-x="583" d="M23 0l215 1012h96l-37 -176q63 96 119 129q78 49 178 49q27 0 47 -2l-18 -90q-33 6 -54 6q-115 0 -205 -101.5t-126 -271.5l-119 -555h-96z" />
<glyph unicode="s" horiz-adv-x="755" d="M51 106q-33 61 -35 187h95q0 -125 51 -181.5t164 -56.5q100 0 158.5 64.5t58.5 173.5q0 78 -47 119q-29 27 -136 69q-127 49 -177 104.5t-50 147.5q0 139 82 223t215 84q135 0 208 -71.5t73 -204.5v-19h-93q2 10 3 25q0 94 -50.5 143.5t-142.5 49.5q-90 0 -145.5 -61.5 t-55.5 -160.5q0 -63 39 -101t146 -81q131 -51 178 -103.5t47 -146.5q0 -137 -70 -233q-78 -102 -243 -103q-201 0 -273 133z" />
<glyph unicode="t" horiz-adv-x="483" d="M68 117q0 47 14 112l149 701h-118l16 82h119l59 274h94l-55 -274h150l-17 -82h-149l-144 -658q-20 -94 -20 -120q0 -41 30.5 -66t82.5 -25q20 0 67 9l-16 -80q-49 -10 -80 -10q-84 0 -133 37t-49 100z" />
<glyph unicode="u" horiz-adv-x="880" d="M66 172q0 43 16 117l156 723h96l-154 -723q-16 -74 -16 -107q0 -59 39 -95t102 -36q74 0 140.5 46t154.5 155l162 760h96l-217 -1012h-94l26 123q-86 -82 -152.5 -116t-144.5 -34q-100 0 -155 52.5t-55 146.5z" />
<glyph unicode="v" horiz-adv-x="739" d="M219 0l-94 1012h94l78 -854l410 854h100l-483 -1012h-105z" />
<glyph unicode="w" horiz-adv-x="1187" d="M178 0l-55 1012h94l45 -838l363 838h106l37 -838l367 838h104l-446 -1012h-103l-45 811l-356 -811h-111z" />
<glyph unicode="x" horiz-adv-x="739" d="M10 0h-112l417 522l-200 490h104l164 -398l315 398h111l-385 -490l213 -522h-102l-185 434z" />
<glyph unicode="y" horiz-adv-x="743" d="M195 -119l47 111l-117 1020h96l96 -856l392 856h102l-481 -1047l-25 -53q-63 -145 -100 -193q-57 -74 -162 -73q-43 0 -106 24l20 82q55 -18 80 -18q97 0 158 147z" />
<glyph unicode="z" horiz-adv-x="704" d="M-39 0l19 82l636 848h-456l16 82h582l-19 -82l-643 -848h463l-18 -82h-580z" />
<glyph unicode="{" horiz-adv-x="610" d="M109 -51q0 59 16 137l55 254q12 53 13 86q0 82 -74 109l20 96q59 20 91 62t51 126l61 283q31 145 98.5 204.5t200.5 59.5h37l-19 -90h-47q-74 0 -106 -43q-33 -39 -55 -143l-60 -279q-20 -100 -54 -150.5t-95 -80.5q63 -47 63 -127q0 -39 -14 -111l-55 -262 q-14 -68 -15 -105q0 -47 23.5 -68.5t79.5 -21.5h38l-20 -104h-43q-100 0 -145 40t-45 128z" />
<glyph unicode="|" horiz-adv-x="1024" d="M461 -342v1708h102v-1708h-102z" />
<glyph unicode="}" horiz-adv-x="610" d="M10 -129q74 0 107 43q37 41 57 143l57 279q20 100 53 150.5t97 80.5q-63 47 -64 127q0 35 15 111l55 262q14 61 14 104q0 47 -23.5 69t-78.5 22h-39l21 104h43q100 0 145 -40t45 -128q0 -59 -16 -137l-56 -254q-12 -57 -12 -86q0 -82 76 -109l-21 -96q-61 -20 -93 -62 t-50 -126l-61 -283q-31 -145 -98.5 -204.5t-200.5 -59.5h-37l18 90h47z" />
<glyph unicode="~" horiz-adv-x="1366" d="M420 1212l-62 45q109 209 267 209q80 0 237 -84q143 -76 211 -75q106 0 201 163l61 -45q-111 -211 -266 -211q-76 0 -244 89q-135 72 -204 71q-57 0 -103.5 -37t-97.5 -125z" />
<glyph unicode="&#xa1;" horiz-adv-x="544" d="M287 950l41 187h157l-39 -187h-159zM213 180l125 627h41l-55 -627l-58 -409h-106z" />
<glyph unicode="&#xa2;" d="M330 -31l35 164q-102 41 -148.5 116t-46.5 206q0 250 86 485q72 193 215 248q49 18 123 20l35 164h80l-37 -172q203 -55 202 -287q0 -12 -4 -69h-94q4 61 4 76q0 154 -127 194l-182 -899q182 12 234 293h94q-49 -381 -355 -375l-34 -164h-80zM303 283q23 -37 80 -62 l192 901q-80 -6 -129 -47t-90 -133q-31 -70 -61.5 -232.5t-30.5 -254.5q0 -100 39 -172z" />
<glyph unicode="&#xa3;" d="M43 57q223 248 223 516q0 33 -2 58h-151l16 78h125q-2 10 -4 22l-3 19q-1 6 -1 10q-23 115 -23 180q0 205 110.5 324.5t297.5 119.5q162 0 250 -86t88 -241q0 -23 -4 -96h-103q4 70 4 96q0 115 -63.5 177t-179.5 62q-143 0 -221 -93t-78 -267q0 -82 24 -227h369l-17 -78 h-346q2 -29 2 -66q0 -117 -45 -221t-166 -264q90 37 183 37q55 0 149 -25q92 -23 148 -22q86 0 157 36l-20 -102q-80 -31 -154 -31q-76 0 -174 31q-102 33 -162 33q-102 0 -196 -66z" />
<glyph unicode="&#xa4;" horiz-adv-x="1161" d="M135 172l-72 76l187 190q-104 139 -104.5 293t106.5 291l-195 190l74 76l193 -192q141 109 297 108q154 0 294 -106l191 188l74 -74l-191 -190q106 -137 107 -293q0 -152 -105 -291l193 -190l-74 -76l-192 193q-137 -106 -295 -107q-152 0 -295 107zM620.5 369 q149.5 0 255 106.5t105.5 255.5q0 147 -105.5 255t-250.5 108q-152 0 -258.5 -106.5t-106.5 -258.5q0 -147 105.5 -253.5t255 -106.5z" />
<glyph unicode="&#xa5;" d="M365 0l118 561h-295l17 78h295l-49 156h-220l17 77h178l-156 494h107l188 -612l297 612h115l-254 -494h195l-17 -77h-219l-78 -156h270l-16 -78h-272l-119 -561h-102z" />
<glyph unicode="&#xa6;" horiz-adv-x="1024" d="M461 694v672h102v-672h-102zM461 313h102v-655h-102v655z" />
<glyph unicode="&#xa7;" horiz-adv-x="950" d="M76 2q0 33 6 100h88q-8 -63 -8 -84q0 -90 58.5 -144t154.5 -54q98 0 155.5 54t57.5 144q0 74 -37 122t-258 266q-143 143 -143 253.5t83 184.5q45 39 152 86q-47 66 -63.5 104.5t-16.5 87.5q0 119 82 195t213 76q129 0 205 -69t76 -185q0 -18 -4 -76h-101q2 23 2 63 q0 88 -49 138.5t-135 50.5q-84 0 -140.5 -55.5t-56.5 -137.5q0 -59 32 -101t187 -196q139 -137 175 -189t36 -122q0 -182 -217 -287q72 -84 72 -198q0 -131 -84 -209t-225 -78q-133 0 -215 71.5t-82 188.5zM362 471l193 -195q182 88 182 222q0 47 -19.5 79.5t-84.5 98.5 l-203 203q-88 -41 -121 -70q-70 -63 -69 -143q0 -43 25 -83t97 -112z" />
<glyph unicode="&#xa8;" horiz-adv-x="1024" d="M719 1188l29 135h118l-28 -135h-119zM401 1188l29 135h119l-29 -135h-119z" />
<glyph unicode="&#xa9;" horiz-adv-x="1382" d="M80 643q0 307 201.5 527.5t482.5 220.5q248 0 421 -195t173 -473q0 -303 -201 -525.5t-473 -222.5q-254 0 -429 193.5t-175 474.5zM156 645q0 -254 153.5 -429t376.5 -175q242 0 419 201.5t177 478.5q0 252 -152.5 428t-369.5 176q-248 0 -426 -199.5t-178 -480.5z M457 522.5q0 112.5 29.5 237.5t74.5 207q74 129 211 129q100 0 154.5 -56.5t54.5 -158.5q0 -33 -4 -78h-80q2 51 2 69q0 154 -129 154q-98 0 -152 -119q-35 -76 -58 -188.5t-23 -200.5q0 -166 127 -166q70 0 112.5 52.5t71.5 170.5h78q-29 -150 -99 -223q-63 -70 -180 -69 q-90 0 -140 63.5t-50 176z" />
<glyph unicode="&#xaa;" horiz-adv-x="569" d="M264 532q-72 0 -111.5 40t-39.5 114q0 150 110 195q14 6 180 39q51 8 70 31.5t19 74.5q0 82 -99 82q-57 0 -85.5 -27.5t-37.5 -95.5h-80q16 102 63.5 146.5t141.5 44.5q84 0 131 -36t47 -100q0 -4 -16 -84l-57 -270q-8 -39 -8 -65q0 -23 16 -23q12 0 37 8q2 0 18 4 l-20 -61q-41 -14 -66 -14q-55 0 -63 57q-66 -60 -150 -60zM283 598q61 0 99 43t58 137l21 90q-47 -14 -115 -26q-84 -16 -110 -39q-43 -39 -43 -117q0 -88 90 -88z" />
<glyph unicode="&#xab;" horiz-adv-x="778" d="M588 178l-205 307l20 95l328 278l-24 -117l-248 -221l149 -237zM293 178l-203 307l21 95l327 278l-24 -117l-250 -221l151 -237z" />
<glyph unicode="&#xac;" horiz-adv-x="1024" d="M27 467v90h886v-557h-100v467h-786z" />
<glyph unicode="&#xad;" horiz-adv-x="374" d="M-2 496l20 94h373l-20 -94h-373z" />
<glyph unicode="&#xae;" horiz-adv-x="1382" d="M80 643q0 307 201.5 527.5t482.5 220.5q248 0 421 -195t173 -473q0 -303 -201 -525.5t-473 -222.5q-254 0 -429 193.5t-175 474.5zM156 645q0 -254 153.5 -429t376.5 -175q242 0 419 201.5t177 478.5q0 252 -152.5 428t-369.5 176q-248 0 -426 -199.5t-178 -480.5z M434 301l158 778h162q131 0 190.5 -47t59.5 -149q0 -145 -130 -203q55 -37 56 -123q0 -35 -21 -151q-8 -41 -8 -50q0 -10 19 -55h-89q-12 37 -12 51q0 23 12 84q18 84 19 121q0 57 -39 80q-27 16 -123 16h-102l-72 -352h-80zM600 723q39 -2 88 -2q123 0 176 31q61 35 62 129 q0 96 -78 118q-37 10 -152 11h-39z" />
<glyph unicode="&#xaf;" horiz-adv-x="1024" d="M393 1210l19 86h450l-18 -86h-451z" />
<glyph unicode="&#xb0;" horiz-adv-x="763" d="M506 821q-123 0 -208 84t-85 205q0 115 86 199t205 84q121 0 207 -84t86 -201q0 -119 -85 -203t-206 -84zM506 922q78 0 133 54t55 130t-55 131t-133 55t-134.5 -54t-56.5 -128q0 -80 55.5 -134t135.5 -54z" />
<glyph unicode="&#xb1;" d="M393 346l78 363h-326l19 86h325l74 352h99l-74 -352h327l-18 -86h-328l-77 -363h-99zM0 27l18 86h752l-18 -86h-752z" />
<glyph unicode="&#xb2;" horiz-adv-x="661" d="M117 547q25 143 83 218t214 161q102 55 135 86q59 59 59 151q0 66 -34.5 104t-92.5 38q-135 0 -155 -213h-84q20 152 76.5 218t164.5 66q98 0 154.5 -58t56.5 -161q0 -109 -69 -182q-51 -49 -170 -115q-113 -59 -166 -113.5t-70 -125.5h371l-17 -74h-456z" />
<glyph unicode="&#xb3;" horiz-adv-x="661" d="M379 530q-100 0 -162.5 61.5t-62.5 160.5q0 27 4 63h84q-4 -35 -4 -57q0 -72 36.5 -114t102.5 -42q72 0 118 57.5t46 145.5q0 70 -39 98.5t-135 30.5l16 72q25 -2 45 -2q78 0 126 48t48 124q0 57 -32.5 92t-86.5 35q-59 0 -92 -37t-55 -127h-84q25 92 45 131 q61 106 188 106q90 0 144.5 -53t54.5 -141q0 -166 -149 -221q90 -49 90 -166q0 -113 -71 -189t-175 -76z" />
<glyph unicode="&#xb4;" horiz-adv-x="1024" d="M535 1141l141 252h151l-227 -252h-65z" />
<glyph unicode="&#xb5;" d="M164 45l-84 -397h-96l290 1364h97l-127 -588q-43 -201 -43 -242q0 -59 39 -95t102 -36q72 0 139.5 46t155.5 155l162 760h94l-215 -1012h-96l26 123q-152 -150 -291 -150q-102 0 -153 72z" />
<glyph unicode="&#xb6;" d="M301 -219l191 887q-274 45 -275 313q0 207 160 326q70 51 162 57q14 2 170 2h264l-336 -1585h-102l317 1489h-131l-318 -1489h-102z" />
<glyph unicode="&#xb7;" horiz-adv-x="356" d="M102 428l37 168h115l-35 -168h-117z" />
<glyph unicode="&#xb8;" horiz-adv-x="1024" d="M305 -180l133 180h51l-92 -131q39 10 66 10q57 0 92 -29.5t35 -78.5q0 -61 -57.5 -100.5t-145.5 -39.5q-66 0 -143 33l8 45q82 -27 127 -26q53 0 92 22.5t39 54.5q0 31 -27.5 50.5t-68.5 19.5q-37 0 -92 -25z" />
<glyph unicode="&#xb9;" horiz-adv-x="661" d="M328 547l145 643q-78 -27 -151 -27q-6 0 -39 2l14 66q92 2 141 32.5t76 102.5h80l-184 -819h-82z" />
<glyph unicode="&#xba;" horiz-adv-x="612" d="M340 530q-197 0 -197 220q0 174 74 307q68 119 199 119q203 0 202 -207q0 -82 -24.5 -178.5t-58.5 -155.5q-62 -105 -195 -105zM344 598q88 0 129 88q63 131 64 287q0 133 -121 133q-86 0 -129 -90q-61 -127 -62 -277q0 -141 119 -141z" />
<glyph unicode="&#xbb;" horiz-adv-x="778" d="M342 178l27 119l247 219l-151 238l22 104l203 -305l-20 -96zM49 178l25 119l250 219l-152 238l23 104l202 -305l-20 -96z" />
<glyph unicode="&#xbc;" horiz-adv-x="1525" d="M383 0l760 1366h80l-760 -1366h-80zM328 547l145 643q-78 -27 -151 -27q-6 0 -39 2l14 66q92 2 141 32.5t76 102.5h80l-184 -819h-82zM881 205l16 67l457 547h78l-121 -540h80l-17 -74h-80l-47 -205h-82l47 205h-331zM993 279h236l86 383z" />
<glyph unicode="&#xbd;" horiz-adv-x="1525" d="M383 0l760 1366h80l-760 -1366h-80zM328 547l145 643q-78 -27 -151 -27q-6 0 -39 2l14 66q92 2 141 32.5t76 102.5h80l-184 -819h-82zM866 0q25 145 84.5 221t214.5 160q104 57 135 88q59 55 60 149q0 66 -35 104t-92 38q-137 0 -158 -213h-84q20 152 76.5 218t167.5 66 q98 0 154.5 -58t56.5 -159q0 -111 -70 -184q-45 -47 -170 -115q-115 -61 -168 -115.5t-69 -125.5h372l-18 -74h-457z" />
<glyph unicode="&#xbe;" horiz-adv-x="1525" d="M379 530q-100 0 -162.5 61.5t-62.5 160.5q0 27 4 63h84q-4 -35 -4 -57q0 -72 36.5 -114t102.5 -42q72 0 118 57.5t46 145.5q0 70 -39 98.5t-135 30.5l16 72q25 -2 45 -2q78 0 126 48t48 124q0 57 -32.5 92t-86.5 35q-59 0 -92 -37t-55 -127h-84q25 92 45 131 q61 106 188 106q90 0 144.5 -53t54.5 -141q0 -166 -149 -221q90 -49 90 -166q0 -113 -71 -189t-175 -76zM381 0l760 1366h80l-760 -1366h-80zM879 205l16 67l459 547h78l-123 -540h80l-17 -74h-80l-47 -205h-82l47 205h-331zM991 279h236l88 383z" />
<glyph unicode="&#xbf;" horiz-adv-x="854" d="M506 975l39 188h160l-41 -188h-158zM33 88q0 113 53 189.5t197 171.5q121 80 167 155.5t64 229.5h96q-29 -201 -89 -290t-253 -218q-131 -86 -131 -240q0 -100 59.5 -162.5t155.5 -62.5q106 0 167 68.5t83 220.5h96q-29 -176 -92 -259q-92 -119 -254 -118q-145 0 -232 86 t-87 229z" />
<glyph unicode="&#xc0;" horiz-adv-x="958" d="M623 1483l-168 252h141l96 -252h-69zM41 0h-113l662 1366h125l110 -1366h-102l-29 410h-461zM274 498h416l-53 792z" />
<glyph unicode="&#xc1;" horiz-adv-x="958" d="M645 1483l141 250h160l-227 -250h-74zM41 0h-113l662 1366h125l110 -1366h-102l-29 410h-461zM274 498h416l-53 792z" />
<glyph unicode="&#xc2;" horiz-adv-x="958" d="M457 1483l184 250h160l98 -250h-74l-110 170l-185 -170h-73zM41 0h-113l662 1366h125l110 -1366h-102l-29 410h-461zM274 498h416l-53 792z" />
<glyph unicode="&#xc3;" horiz-adv-x="958" d="M469 1516q39 166 147 165q29 0 49.5 -9t112.5 -60q29 -16 49 -17q43 0 62 84h65q-10 -78 -43.5 -119.5t-85.5 -41.5q-31 0 -57.5 11t-101.5 54q-31 18 -58 19q-47 0 -71 -86h-68zM41 0h-113l662 1366h125l110 -1366h-102l-29 410h-461zM274 498h416l-53 792z" />
<glyph unicode="&#xc4;" horiz-adv-x="958" d="M799 1530l30 141h125l-30 -141h-125zM481 1530l31 141h125l-31 -141h-125zM41 0h-113l662 1366h125l110 -1366h-102l-29 410h-461zM274 498h416l-53 792z" />
<glyph unicode="&#xc5;" horiz-adv-x="958" d="M702.5 1450q-73.5 0 -126 52t-52.5 128q0 72 53.5 125t124.5 53q76 0 128.5 -53t52.5 -129q0 -72 -53.5 -124t-127 -52zM702.5 1518q45.5 0 78 32.5t32.5 77.5q0 47 -32.5 80t-78 33t-78 -33t-32.5 -78q0 -47 32.5 -79.5t78 -32.5zM41 0h-113l662 1366h125l110 -1366 h-102l-29 410h-461zM274 498h416l-53 792z" />
<glyph unicode="&#xc6;" horiz-adv-x="1406" d="M39 0h-119l785 1366h749l-18 -88h-500l-111 -522h500l-18 -88h-500l-123 -580h543l-19 -88h-645l92 436h-372zM332 524h342l160 754h-84z" />
<glyph unicode="&#xc7;" horiz-adv-x="989" d="M313 -160l90 129q-293 31 -292 418q0 197 52 420t132 369q125 225 360 225q170 0 261.5 -97.5t91.5 -281.5q0 -31 -4 -117h-107q4 82 4 111q0 145 -64.5 222t-185.5 77q-190 0 -291 -230q-63 -141 -105 -345.5t-42 -362.5t63.5 -242t182.5 -84q252 0 346 406h100 q-47 -244 -160.5 -367t-287.5 -121l-66 -100q35 8 60 8q57 0 92 -29.5t35 -78.5q0 -63 -56.5 -102.5t-146.5 -39.5q-70 0 -146 35l9 43q68 -25 110 -24q55 0 90 23.5t35 59.5q0 66 -94 66q-31 0 -55 -10z" />
<glyph unicode="&#xc8;" horiz-adv-x="890" d="M637 1483l-168 252h141l97 -252h-70zM39 0l291 1366h600l-21 -88h-495l-111 -522h496l-19 -88h-497l-123 -580h551l-19 -88h-653z" />
<glyph unicode="&#xc9;" horiz-adv-x="890" d="M598 1483l141 250h160l-227 -250h-74zM39 0l291 1366h600l-21 -88h-495l-111 -522h496l-19 -88h-497l-123 -580h551l-19 -88h-653z" />
<glyph unicode="&#xca;" horiz-adv-x="890" d="M438 1483l185 250h159l99 -250h-74l-111 170l-184 -170h-74zM39 0l291 1366h600l-21 -88h-495l-111 -522h496l-19 -88h-497l-123 -580h551l-19 -88h-653z" />
<glyph unicode="&#xcb;" horiz-adv-x="890" d="M778 1530l31 141h125l-31 -141h-125zM461 1530l31 141h124l-30 -141h-125zM39 0l291 1366h600l-21 -88h-495l-111 -522h496l-19 -88h-497l-123 -580h551l-19 -88h-653z" />
<glyph unicode="&#xcc;" horiz-adv-x="428" d="M371 1483l-168 252h141l96 -252h-69zM53 0l291 1366h102l-290 -1366h-103z" />
<glyph unicode="&#xcd;" horiz-adv-x="428" d="M379 1483l141 250h160l-227 -250h-74zM53 0l291 1366h102l-290 -1366h-103z" />
<glyph unicode="&#xce;" horiz-adv-x="428" d="M193 1483l184 250h160l98 -250h-74l-110 170l-185 -170h-73zM53 0l291 1366h102l-290 -1366h-103z" />
<glyph unicode="&#xcf;" horiz-adv-x="428" d="M469 1530l31 141h118l-30 -141h-119zM283 1530l30 141h119l-31 -141h-118zM53 0l291 1366h102l-290 -1366h-103z" />
<glyph unicode="&#xd0;" horiz-adv-x="1064" d="M35 0l145 682h-123l19 88h123l127 596h225q190 0 301 -53q162 -76 162 -398q0 -217 -56.5 -426.5t-146.5 -320.5q-78 -96 -175 -132t-282 -36h-319zM156 88h157q141 0 196.5 8t104.5 35q143 76 217 303q80 244 80 500q0 193 -84 268.5t-295 75.5h-122l-109 -508h326 l-19 -88h-325z" />
<glyph unicode="&#xd1;" horiz-adv-x="1085" d="M547 1516q39 166 147 165q29 0 49.5 -9t112.5 -60q29 -16 49 -17q43 0 62 84h65q-10 -78 -44 -119.5t-85 -41.5q-31 0 -57.5 11t-102.5 54q-31 18 -57 19q-47 0 -72 -86h-67zM39 0l291 1366h166l249 -1266l271 1266h102l-291 -1366h-161l-254 1270l-271 -1270h-102z" />
<glyph unicode="&#xd2;" horiz-adv-x="1071" d="M674 1483l-168 252h141l96 -252h-69zM209 72q-92 106 -92 319q0 162 41 358.5t104 346.5q68 158 164 231.5t236 73.5q365 0 364 -434q0 -170 -44 -376t-112 -349q-127 -276 -389 -277q-178 1 -272 107zM217 389q0 -166 65.5 -252t192.5 -86q109 0 184.5 62.5t131.5 199.5 q57 139 96 332t39 336q0 334 -262 334q-113 0 -188 -68.5t-134 -222.5q-51 -135 -88 -321.5t-37 -313.5z" />
<glyph unicode="&#xd3;" horiz-adv-x="1071" d="M633 1483l141 250h160l-227 -250h-74zM209 72q-92 106 -92 319q0 162 41 358.5t104 346.5q68 158 164 231.5t236 73.5q365 0 364 -434q0 -170 -44 -376t-112 -349q-127 -276 -389 -277q-178 1 -272 107zM217 389q0 -166 65.5 -252t192.5 -86q109 0 184.5 62.5 t131.5 199.5q57 139 96 332t39 336q0 334 -262 334q-113 0 -188 -68.5t-134 -222.5q-51 -135 -88 -321.5t-37 -313.5z" />
<glyph unicode="&#xd4;" horiz-adv-x="1071" d="M508 1483l184 250h160l98 -250h-73l-111 170l-184 -170h-74zM209 72q-92 106 -92 319q0 162 41 358.5t104 346.5q68 158 164 231.5t236 73.5q365 0 364 -434q0 -170 -44 -376t-112 -349q-127 -276 -389 -277q-178 1 -272 107zM217 389q0 -166 65.5 -252t192.5 -86 q109 0 184.5 62.5t131.5 199.5q57 139 96 332t39 336q0 334 -262 334q-113 0 -188 -68.5t-134 -222.5q-51 -135 -88 -321.5t-37 -313.5z" />
<glyph unicode="&#xd5;" horiz-adv-x="1071" d="M520 1516q41 166 148 165q29 0 49 -9t112 -60q29 -16 50 -17q43 0 61 84h66q-10 -78 -44 -119.5t-85 -41.5q-31 0 -57.5 11t-102.5 54q-31 18 -58 19q-47 0 -71 -86h-68zM209 72q-92 106 -92 319q0 162 41 358.5t104 346.5q68 158 164 231.5t236 73.5q365 0 364 -434 q0 -170 -44 -376t-112 -349q-127 -276 -389 -277q-178 1 -272 107zM217 389q0 -166 65.5 -252t192.5 -86q109 0 184.5 62.5t131.5 199.5q57 139 96 332t39 336q0 334 -262 334q-113 0 -188 -68.5t-134 -222.5q-51 -135 -88 -321.5t-37 -313.5z" />
<glyph unicode="&#xd6;" horiz-adv-x="1071" d="M834 1530l30 141h125l-31 -141h-124zM516 1530l31 141h125l-31 -141h-125zM209 72q-92 106 -92 319q0 162 41 358.5t104 346.5q68 158 164 231.5t236 73.5q365 0 364 -434q0 -170 -44 -376t-112 -349q-127 -276 -389 -277q-178 1 -272 107zM217 389q0 -166 65.5 -252 t192.5 -86q109 0 184.5 62.5t131.5 199.5q57 139 96 332t39 336q0 334 -262 334q-113 0 -188 -68.5t-134 -222.5q-51 -135 -88 -321.5t-37 -313.5z" />
<glyph unicode="&#xd7;" d="M117 311l-62 78l387 303l-235 299l78 62l233 -299l387 303l60 -78l-385 -303l237 -301l-78 -62l-237 301z" />
<glyph unicode="&#xd8;" horiz-adv-x="1021" d="M29 20l104 144q-35 102 -35 227q0 172 39 363.5t103 337.5q72 160 169 234.5t234 74.5q207 0 299 -146l78 107l63 -47l-102 -139q23 -96 23 -218q0 -166 -44.5 -374.5t-107.5 -343.5q-66 -143 -160 -209t-233 -66q-182 0 -283 121l-84 -113zM203 258l680 922 q-57 133 -240 133q-111 0 -185.5 -67.5t-133.5 -219.5q-57 -143 -93 -326.5t-36 -322.5q0 -47 8 -119zM233 168q47 -63 97.5 -90t124.5 -27q111 0 184.5 60.5t130.5 197.5q55 133 95 329t40 339q0 47 -4 92z" />
<glyph unicode="&#xd9;" horiz-adv-x="1048" d="M688 1483l-168 252h142l96 -252h-70zM279 117q72 -66 186 -66q172 0 256 148q35 63 70 219l200 948h103l-205 -971q-39 -188 -90 -266q-104 -164 -332 -164q-166 0 -263.5 87t-97.5 237q0 100 31 248l176 829h103l-187 -881q-20 -102 -20 -172q0 -133 70 -196z" />
<glyph unicode="&#xda;" horiz-adv-x="1048" d="M676 1483l141 250h160l-227 -250h-74zM279 117q72 -66 186 -66q172 0 256 148q35 63 70 219l200 948h103l-205 -971q-39 -188 -90 -266q-104 -164 -332 -164q-166 0 -263.5 87t-97.5 237q0 100 31 248l176 829h103l-187 -881q-20 -102 -20 -172q0 -133 70 -196z" />
<glyph unicode="&#xdb;" horiz-adv-x="1048" d="M516 1483l184 250h160l98 -250h-73l-111 170l-184 -170h-74zM279 117q72 -66 186 -66q172 0 256 148q35 63 70 219l200 948h103l-205 -971q-39 -188 -90 -266q-104 -164 -332 -164q-166 0 -263.5 87t-97.5 237q0 100 31 248l176 829h103l-187 -881q-20 -102 -20 -172 q0 -133 70 -196z" />
<glyph unicode="&#xdc;" horiz-adv-x="1048" d="M850 1530l31 141h125l-31 -141h-125zM532 1530l31 141h125l-31 -141h-125zM279 117q72 -66 186 -66q172 0 256 148q35 63 70 219l200 948h103l-205 -971q-39 -188 -90 -266q-104 -164 -332 -164q-166 0 -263.5 87t-97.5 237q0 100 31 248l176 829h103l-187 -881 q-20 -102 -20 -172q0 -133 70 -196z" />
<glyph unicode="&#xdd;" horiz-adv-x="919" d="M606 1483l142 250h159l-227 -250h-74zM362 0l119 563l-309 803h107l266 -688l411 688h115l-487 -803l-119 -563h-103z" />
<glyph unicode="&#xde;" horiz-adv-x="970" d="M35 0l291 1366h102l-47 -219h143q174 0 258 -41q162 -80 162 -311q0 -434 -481 -435q-70 0 -127 2q-8 0 -24.5 1.5t-46 2.5t-50.5 1l-78 -367h-102zM233 453q135 -6 205 -7q190 0 281 66q121 92 121 285q0 201 -154 250q-61 18 -231 18q-51 0 -90 -2z" />
<glyph unicode="&#xdf;" horiz-adv-x="897" d="M23 0l215 1014q37 170 86 246q86 133 247 133q133 0 212 -81t79 -220q0 -160 -78 -256q-47 -59 -129 -80q72 -45 101.5 -105.5t29.5 -163.5q0 -104 -30.5 -212.5t-81.5 -180.5q-80 -115 -197 -114q-84 0 -168 71l19 84q80 -70 139 -69q94 0 154 127q70 150 69 339 q0 156 -98 197q-37 16 -135 27l14 65q47 -8 74 -8q109 0 157 61q66 82 66 230q0 96 -53 152.5t-147.5 56.5t-147.5 -74t-92 -256l-209 -983h-96z" />
<glyph unicode="&#xe0;" horiz-adv-x="808" d="M467 1141l-168 254h135l96 -254h-63zM23 219q0 193 104 281q61 49 223 80q190 37 225 63q55 43 56 162q0 158 -176 158q-184 0 -211 -211h-92q39 289 309 288q125 0 196.5 -56t71.5 -155q0 -31 -22 -143l-93 -461q-16 -86 -16 -116q0 -57 41 -58q18 0 68 12l-21 -63 q-63 -18 -94 -18q-45 0 -64.5 26.5t-21.5 91.5q-70 -72 -124 -97.5t-132 -25.5q-109 0 -168 63.5t-59 178.5zM117 223q0 -82 43 -127t121 -45q104 0 169.5 78t100.5 248l39 184q-76 -29 -211 -55q-90 -18 -125 -31.5t-61 -40.5q-76 -72 -76 -211z" />
<glyph unicode="&#xe1;" horiz-adv-x="808" d="M455 1141l141 252h152l-228 -252h-65zM23 219q0 193 104 281q61 49 223 80q190 37 225 63q55 43 56 162q0 158 -176 158q-184 0 -211 -211h-92q39 289 309 288q125 0 196.5 -56t71.5 -155q0 -31 -22 -143l-93 -461q-16 -86 -16 -116q0 -57 41 -58q18 0 68 12l-21 -63 q-63 -18 -94 -18q-45 0 -64.5 26.5t-21.5 91.5q-70 -72 -124 -97.5t-132 -25.5q-109 0 -168 63.5t-59 178.5zM117 223q0 -82 43 -127t121 -45q104 0 169.5 78t100.5 248l39 184q-76 -29 -211 -55q-90 -18 -125 -31.5t-61 -40.5q-76 -72 -76 -211z" />
<glyph unicode="&#xe2;" horiz-adv-x="808" d="M317 1141l185 252h160l98 -252h-74l-111 172l-184 -172h-74zM23 219q0 193 104 281q61 49 223 80q190 37 225 63q55 43 56 162q0 158 -176 158q-184 0 -211 -211h-92q39 289 309 288q125 0 196.5 -56t71.5 -155q0 -31 -22 -143l-93 -461q-16 -86 -16 -116q0 -57 41 -58 q18 0 68 12l-21 -63q-63 -18 -94 -18q-45 0 -64.5 26.5t-21.5 91.5q-70 -72 -124 -97.5t-132 -25.5q-109 0 -168 63.5t-59 178.5zM117 223q0 -82 43 -127t121 -45q104 0 169.5 78t100.5 248l39 184q-76 -29 -211 -55q-90 -18 -125 -31.5t-61 -40.5q-76 -72 -76 -211z" />
<glyph unicode="&#xe3;" horiz-adv-x="808" d="M305 1174q39 166 148 165q29 0 49 -8t112 -61q29 -16 50 -17q43 0 61 86h66q-10 -78 -44 -120.5t-85 -42.5q-31 0 -57.5 11t-102.5 54q-31 18 -58 19q-47 0 -71 -86h-68zM23 219q0 193 104 281q61 49 223 80q190 37 225 63q55 43 56 162q0 158 -176 158q-184 0 -211 -211 h-92q39 289 309 288q125 0 196.5 -56t71.5 -155q0 -31 -22 -143l-93 -461q-16 -86 -16 -116q0 -57 41 -58q18 0 68 12l-21 -63q-63 -18 -94 -18q-45 0 -64.5 26.5t-21.5 91.5q-70 -72 -124 -97.5t-132 -25.5q-109 0 -168 63.5t-59 178.5zM117 223q0 -82 43 -127t121 -45 q104 0 169.5 78t100.5 248l39 184q-76 -29 -211 -55q-90 -18 -125 -31.5t-61 -40.5q-76 -72 -76 -211z" />
<glyph unicode="&#xe4;" horiz-adv-x="808" d="M616 1188l29 135h119l-29 -135h-119zM299 1188l29 135h118l-28 -135h-119zM23 219q0 193 104 281q61 49 223 80q190 37 225 63q55 43 56 162q0 158 -176 158q-184 0 -211 -211h-92q39 289 309 288q125 0 196.5 -56t71.5 -155q0 -31 -22 -143l-93 -461q-16 -86 -16 -116 q0 -57 41 -58q18 0 68 12l-21 -63q-63 -18 -94 -18q-45 0 -64.5 26.5t-21.5 91.5q-70 -72 -124 -97.5t-132 -25.5q-109 0 -168 63.5t-59 178.5zM117 223q0 -82 43 -127t121 -45q104 0 169.5 78t100.5 248l39 184q-76 -29 -211 -55q-90 -18 -125 -31.5t-61 -40.5 q-76 -72 -76 -211z" />
<glyph unicode="&#xe5;" horiz-adv-x="808" d="M526.5 1135q-69.5 0 -120 50t-50.5 119.5t50.5 120t119.5 50.5q72 0 121 -50.5t49 -121.5q0 -68 -50 -118t-119.5 -50zM524 1200q43 0 75 31t32 72q0 45 -31 75.5t-76 30.5q-43 0 -73.5 -30.5t-30.5 -73.5t30.5 -74t73.5 -31zM23 219q0 193 104 281q61 49 223 80 q190 37 225 63q55 43 56 162q0 158 -176 158q-184 0 -211 -211h-92q39 289 309 288q125 0 196.5 -56t71.5 -155q0 -31 -22 -143l-93 -461q-16 -86 -16 -116q0 -57 41 -58q18 0 68 12l-21 -63q-63 -18 -94 -18q-45 0 -64.5 26.5t-21.5 91.5q-70 -72 -124 -97.5t-132 -25.5 q-109 0 -168 63.5t-59 178.5zM117 223q0 -82 43 -127t121 -45q104 0 169.5 78t100.5 248l39 184q-76 -29 -211 -55q-90 -18 -125 -31.5t-61 -40.5q-76 -72 -76 -211z" />
<glyph unicode="&#xe6;" horiz-adv-x="1300" d="M23 211q0 197 104 287q63 51 221 80q184 35 225 65q55 43 56 160q0 160 -180 160q-106 0 -166 -82q-29 -41 -41 -129h-90q16 147 91.5 217.5t219.5 70.5q186 0 250 -129q98 129 250 129q135 0 205.5 -77.5t70.5 -227.5q0 -68 -29 -223h-538q-23 -111 -23 -211 q0 -119 51.5 -182.5t145.5 -63.5q180 0 233 267h90q-35 -180 -114.5 -264.5t-214.5 -84.5q-109 0 -181 60q-57 45 -81 147q-55 -109 -129 -158t-185 -49q-241 0 -241 238zM686 592h442q18 86 19 143q0 111 -46 170.5t-132 59.5q-119 0 -197 -125q-57 -88 -86 -248zM117 225 q0 -84 43 -130t121 -46q113 0 188 105q45 66 80 223l41 186q-14 -6 -307 -78q-166 -41 -166 -260z" />
<glyph unicode="&#xe7;" horiz-adv-x="806" d="M199 -180l108 147q-233 25 -233 330q0 162 40 330t99 260q96 154 274 153q137 0 214 -76.5t77 -215.5q0 -18 -4 -68h-94q4 57 4 76q0 94 -50 148t-140 54q-154 0 -234 -190q-39 -90 -64.5 -228.5t-25.5 -244.5q0 -244 182 -244q106 0 164.5 67.5t91.5 225.5h94 q-25 -186 -111.5 -281.5t-230.5 -95.5l-69 -98q41 10 65 10q57 0 92 -29.5t35 -78.5q0 -61 -56 -100.5t-144 -39.5q-63 0 -142 33v45q86 -27 129 -26q55 0 94 22.5t39 54.5q0 31 -27.5 50.5t-68.5 19.5q-37 0 -92 -25z" />
<glyph unicode="&#xe8;" horiz-adv-x="813" d="M469 1141l-168 254h135l96 -254h-63zM72 313q0 137 34.5 291t90.5 260q92 178 282 178q131 0 201 -77.5t70 -225.5q0 -86 -27 -227h-539q-20 -145 -20 -217q0 -113 50 -175.5t142 -62.5q186 0 236 267h90q-41 -186 -118 -268.5t-214 -82.5q-278 0 -278 340zM199 594h444 q16 96 16 154q0 217 -178 217q-115 0 -194 -123q-57 -90 -88 -248z" />
<glyph unicode="&#xe9;" horiz-adv-x="813" d="M457 1141l141 252h152l-228 -252h-65zM72 313q0 137 34.5 291t90.5 260q92 178 282 178q131 0 201 -77.5t70 -225.5q0 -86 -27 -227h-539q-20 -145 -20 -217q0 -113 50 -175.5t142 -62.5q186 0 236 267h90q-41 -186 -118 -268.5t-214 -82.5q-278 0 -278 340zM199 594h444 q16 96 16 154q0 217 -178 217q-115 0 -194 -123q-57 -90 -88 -248z" />
<glyph unicode="&#xea;" horiz-adv-x="813" d="M309 1141l185 252h159l99 -252h-74l-111 172l-184 -172h-74zM72 313q0 137 34.5 291t90.5 260q92 178 282 178q131 0 201 -77.5t70 -225.5q0 -86 -27 -227h-539q-20 -145 -20 -217q0 -113 50 -175.5t142 -62.5q186 0 236 267h90q-41 -186 -118 -268.5t-214 -82.5 q-278 0 -278 340zM199 594h444q16 96 16 154q0 217 -178 217q-115 0 -194 -123q-57 -90 -88 -248z" />
<glyph unicode="&#xeb;" horiz-adv-x="813" d="M635 1188l29 135h118l-28 -135h-119zM317 1188l29 135h119l-29 -135h-119zM72 313q0 137 34.5 291t90.5 260q92 178 282 178q131 0 201 -77.5t70 -225.5q0 -86 -27 -227h-539q-20 -145 -20 -217q0 -113 50 -175.5t142 -62.5q186 0 236 267h90q-41 -186 -118 -268.5 t-214 -82.5q-278 0 -278 340zM199 594h444q16 96 16 154q0 217 -178 217q-115 0 -194 -123q-57 -90 -88 -248z" />
<glyph unicode="&#xec;" horiz-adv-x="358" d="M276 1141l-167 254h135l96 -254h-64zM23 0l215 1012h96l-215 -1012h-96z" />
<glyph unicode="&#xed;" horiz-adv-x="358" d="M276 1141l142 252h151l-227 -252h-66zM23 0l215 1012h96l-215 -1012h-96z" />
<glyph unicode="&#xee;" horiz-adv-x="358" d="M84 1141l184 252h160l98 -252h-73l-111 172l-184 -172h-74zM23 0l215 1012h96l-215 -1012h-96z" />
<glyph unicode="&#xef;" horiz-adv-x="358" d="M367 1188l28 135h119l-29 -135h-118zM172 1188l29 135h118l-28 -135h-119zM23 0l215 1012h96l-215 -1012h-96z" />
<glyph unicode="&#xf0;" horiz-adv-x="876" d="M72 322q0 133 32.5 278t85.5 248q100 193 287 192q102 0 178 -41q-23 66 -90 226l-180 -78l-31 74l183 77q0 2 -3.5 11.5t-14.5 37t-21 56.5l73 35l25 -58l22 -47l193 80l31 -74l-191 -79q152 -326 152 -560q0 -135 -38 -295.5t-95 -261.5q-96 -170 -299 -170 q-299 1 -299 349zM217 129q55 -76 162 -76q152 0 223 162q43 96 74 243.5t31 256.5q0 246 -215 246q-145 0 -222 -166q-43 -94 -71.5 -231.5t-28.5 -248.5q0 -129 47 -186z" />
<glyph unicode="&#xf1;" horiz-adv-x="878" d="M377 1174q41 166 147 165q29 0 49.5 -8t112.5 -61q29 -16 49 -17q43 0 62 86h65q-10 -78 -44 -120.5t-85 -42.5q-31 0 -57.5 11t-102.5 54q-31 18 -57 19q-47 0 -72 -86h-67zM23 0l215 1012h96l-27 -123q86 82 152.5 115.5t144.5 33.5q100 0 155.5 -52t55.5 -146 q0 -33 -18 -117l-156 -723h-94l153 723q16 76 17 106q0 59 -39 95.5t-103 36.5q-74 0 -140 -46.5t-154 -154.5l-162 -760h-96z" />
<glyph unicode="&#xf2;" horiz-adv-x="876" d="M500 1141l-168 254h135l96 -254h-63zM72 330q0 127 32.5 271t85.5 247q98 193 306 192q307 0 307 -335q0 -139 -38 -300t-95 -262q-96 -170 -297 -170q-301 1 -301 357zM217 129q55 -76 162 -76q152 0 221 162q43 98 74 245.5t31 254.5q0 246 -213 246q-145 0 -222 -166 q-41 -94 -70.5 -233.5t-29.5 -246.5q0 -129 47 -186z" />
<glyph unicode="&#xf3;" horiz-adv-x="876" d="M479 1141l142 252h151l-227 -252h-66zM72 330q0 127 32.5 271t85.5 247q98 193 306 192q307 0 307 -335q0 -139 -38 -300t-95 -262q-96 -170 -297 -170q-301 1 -301 357zM217 129q55 -76 162 -76q152 0 221 162q43 98 74 245.5t31 254.5q0 246 -213 246q-145 0 -222 -166 q-41 -94 -70.5 -233.5t-29.5 -246.5q0 -129 47 -186z" />
<glyph unicode="&#xf4;" horiz-adv-x="876" d="M313 1141l185 252h159l99 -252h-74l-111 172l-184 -172h-74zM72 330q0 127 32.5 271t85.5 247q98 193 306 192q307 0 307 -335q0 -139 -38 -300t-95 -262q-96 -170 -297 -170q-301 1 -301 357zM217 129q55 -76 162 -76q152 0 221 162q43 98 74 245.5t31 254.5 q0 246 -213 246q-145 0 -222 -166q-41 -94 -70.5 -233.5t-29.5 -246.5q0 -129 47 -186z" />
<glyph unicode="&#xf5;" horiz-adv-x="876" d="M332 1174q41 166 147 165q29 0 49.5 -8t112.5 -61q29 -16 49 -17q43 0 62 86h65q-10 -78 -44 -120.5t-85 -42.5q-31 0 -57.5 11t-102.5 54q-31 18 -57 19q-47 0 -72 -86h-67zM72 330q0 127 32.5 271t85.5 247q98 193 306 192q307 0 307 -335q0 -139 -38 -300t-95 -262 q-96 -170 -297 -170q-301 1 -301 357zM217 129q55 -76 162 -76q152 0 221 162q43 98 74 245.5t31 254.5q0 246 -213 246q-145 0 -222 -166q-41 -94 -70.5 -233.5t-29.5 -246.5q0 -129 47 -186z" />
<glyph unicode="&#xf6;" horiz-adv-x="876" d="M672 1188l28 135h119l-28 -135h-119zM354 1188l29 135h119l-29 -135h-119zM72 330q0 127 32.5 271t85.5 247q98 193 306 192q307 0 307 -335q0 -139 -38 -300t-95 -262q-96 -170 -297 -170q-301 1 -301 357zM217 129q55 -76 162 -76q152 0 221 162q43 98 74 245.5 t31 254.5q0 246 -213 246q-145 0 -222 -166q-41 -94 -70.5 -233.5t-29.5 -246.5q0 -129 47 -186z" />
<glyph unicode="&#xf7;" d="M571 874q-39 0 -67.5 29t-28.5 68q0 41 28.5 68.5t69.5 27.5q39 0 67 -28.5t28 -67.5q0 -41 -29 -69t-68 -28zM129 643l18 86h752l-18 -86h-752zM362 399q0 41 29 69t70 28q39 0 66.5 -29t27.5 -68t-27.5 -67.5t-68.5 -28.5q-39 0 -68 28.5t-29 67.5z" />
<glyph unicode="&#xf8;" horiz-adv-x="841" d="M-12 -6l98 135q-37 76 -37 209q0 121 35 266.5t88 241.5q102 195 297 194q143 0 225 -75l78 108l66 -59l-93 -119q39 -94 39 -193q0 -135 -38.5 -299.5t-94.5 -259.5q-98 -170 -293 -170q-141 0 -223 82l-80 -108zM154 223l491 674q-70 61 -168 61q-152 0 -225 -163 q-45 -100 -75 -240.5t-30 -261.5q1 -23 7 -70zM190 133q68 -82 168 -82q150 0 224 162q45 98 76.5 248.5t31.5 257.5q0 37 -10 86z" />
<glyph unicode="&#xf9;" horiz-adv-x="880" d="M551 1141l-168 254h135l96 -254h-63zM66 172q0 43 16 117l156 723h96l-154 -723q-16 -74 -16 -107q0 -59 39 -95t102 -36q74 0 140.5 46t154.5 155l162 760h96l-217 -1012h-94l26 123q-86 -82 -152.5 -116t-144.5 -34q-100 0 -155 52.5t-55 146.5z" />
<glyph unicode="&#xfa;" horiz-adv-x="880" d="M532 1141l142 252h151l-227 -252h-66zM66 172q0 43 16 117l156 723h96l-154 -723q-16 -74 -16 -107q0 -59 39 -95t102 -36q74 0 140.5 46t154.5 155l162 760h96l-217 -1012h-94l26 123q-86 -82 -152.5 -116t-144.5 -34q-100 0 -155 52.5t-55 146.5z" />
<glyph unicode="&#xfb;" horiz-adv-x="880" d="M352 1141l185 252h159l99 -252h-74l-111 172l-184 -172h-74zM66 172q0 43 16 117l156 723h96l-154 -723q-16 -74 -16 -107q0 -59 39 -95t102 -36q74 0 140.5 46t154.5 155l162 760h96l-217 -1012h-94l26 123q-86 -82 -152.5 -116t-144.5 -34q-100 0 -155 52.5t-55 146.5z " />
<glyph unicode="&#xfc;" horiz-adv-x="880" d="M688 1188l29 135h119l-29 -135h-119zM371 1188l28 135h119l-29 -135h-118zM66 172q0 43 16 117l156 723h96l-154 -723q-16 -74 -16 -107q0 -59 39 -95t102 -36q74 0 140.5 46t154.5 155l162 760h96l-217 -1012h-94l26 123q-86 -82 -152.5 -116t-144.5 -34 q-100 0 -155 52.5t-55 146.5z" />
<glyph unicode="&#xfd;" horiz-adv-x="743" d="M434 1141l141 252h152l-227 -252h-66zM195 -119l47 111l-117 1020h96l96 -856l392 856h102l-481 -1047l-25 -53q-63 -145 -100 -193q-57 -74 -162 -73q-43 0 -106 24l20 82q55 -18 80 -18q97 0 158 147z" />
<glyph unicode="&#xfe;" horiz-adv-x="882" d="M154 162l-109 -514h-96l364 1718h97l-97 -446q119 121 248 120q119 0 182.5 -86t63.5 -245q0 -332 -129 -555q-104 -180 -281 -181q-94 0 -151 44.5t-92 144.5zM205 313q0 -113 53 -185.5t135 -72.5q133 0 211 158q45 90 76 227.5t31 247.5q0 264 -185 264 q-154 0 -231 -188q-37 -88 -63.5 -222.5t-26.5 -228.5z" />
<glyph unicode="&#xff;" horiz-adv-x="743" d="M614 1188l29 135h119l-29 -135h-119zM297 1188l29 135h118l-28 -135h-119zM195 -119l47 111l-117 1020h96l96 -856l392 856h102l-481 -1047l-25 -53q-63 -145 -100 -193q-57 -74 -162 -73q-43 0 -106 24l20 82q55 -18 80 -18q97 0 158 147z" />
<glyph unicode="&#x152;" horiz-adv-x="1505" d="M197 70q-86 119 -86 303q0 166 42 369.5t105 349.5q135 303 383 303q109 0 172.5 -40t101.5 -134l31 145h600l-20 -88h-494l-112 -524h495l-8 -88h-506l-123 -578h545l-18 -88h-650l27 115q-66 -84 -124 -117t-142 -33q-141 1 -219 105zM440 55q166 0 248 217 q57 147 111.5 408.5t54.5 390.5q0 115 -54.5 176.5t-154.5 61.5q-199 0 -301 -273q-55 -145 -92 -329.5t-37 -311.5q0 -164 58 -252t167 -88z" />
<glyph unicode="&#x153;" horiz-adv-x="1411" d="M80 324q0 297 119 522q102 195 305 194q111 0 184 -49q59 -37 100 -141q59 102 127 146t164 44q129 0 201 -77.5t72 -221.5q0 -80 -29 -229h-535q-27 -139 -26 -225q0 -106 52 -169t142 -63q190 0 234 269h90q-35 -182 -114 -266.5t-216 -84.5q-104 0 -165.5 45 t-94.5 146q-57 -102 -127.5 -146.5t-179.5 -44.5q-156 0 -229.5 85.5t-73.5 265.5zM788 594h457q16 115 17 154q0 102 -49.5 159.5t-137.5 57.5q-123 0 -201 -123q-57 -88 -86 -248zM223 125q55 -72 164 -72q72 0 130 43t91 119q39 90 72 249t33 261q0 109 -56.5 171 t-154.5 62q-152 0 -226 -165q-98 -223 -98 -486q0 -121 45 -182z" />
<glyph unicode="&#x178;" horiz-adv-x="919" d="M780 1530l31 141h125l-31 -141h-125zM463 1530l31 141h124l-30 -141h-125zM362 0l119 563l-309 803h107l266 -688l411 688h115l-487 -803l-119 -563h-103z" />
<glyph unicode="&#x2c6;" horiz-adv-x="1024" d="M375 1141l184 252h160l98 -252h-74l-110 172l-184 -172h-74z" />
<glyph unicode="&#x2dc;" horiz-adv-x="1024" d="M387 1174q39 166 148 165q29 0 49 -8t112 -61q29 -16 49 -17q43 0 62 86h65q-10 -78 -43.5 -120.5t-85.5 -42.5q-31 0 -57.5 11t-101.5 54q-31 18 -58 19q-47 0 -71 -86h-68z" />
<glyph unicode="&#x2000;" horiz-adv-x="904" />
<glyph unicode="&#x2001;" horiz-adv-x="1808" />
<glyph unicode="&#x2002;" horiz-adv-x="904" />
<glyph unicode="&#x2003;" horiz-adv-x="1808" />
<glyph unicode="&#x2004;" horiz-adv-x="602" />
<glyph unicode="&#x2005;" horiz-adv-x="452" />
<glyph unicode="&#x2006;" horiz-adv-x="301" />
<glyph unicode="&#x2007;" horiz-adv-x="301" />
<glyph unicode="&#x2008;" horiz-adv-x="226" />
<glyph unicode="&#x2009;" horiz-adv-x="361" />
<glyph unicode="&#x200a;" horiz-adv-x="100" />
<glyph unicode="&#x2010;" horiz-adv-x="374" d="M-2 496l20 94h373l-20 -94h-373z" />
<glyph unicode="&#x2011;" horiz-adv-x="374" d="M-2 496l20 94h373l-20 -94h-373z" />
<glyph unicode="&#x2012;" horiz-adv-x="374" d="M-2 496l20 94h373l-20 -94h-373z" />
<glyph unicode="&#x2013;" horiz-adv-x="878" d="M127 496l20 94h619l-21 -94h-618z" />
<glyph unicode="&#x2014;" horiz-adv-x="1103" d="M-4 496l20 94h1102l-18 -94h-1104z" />
<glyph unicode="&#x2018;" horiz-adv-x="368" d="M264 979l41 192q25 119 63 168.5t117 67.5l-16 -68q-45 -16 -67.5 -50t-36.5 -118l-7 -34h56l-35 -158h-115z" />
<glyph unicode="&#x2019;" horiz-adv-x="356" d="M197 938l14 68q45 14 64.5 46.5t39.5 121.5l9 34h-58l35 158h117l-43 -192q-27 -119 -62.5 -167.5t-115.5 -68.5z" />
<glyph unicode="&#x201a;" horiz-adv-x="356" d="M10 0l35 158h117l-43 -193q-27 -119 -63 -167t-115 -68l14 67q45 14 64.5 47t39.5 121l9 35h-58z" />
<glyph unicode="&#x201c;" horiz-adv-x="593" d="M438 950l41 193q25 119 62 168t116 69l-14 -69q-45 -16 -67.5 -50t-36.5 -118l-7 -35h56l-35 -158h-115zM213 950l41 193q25 119 61.5 168t118.5 69l-16 -69q-45 -16 -67.5 -50t-37.5 -118l-6 -35h55l-34 -158h-115z" />
<glyph unicode="&#x201d;" horiz-adv-x="593" d="M436 938l15 68q45 16 67.5 50t36.5 118l6 34h-55l35 158h114l-41 -192q-25 -117 -61.5 -166.5t-116.5 -69.5zM211 938l14 68q45 14 64.5 46.5t40.5 121.5l8 34h-57l34 158h117l-43 -192q-27 -119 -62.5 -167.5t-115.5 -68.5z" />
<glyph unicode="&#x201e;" horiz-adv-x="593" d="M248 0l35 158h114l-41 -193q-25 -117 -61.5 -166t-116.5 -69l15 67q45 16 67.5 50t36.5 118l6 35h-55zM23 0l34 158h117l-43 -193q-27 -119 -62.5 -167t-115.5 -68l14 67q45 14 64.5 47t40.5 121l8 35h-57z" />
<glyph unicode="&#x2022;" horiz-adv-x="1366" d="M686 410q-119 0 -202 82.5t-83 199.5q0 119 83 202t204 83q115 0 198 -84t83 -201t-83 -199.5t-200 -82.5z" />
<glyph unicode="&#x2026;" horiz-adv-x="1069" d="M723 0l37 168h114l-34 -168h-117zM367 0l36 168h115l-35 -168h-116zM10 0l37 168h115l-35 -168h-117z" />
<glyph unicode="&#x202f;" horiz-adv-x="361" />
<glyph unicode="&#x2039;" horiz-adv-x="509" d="M317 178l-202 307l20 95l328 278l-25 -117l-250 -221l152 -237z" />
<glyph unicode="&#x203a;" horiz-adv-x="485" d="M49 178l25 119l250 219l-152 238l23 104l202 -305l-20 -96z" />
<glyph unicode="&#x205f;" horiz-adv-x="452" />
<glyph unicode="&#x20ac;" horiz-adv-x="1196" d="M252 383q0 88 14 195h-147l35 65h120l11 66h-142l33 65h121q49 231 139 402q121 225 361 225q168 0 260 -97.5t92 -273.5q0 -31 -4 -125h-105l2 111q2 143 -62.5 221t-184.5 78q-141 0 -233.5 -129t-155.5 -412h540l-33 -65h-522l-12 -66h502l-35 -65h-475 q-16 -100 -17 -201q0 -158 63.5 -242t182.5 -84q252 0 346 406h101q-57 -293 -220 -422q-84 -70 -258 -70q-150 0 -233.5 110.5t-83.5 307.5z" />
<glyph unicode="&#x2122;" horiz-adv-x="1232" d="M559 588l168 778h119l59 -627l318 627h125l-168 -778h-80l139 643l-328 -643h-71l-60 651l-141 -651h-80zM229 588l152 706h-197l15 72h444l-16 -72h-166l-152 -706h-80z" />
<glyph unicode="&#xe000;" horiz-adv-x="1010" d="M0 1010h1010v-1010h-1010v1010z" />
<glyph unicode="&#xfb01;" horiz-adv-x="884" d="M74 0l198 930h-114l14 82h117l37 170q23 109 73 154.5t144 45.5q41 0 100 -16l-16 -68q-47 4 -76 5q-55 0 -88 -33t-47 -109l-31 -149h147l-16 -82h-147l-197 -930h-98zM805 1200l35 166h96l-35 -166h-96zM549 0l217 1012h96l-217 -1012h-96z" />
<glyph unicode="&#xfb02;" horiz-adv-x="884" d="M74 0l198 930h-114l14 82h117l37 170q23 109 73 154.5t144 45.5q41 0 100 -16l-16 -68q-47 4 -76 5q-55 0 -88 -33t-47 -109l-31 -149h147l-16 -82h-147l-197 -930h-98zM549 0l291 1366h96l-291 -1366h-96z" />
<glyph unicode="&#xfb03;" horiz-adv-x="1357" d="M74 0l198 930h-114l14 82h117l37 170q23 109 73 154.5t144 45.5q41 0 100 -16l-16 -68q-47 4 -76 5q-55 0 -88 -33t-47 -109l-31 -149h377l37 170q23 109 73 154.5t144 45.5q41 0 100 -16l-16 -68q-47 4 -76 5q-55 0 -88 -33t-47 -109l-31 -149h148l-17 -82h-147 l-197 -930h-98l198 930h-376l-197 -930h-98zM1278 1200l35 166h96l-35 -166h-96zM1022 0l217 1012h96l-217 -1012h-96z" />
<glyph unicode="&#xfb04;" horiz-adv-x="1357" d="M74 0l198 930h-114l14 82h117l37 170q23 109 73 154.5t144 45.5q41 0 100 -16l-16 -68q-47 4 -76 5q-55 0 -88 -33t-47 -109l-31 -149h377l37 170q23 109 73 154.5t144 45.5q41 0 100 -16l-16 -68q-47 4 -76 5q-55 0 -88 -33t-47 -109l-31 -149h148l-17 -82h-147 l-197 -930h-98l198 930h-376l-197 -930h-98zM1022 0l291 1366h96l-291 -1366h-96z" />
</font>
</defs>
</svg>
